<?xml version="1.0" encoding="utf-8" ?>
<svg baseProfile="full" height="250px" version="1.1" width="700px" xmlns="http://www.w3.org/2000/svg" xmlns:ev="http://www.w3.org/2001/xml-events" xmlns:xlink="http://www.w3.org/1999/xlink"><defs><linearGradient id="fade-gradient" x1="0" x2="1" y1="0" y2="0"><stop offset="0%" stop-color="#335566" stop-opacity="0" /><stop offset="5%" stop-color="#335566" stop-opacity="1" /><stop offset="95%" stop-color="#335566" stop-opacity="1" /><stop offset="100%" stop-color="#335566" stop-opacity="0" /></linearGradient><marker id="arrow-left" markerHeight="10" markerWidth="10" orient="auto" refX="0" refY="5"><path d="M10,0 L0,5 L10,10 Z" fill="black" /></marker><marker id="arrow-right" markerHeight="10" markerWidth="10" orient="auto" refX="10" refY="5"><path d="M0,0 L10,5 L0,10 Z" fill="black" /></marker></defs><rect fill="url(#fade-gradient)" height="50" width="600" x="50" y="100" /><rect fill="orange" height="50" width="460" x="120" y="100" /><text dominant-baseline="hanging" font-size="12px" text-anchor="middle" x="580" y="154">P</text><text dominant-baseline="hanging" font-size="12px" text-anchor="middle" x="580" y="168">100.000</text><text dominant-baseline="hanging" font-size="12px" text-anchor="middle" x="120" y="154">0</text><rect fill="red" height="50" width="50" x="120" y="100" /><text dominant-baseline="hanging" font-size="12px" text-anchor="middle" x="170" y="154">N</text><text dominant-baseline="hanging" font-size="12px" text-anchor="middle" x="170" y="168">10.000</text><rect fill="#4b3" height="50" width="50" x="530" y="100" /><text dominant-baseline="hanging" font-size="12px" text-anchor="middle" x="530" y="154">P - N</text><text dominant-baseline="hanging" font-size="12px" text-anchor="middle" x="530" y="168">90.000</text><line stroke="black" stroke-dasharray="5,5" x1="120" x2="120" y1="70" y2="160" /><text dominant-baseline="auto" font-size="11px" text-anchor="middle" x="120" y="51">Último escaño</text><text dominant-baseline="auto" font-size="11px" text-anchor="middle" x="120" y="65">conseguido</text><line stroke="black" stroke-dasharray="5,5" x1="580" x2="580" y1="70" y2="160" /><text dominant-baseline="auto" font-size="11px" text-anchor="middle" x="580" y="51">Umbral siguiente</text><text dominant-baseline="auto" font-size="11px" text-anchor="middle" x="580" y="65">escaño</text><line marker-end="url(#arrow-right)" marker-start="url(#arrow-left)" stroke="black" stroke-width="1" x1="120" x2="580" y1="85" y2="85" /><text dominant-baseline="auto" font-size="11px" text-anchor="middle" x="350.0" y="66">Precio del escaño, P</text><text dominant-baseline="auto" font-size="11px" text-anchor="middle" x="350.0" y="80">(pe. 100.000 votos)</text><text dominant-baseline="hanging" font-size="11px" text-anchor="middle" x="235.0" y="190">Zona en la que</text><text dominant-baseline="hanging" font-size="11px" text-anchor="middle" x="235.0" y="204">perder 10.000 votos</text><text dominant-baseline="hanging" font-size="11px" text-anchor="middle" x="235.0" y="218">quitaría un escaño</text><line marker-end="url(#arrow-right)" stroke="black" stroke-width="1" x1="235.0" x2="145.0" y1="185" y2="125.0" /><text dominant-baseline="hanging" font-size="11px" text-anchor="middle" x="465.0" y="190">Zona en la que</text><text dominant-baseline="hanging" font-size="11px" text-anchor="middle" x="465.0" y="204">ganar 10.000 votos</text><text dominant-baseline="hanging" font-size="11px" text-anchor="middle" x="465.0" y="218">añadiría un escaño</text><line marker-end="url(#arrow-right)" stroke="black" stroke-width="1" x1="465.0" x2="555.0" y1="185" y2="125.0" /></svg>