<?xml version="1.0" encoding="utf-8" standalone="no"?>
<!DOCTYPE svg PUBLIC "-//W3C//DTD SVG 1.1//EN"
  "http://www.w3.org/Graphics/SVG/1.1/DTD/svg11.dtd">
<svg xmlns:xlink="http://www.w3.org/1999/xlink" width="720pt" height="360pt" viewBox="0 0 720 360" xmlns="http://www.w3.org/2000/svg" version="1.1">
 <metadata>
  <rdf:RDF xmlns:dc="http://purl.org/dc/elements/1.1/" xmlns:cc="http://creativecommons.org/ns#" xmlns:rdf="http://www.w3.org/1999/02/22-rdf-syntax-ns#">
   <cc:Work>
    <dc:type rdf:resource="http://purl.org/dc/dcmitype/StillImage"/>
    <dc:date>2025-05-16T14:00:00.108618</dc:date>
    <dc:format>image/svg+xml</dc:format>
    <dc:creator>
     <cc:Agent>
      <dc:title>Matplotlib v3.10.1, https://matplotlib.org/</dc:title>
     </cc:Agent>
    </dc:creator>
   </cc:Work>
  </rdf:RDF>
 </metadata>
 <defs>
  <style type="text/css">*{stroke-linejoin: round; stroke-linecap: butt}</style>
 </defs>
 <g id="figure_1">
  <g id="patch_1">
   <path d="M 0 360 
L 720 360 
L 720 0 
L 0 0 
z
" style="fill: #ffffff"/>
  </g>
  <g id="axes_1">
   <g id="patch_2">
    <path d="M 90 320.4 
L 648 320.4 
L 648 43.2 
L 90 43.2 
z
" style="fill: #ffffff"/>
   </g>
   <g id="patch_3">
    <path d="M 115.363636 320.4 
L 117.392727 320.4 
L 117.392727 320.4 
L 115.363636 320.4 
z
" clip-path="url(#p057d2c442e)" style="fill: #4682b4; opacity: 0.7"/>
   </g>
   <g id="patch_4">
    <path d="M 117.392727 320.4 
L 119.421818 320.4 
L 119.421818 320.4 
L 117.392727 320.4 
z
" clip-path="url(#p057d2c442e)" style="fill: #4682b4; opacity: 0.7"/>
   </g>
   <g id="patch_5">
    <path d="M 119.421818 320.4 
L 121.450909 320.4 
L 121.450909 320.4 
L 119.421818 320.4 
z
" clip-path="url(#p057d2c442e)" style="fill: #4682b4; opacity: 0.7"/>
   </g>
   <g id="patch_6">
    <path d="M 121.450909 320.4 
L 123.48 320.4 
L 123.48 320.4 
L 121.450909 320.4 
z
" clip-path="url(#p057d2c442e)" style="fill: #4682b4; opacity: 0.7"/>
   </g>
   <g id="patch_7">
    <path d="M 123.48 320.4 
L 125.509091 320.4 
L 125.509091 320.4 
L 123.48 320.4 
z
" clip-path="url(#p057d2c442e)" style="fill: #4682b4; opacity: 0.7"/>
   </g>
   <g id="patch_8">
    <path d="M 125.509091 320.4 
L 127.538182 320.4 
L 127.538182 320.4 
L 125.509091 320.4 
z
" clip-path="url(#p057d2c442e)" style="fill: #4682b4; opacity: 0.7"/>
   </g>
   <g id="patch_9">
    <path d="M 127.538182 320.4 
L 129.567273 320.4 
L 129.567273 320.4 
L 127.538182 320.4 
z
" clip-path="url(#p057d2c442e)" style="fill: #4682b4; opacity: 0.7"/>
   </g>
   <g id="patch_10">
    <path d="M 129.567273 320.4 
L 131.596364 320.4 
L 131.596364 320.4 
L 129.567273 320.4 
z
" clip-path="url(#p057d2c442e)" style="fill: #4682b4; opacity: 0.7"/>
   </g>
   <g id="patch_11">
    <path d="M 131.596364 320.4 
L 133.625455 320.4 
L 133.625455 320.4 
L 131.596364 320.4 
z
" clip-path="url(#p057d2c442e)" style="fill: #4682b4; opacity: 0.7"/>
   </g>
   <g id="patch_12">
    <path d="M 133.625455 320.4 
L 135.654545 320.4 
L 135.654545 320.4 
L 133.625455 320.4 
z
" clip-path="url(#p057d2c442e)" style="fill: #4682b4; opacity: 0.7"/>
   </g>
   <g id="patch_13">
    <path d="M 135.654545 320.4 
L 137.683636 320.4 
L 137.683636 320.4 
L 135.654545 320.4 
z
" clip-path="url(#p057d2c442e)" style="fill: #4682b4; opacity: 0.7"/>
   </g>
   <g id="patch_14">
    <path d="M 137.683636 320.4 
L 139.712727 320.4 
L 139.712727 320.4 
L 137.683636 320.4 
z
" clip-path="url(#p057d2c442e)" style="fill: #4682b4; opacity: 0.7"/>
   </g>
   <g id="patch_15">
    <path d="M 139.712727 320.4 
L 141.741818 320.4 
L 141.741818 320.4 
L 139.712727 320.4 
z
" clip-path="url(#p057d2c442e)" style="fill: #4682b4; opacity: 0.7"/>
   </g>
   <g id="patch_16">
    <path d="M 141.741818 320.4 
L 143.770909 320.4 
L 143.770909 320.4 
L 141.741818 320.4 
z
" clip-path="url(#p057d2c442e)" style="fill: #4682b4; opacity: 0.7"/>
   </g>
   <g id="patch_17">
    <path d="M 143.770909 320.4 
L 145.8 320.4 
L 145.8 320.4 
L 143.770909 320.4 
z
" clip-path="url(#p057d2c442e)" style="fill: #4682b4; opacity: 0.7"/>
   </g>
   <g id="patch_18">
    <path d="M 145.8 320.4 
L 147.829091 320.4 
L 147.829091 320.4 
L 145.8 320.4 
z
" clip-path="url(#p057d2c442e)" style="fill: #4682b4; opacity: 0.7"/>
   </g>
   <g id="patch_19">
    <path d="M 147.829091 320.4 
L 149.858182 320.4 
L 149.858182 320.4 
L 147.829091 320.4 
z
" clip-path="url(#p057d2c442e)" style="fill: #4682b4; opacity: 0.7"/>
   </g>
   <g id="patch_20">
    <path d="M 149.858182 320.4 
L 151.887273 320.4 
L 151.887273 320.4 
L 149.858182 320.4 
z
" clip-path="url(#p057d2c442e)" style="fill: #4682b4; opacity: 0.7"/>
   </g>
   <g id="patch_21">
    <path d="M 151.887273 320.4 
L 153.916364 320.4 
L 153.916364 320.4 
L 151.887273 320.4 
z
" clip-path="url(#p057d2c442e)" style="fill: #4682b4; opacity: 0.7"/>
   </g>
   <g id="patch_22">
    <path d="M 153.916364 320.4 
L 155.945455 320.4 
L 155.945455 320.4 
L 153.916364 320.4 
z
" clip-path="url(#p057d2c442e)" style="fill: #4682b4; opacity: 0.7"/>
   </g>
   <g id="patch_23">
    <path d="M 155.945455 320.4 
L 157.974545 320.4 
L 157.974545 320.4 
L 155.945455 320.4 
z
" clip-path="url(#p057d2c442e)" style="fill: #4682b4; opacity: 0.7"/>
   </g>
   <g id="patch_24">
    <path d="M 157.974545 320.4 
L 160.003636 320.4 
L 160.003636 320.4 
L 157.974545 320.4 
z
" clip-path="url(#p057d2c442e)" style="fill: #4682b4; opacity: 0.7"/>
   </g>
   <g id="patch_25">
    <path d="M 160.003636 320.4 
L 162.032727 320.4 
L 162.032727 320.4 
L 160.003636 320.4 
z
" clip-path="url(#p057d2c442e)" style="fill: #4682b4; opacity: 0.7"/>
   </g>
   <g id="patch_26">
    <path d="M 162.032727 320.4 
L 164.061818 320.4 
L 164.061818 319.678689 
L 162.032727 319.678689 
z
" clip-path="url(#p057d2c442e)" style="fill: #4682b4; opacity: 0.7"/>
   </g>
   <g id="patch_27">
    <path d="M 164.061818 320.4 
L 166.090909 320.4 
L 166.090909 319.678689 
L 164.061818 319.678689 
z
" clip-path="url(#p057d2c442e)" style="fill: #4682b4; opacity: 0.7"/>
   </g>
   <g id="patch_28">
    <path d="M 166.090909 320.4 
L 168.12 320.4 
L 168.12 319.678689 
L 166.090909 319.678689 
z
" clip-path="url(#p057d2c442e)" style="fill: #4682b4; opacity: 0.7"/>
   </g>
   <g id="patch_29">
    <path d="M 168.12 320.4 
L 170.149091 320.4 
L 170.149091 318.957377 
L 168.12 318.957377 
z
" clip-path="url(#p057d2c442e)" style="fill: #4682b4; opacity: 0.7"/>
   </g>
   <g id="patch_30">
    <path d="M 170.149091 320.4 
L 172.178182 320.4 
L 172.178182 318.236066 
L 170.149091 318.236066 
z
" clip-path="url(#p057d2c442e)" style="fill: #4682b4; opacity: 0.7"/>
   </g>
   <g id="patch_31">
    <path d="M 172.178182 320.4 
L 174.207273 320.4 
L 174.207273 318.236066 
L 172.178182 318.236066 
z
" clip-path="url(#p057d2c442e)" style="fill: #4682b4; opacity: 0.7"/>
   </g>
   <g id="patch_32">
    <path d="M 174.207273 320.4 
L 176.236364 320.4 
L 176.236364 318.236066 
L 174.207273 318.236066 
z
" clip-path="url(#p057d2c442e)" style="fill: #4682b4; opacity: 0.7"/>
   </g>
   <g id="patch_33">
    <path d="M 176.236364 320.4 
L 178.265455 320.4 
L 178.265455 318.236066 
L 176.236364 318.236066 
z
" clip-path="url(#p057d2c442e)" style="fill: #4682b4; opacity: 0.7"/>
   </g>
   <g id="patch_34">
    <path d="M 178.265455 320.4 
L 180.294545 320.4 
L 180.294545 318.236066 
L 178.265455 318.236066 
z
" clip-path="url(#p057d2c442e)" style="fill: #4682b4; opacity: 0.7"/>
   </g>
   <g id="patch_35">
    <path d="M 180.294545 320.4 
L 182.323636 320.4 
L 182.323636 318.236066 
L 180.294545 318.236066 
z
" clip-path="url(#p057d2c442e)" style="fill: #4682b4; opacity: 0.7"/>
   </g>
   <g id="patch_36">
    <path d="M 182.323636 320.4 
L 184.352727 320.4 
L 184.352727 316.072131 
L 182.323636 316.072131 
z
" clip-path="url(#p057d2c442e)" style="fill: #4682b4; opacity: 0.7"/>
   </g>
   <g id="patch_37">
    <path d="M 184.352727 320.4 
L 186.381818 320.4 
L 186.381818 315.35082 
L 184.352727 315.35082 
z
" clip-path="url(#p057d2c442e)" style="fill: #4682b4; opacity: 0.7"/>
   </g>
   <g id="patch_38">
    <path d="M 186.381818 320.4 
L 188.410909 320.4 
L 188.410909 314.629508 
L 186.381818 314.629508 
z
" clip-path="url(#p057d2c442e)" style="fill: #4682b4; opacity: 0.7"/>
   </g>
   <g id="patch_39">
    <path d="M 188.410909 320.4 
L 190.44 320.4 
L 190.44 313.908197 
L 188.410909 313.908197 
z
" clip-path="url(#p057d2c442e)" style="fill: #4682b4; opacity: 0.7"/>
   </g>
   <g id="patch_40">
    <path d="M 190.44 320.4 
L 192.469091 320.4 
L 192.469091 314.629508 
L 190.44 314.629508 
z
" clip-path="url(#p057d2c442e)" style="fill: #4682b4; opacity: 0.7"/>
   </g>
   <g id="patch_41">
    <path d="M 192.469091 320.4 
L 194.498182 320.4 
L 194.498182 313.908197 
L 192.469091 313.908197 
z
" clip-path="url(#p057d2c442e)" style="fill: #4682b4; opacity: 0.7"/>
   </g>
   <g id="patch_42">
    <path d="M 194.498182 320.4 
L 196.527273 320.4 
L 196.527273 313.908197 
L 194.498182 313.908197 
z
" clip-path="url(#p057d2c442e)" style="fill: #4682b4; opacity: 0.7"/>
   </g>
   <g id="patch_43">
    <path d="M 196.527273 320.4 
L 198.556364 320.4 
L 198.556364 312.465574 
L 196.527273 312.465574 
z
" clip-path="url(#p057d2c442e)" style="fill: #4682b4; opacity: 0.7"/>
   </g>
   <g id="patch_44">
    <path d="M 198.556364 320.4 
L 200.585455 320.4 
L 200.585455 312.465574 
L 198.556364 312.465574 
z
" clip-path="url(#p057d2c442e)" style="fill: #4682b4; opacity: 0.7"/>
   </g>
   <g id="patch_45">
    <path d="M 200.585455 320.4 
L 202.614545 320.4 
L 202.614545 312.465574 
L 200.585455 312.465574 
z
" clip-path="url(#p057d2c442e)" style="fill: #4682b4; opacity: 0.7"/>
   </g>
   <g id="patch_46">
    <path d="M 202.614545 320.4 
L 204.643636 320.4 
L 204.643636 312.465574 
L 202.614545 312.465574 
z
" clip-path="url(#p057d2c442e)" style="fill: #4682b4; opacity: 0.7"/>
   </g>
   <g id="patch_47">
    <path d="M 204.643636 320.4 
L 206.672727 320.4 
L 206.672727 311.744262 
L 204.643636 311.744262 
z
" clip-path="url(#p057d2c442e)" style="fill: #4682b4; opacity: 0.7"/>
   </g>
   <g id="patch_48">
    <path d="M 206.672727 320.4 
L 208.701818 320.4 
L 208.701818 311.744262 
L 206.672727 311.744262 
z
" clip-path="url(#p057d2c442e)" style="fill: #4682b4; opacity: 0.7"/>
   </g>
   <g id="patch_49">
    <path d="M 208.701818 320.4 
L 210.730909 320.4 
L 210.730909 311.744262 
L 208.701818 311.744262 
z
" clip-path="url(#p057d2c442e)" style="fill: #4682b4; opacity: 0.7"/>
   </g>
   <g id="patch_50">
    <path d="M 210.730909 320.4 
L 212.76 320.4 
L 212.76 311.744262 
L 210.730909 311.744262 
z
" clip-path="url(#p057d2c442e)" style="fill: #4682b4; opacity: 0.7"/>
   </g>
   <g id="patch_51">
    <path d="M 212.76 320.4 
L 214.789091 320.4 
L 214.789091 311.744262 
L 212.76 311.744262 
z
" clip-path="url(#p057d2c442e)" style="fill: #4682b4; opacity: 0.7"/>
   </g>
   <g id="patch_52">
    <path d="M 214.789091 320.4 
L 216.818182 320.4 
L 216.818182 311.022951 
L 214.789091 311.022951 
z
" clip-path="url(#p057d2c442e)" style="fill: #4682b4; opacity: 0.7"/>
   </g>
   <g id="patch_53">
    <path d="M 216.818182 320.4 
L 218.847273 320.4 
L 218.847273 311.022951 
L 216.818182 311.022951 
z
" clip-path="url(#p057d2c442e)" style="fill: #4682b4; opacity: 0.7"/>
   </g>
   <g id="patch_54">
    <path d="M 218.847273 320.4 
L 220.876364 320.4 
L 220.876364 311.022951 
L 218.847273 311.022951 
z
" clip-path="url(#p057d2c442e)" style="fill: #4682b4; opacity: 0.7"/>
   </g>
   <g id="patch_55">
    <path d="M 220.876364 320.4 
L 222.905455 320.4 
L 222.905455 311.022951 
L 220.876364 311.022951 
z
" clip-path="url(#p057d2c442e)" style="fill: #4682b4; opacity: 0.7"/>
   </g>
   <g id="patch_56">
    <path d="M 222.905455 320.4 
L 224.934545 320.4 
L 224.934545 308.859016 
L 222.905455 308.859016 
z
" clip-path="url(#p057d2c442e)" style="fill: #4682b4; opacity: 0.7"/>
   </g>
   <g id="patch_57">
    <path d="M 224.934545 320.4 
L 226.963636 320.4 
L 226.963636 308.859016 
L 224.934545 308.859016 
z
" clip-path="url(#p057d2c442e)" style="fill: #4682b4; opacity: 0.7"/>
   </g>
   <g id="patch_58">
    <path d="M 226.963636 320.4 
L 228.992727 320.4 
L 228.992727 308.859016 
L 226.963636 308.859016 
z
" clip-path="url(#p057d2c442e)" style="fill: #4682b4; opacity: 0.7"/>
   </g>
   <g id="patch_59">
    <path d="M 228.992727 320.4 
L 231.021818 320.4 
L 231.021818 308.859016 
L 228.992727 308.859016 
z
" clip-path="url(#p057d2c442e)" style="fill: #4682b4; opacity: 0.7"/>
   </g>
   <g id="patch_60">
    <path d="M 231.021818 320.4 
L 233.050909 320.4 
L 233.050909 306.695082 
L 231.021818 306.695082 
z
" clip-path="url(#p057d2c442e)" style="fill: #4682b4; opacity: 0.7"/>
   </g>
   <g id="patch_61">
    <path d="M 233.050909 320.4 
L 235.08 320.4 
L 235.08 306.695082 
L 233.050909 306.695082 
z
" clip-path="url(#p057d2c442e)" style="fill: #4682b4; opacity: 0.7"/>
   </g>
   <g id="patch_62">
    <path d="M 235.08 320.4 
L 237.109091 320.4 
L 237.109091 305.97377 
L 235.08 305.97377 
z
" clip-path="url(#p057d2c442e)" style="fill: #4682b4; opacity: 0.7"/>
   </g>
   <g id="patch_63">
    <path d="M 237.109091 320.4 
L 239.138182 320.4 
L 239.138182 305.97377 
L 237.109091 305.97377 
z
" clip-path="url(#p057d2c442e)" style="fill: #4682b4; opacity: 0.7"/>
   </g>
   <g id="patch_64">
    <path d="M 239.138182 320.4 
L 241.167273 320.4 
L 241.167273 305.252459 
L 239.138182 305.252459 
z
" clip-path="url(#p057d2c442e)" style="fill: #4682b4; opacity: 0.7"/>
   </g>
   <g id="patch_65">
    <path d="M 241.167273 320.4 
L 243.196364 320.4 
L 243.196364 304.531148 
L 241.167273 304.531148 
z
" clip-path="url(#p057d2c442e)" style="fill: #4682b4; opacity: 0.7"/>
   </g>
   <g id="patch_66">
    <path d="M 243.196364 320.4 
L 245.225455 320.4 
L 245.225455 301.645902 
L 243.196364 301.645902 
z
" clip-path="url(#p057d2c442e)" style="fill: #4682b4; opacity: 0.7"/>
   </g>
   <g id="patch_67">
    <path d="M 245.225455 320.4 
L 247.254545 320.4 
L 247.254545 300.203279 
L 245.225455 300.203279 
z
" clip-path="url(#p057d2c442e)" style="fill: #4682b4; opacity: 0.7"/>
   </g>
   <g id="patch_68">
    <path d="M 247.254545 320.4 
L 249.283636 320.4 
L 249.283636 298.760656 
L 247.254545 298.760656 
z
" clip-path="url(#p057d2c442e)" style="fill: #4682b4; opacity: 0.7"/>
   </g>
   <g id="patch_69">
    <path d="M 249.283636 320.4 
L 251.312727 320.4 
L 251.312727 298.039344 
L 249.283636 298.039344 
z
" clip-path="url(#p057d2c442e)" style="fill: #4682b4; opacity: 0.7"/>
   </g>
   <g id="patch_70">
    <path d="M 251.312727 320.4 
L 253.341818 320.4 
L 253.341818 295.154098 
L 251.312727 295.154098 
z
" clip-path="url(#p057d2c442e)" style="fill: #4682b4; opacity: 0.7"/>
   </g>
   <g id="patch_71">
    <path d="M 253.341818 320.4 
L 255.370909 320.4 
L 255.370909 294.432787 
L 253.341818 294.432787 
z
" clip-path="url(#p057d2c442e)" style="fill: #4682b4; opacity: 0.7"/>
   </g>
   <g id="patch_72">
    <path d="M 255.370909 320.4 
L 257.4 320.4 
L 257.4 295.154098 
L 255.370909 295.154098 
z
" clip-path="url(#p057d2c442e)" style="fill: #4682b4; opacity: 0.7"/>
   </g>
   <g id="patch_73">
    <path d="M 257.4 320.4 
L 259.429091 320.4 
L 259.429091 290.82623 
L 257.4 290.82623 
z
" clip-path="url(#p057d2c442e)" style="fill: #4682b4; opacity: 0.7"/>
   </g>
   <g id="patch_74">
    <path d="M 259.429091 320.4 
L 261.458182 320.4 
L 261.458182 288.662295 
L 259.429091 288.662295 
z
" clip-path="url(#p057d2c442e)" style="fill: #4682b4; opacity: 0.7"/>
   </g>
   <g id="patch_75">
    <path d="M 261.458182 320.4 
L 263.487273 320.4 
L 263.487273 287.940984 
L 261.458182 287.940984 
z
" clip-path="url(#p057d2c442e)" style="fill: #4682b4; opacity: 0.7"/>
   </g>
   <g id="patch_76">
    <path d="M 263.487273 320.4 
L 265.516364 320.4 
L 265.516364 287.219672 
L 263.487273 287.219672 
z
" clip-path="url(#p057d2c442e)" style="fill: #4682b4; opacity: 0.7"/>
   </g>
   <g id="patch_77">
    <path d="M 265.516364 320.4 
L 267.545455 320.4 
L 267.545455 286.498361 
L 265.516364 286.498361 
z
" clip-path="url(#p057d2c442e)" style="fill: #4682b4; opacity: 0.7"/>
   </g>
   <g id="patch_78">
    <path d="M 267.545455 320.4 
L 269.574545 320.4 
L 269.574545 284.334426 
L 267.545455 284.334426 
z
" clip-path="url(#p057d2c442e)" style="fill: #4682b4; opacity: 0.7"/>
   </g>
   <g id="patch_79">
    <path d="M 269.574545 320.4 
L 271.603636 320.4 
L 271.603636 282.170492 
L 269.574545 282.170492 
z
" clip-path="url(#p057d2c442e)" style="fill: #4682b4; opacity: 0.7"/>
   </g>
   <g id="patch_80">
    <path d="M 271.603636 320.4 
L 273.632727 320.4 
L 273.632727 279.285246 
L 271.603636 279.285246 
z
" clip-path="url(#p057d2c442e)" style="fill: #4682b4; opacity: 0.7"/>
   </g>
   <g id="patch_81">
    <path d="M 273.632727 320.4 
L 275.661818 320.4 
L 275.661818 276.4 
L 273.632727 276.4 
z
" clip-path="url(#p057d2c442e)" style="fill: #4682b4; opacity: 0.7"/>
   </g>
   <g id="patch_82">
    <path d="M 275.661818 320.4 
L 277.690909 320.4 
L 277.690909 273.514754 
L 275.661818 273.514754 
z
" clip-path="url(#p057d2c442e)" style="fill: #4682b4; opacity: 0.7"/>
   </g>
   <g id="patch_83">
    <path d="M 277.690909 320.4 
L 279.72 320.4 
L 279.72 272.072131 
L 277.690909 272.072131 
z
" clip-path="url(#p057d2c442e)" style="fill: #4682b4; opacity: 0.7"/>
   </g>
   <g id="patch_84">
    <path d="M 279.72 320.4 
L 281.749091 320.4 
L 281.749091 270.629508 
L 279.72 270.629508 
z
" clip-path="url(#p057d2c442e)" style="fill: #4682b4; opacity: 0.7"/>
   </g>
   <g id="patch_85">
    <path d="M 281.749091 320.4 
L 283.778182 320.4 
L 283.778182 269.908197 
L 281.749091 269.908197 
z
" clip-path="url(#p057d2c442e)" style="fill: #4682b4; opacity: 0.7"/>
   </g>
   <g id="patch_86">
    <path d="M 283.778182 320.4 
L 285.807273 320.4 
L 285.807273 267.744262 
L 283.778182 267.744262 
z
" clip-path="url(#p057d2c442e)" style="fill: #4682b4; opacity: 0.7"/>
   </g>
   <g id="patch_87">
    <path d="M 285.807273 320.4 
L 287.836364 320.4 
L 287.836364 265.580328 
L 285.807273 265.580328 
z
" clip-path="url(#p057d2c442e)" style="fill: #4682b4; opacity: 0.7"/>
   </g>
   <g id="patch_88">
    <path d="M 287.836364 320.4 
L 289.865455 320.4 
L 289.865455 262.695082 
L 287.836364 262.695082 
z
" clip-path="url(#p057d2c442e)" style="fill: #4682b4; opacity: 0.7"/>
   </g>
   <g id="patch_89">
    <path d="M 289.865455 320.4 
L 291.894545 320.4 
L 291.894545 258.367213 
L 289.865455 258.367213 
z
" clip-path="url(#p057d2c442e)" style="fill: #4682b4; opacity: 0.7"/>
   </g>
   <g id="patch_90">
    <path d="M 291.894545 320.4 
L 293.923636 320.4 
L 293.923636 254.760656 
L 291.894545 254.760656 
z
" clip-path="url(#p057d2c442e)" style="fill: #4682b4; opacity: 0.7"/>
   </g>
   <g id="patch_91">
    <path d="M 293.923636 320.4 
L 295.952727 320.4 
L 295.952727 250.432787 
L 293.923636 250.432787 
z
" clip-path="url(#p057d2c442e)" style="fill: #4682b4; opacity: 0.7"/>
   </g>
   <g id="patch_92">
    <path d="M 295.952727 320.4 
L 297.981818 320.4 
L 297.981818 246.82623 
L 295.952727 246.82623 
z
" clip-path="url(#p057d2c442e)" style="fill: #4682b4; opacity: 0.7"/>
   </g>
   <g id="patch_93">
    <path d="M 297.981818 320.4 
L 300.010909 320.4 
L 300.010909 244.662295 
L 297.981818 244.662295 
z
" clip-path="url(#p057d2c442e)" style="fill: #4682b4; opacity: 0.7"/>
   </g>
   <g id="patch_94">
    <path d="M 300.010909 320.4 
L 302.04 320.4 
L 302.04 238.891803 
L 300.010909 238.891803 
z
" clip-path="url(#p057d2c442e)" style="fill: #4682b4; opacity: 0.7"/>
   </g>
   <g id="patch_95">
    <path d="M 302.04 320.4 
L 304.069091 320.4 
L 304.069091 232.4 
L 302.04 232.4 
z
" clip-path="url(#p057d2c442e)" style="fill: #4682b4; opacity: 0.7"/>
   </g>
   <g id="patch_96">
    <path d="M 304.069091 320.4 
L 306.098182 320.4 
L 306.098182 228.072131 
L 304.069091 228.072131 
z
" clip-path="url(#p057d2c442e)" style="fill: #4682b4; opacity: 0.7"/>
   </g>
   <g id="patch_97">
    <path d="M 306.098182 320.4 
L 308.127273 320.4 
L 308.127273 226.629508 
L 306.098182 226.629508 
z
" clip-path="url(#p057d2c442e)" style="fill: #4682b4; opacity: 0.7"/>
   </g>
   <g id="patch_98">
    <path d="M 308.127273 320.4 
L 310.156364 320.4 
L 310.156364 225.908197 
L 308.127273 225.908197 
z
" clip-path="url(#p057d2c442e)" style="fill: #4682b4; opacity: 0.7"/>
   </g>
   <g id="patch_99">
    <path d="M 310.156364 320.4 
L 312.185455 320.4 
L 312.185455 221.580328 
L 310.156364 221.580328 
z
" clip-path="url(#p057d2c442e)" style="fill: #4682b4; opacity: 0.7"/>
   </g>
   <g id="patch_100">
    <path d="M 312.185455 320.4 
L 314.214545 320.4 
L 314.214545 217.252459 
L 312.185455 217.252459 
z
" clip-path="url(#p057d2c442e)" style="fill: #4682b4; opacity: 0.7"/>
   </g>
   <g id="patch_101">
    <path d="M 314.214545 320.4 
L 316.243636 320.4 
L 316.243636 213.645902 
L 314.214545 213.645902 
z
" clip-path="url(#p057d2c442e)" style="fill: #4682b4; opacity: 0.7"/>
   </g>
   <g id="patch_102">
    <path d="M 316.243636 320.4 
L 318.272727 320.4 
L 318.272727 211.481967 
L 316.243636 211.481967 
z
" clip-path="url(#p057d2c442e)" style="fill: #4682b4; opacity: 0.7"/>
   </g>
   <g id="patch_103">
    <path d="M 318.272727 320.4 
L 320.301818 320.4 
L 320.301818 207.154098 
L 318.272727 207.154098 
z
" clip-path="url(#p057d2c442e)" style="fill: #4682b4; opacity: 0.7"/>
   </g>
   <g id="patch_104">
    <path d="M 320.301818 320.4 
L 322.330909 320.4 
L 322.330909 204.268852 
L 320.301818 204.268852 
z
" clip-path="url(#p057d2c442e)" style="fill: #4682b4; opacity: 0.7"/>
   </g>
   <g id="patch_105">
    <path d="M 322.330909 320.4 
L 324.36 320.4 
L 324.36 200.662295 
L 322.330909 200.662295 
z
" clip-path="url(#p057d2c442e)" style="fill: #4682b4; opacity: 0.7"/>
   </g>
   <g id="patch_106">
    <path d="M 324.36 320.4 
L 326.389091 320.4 
L 326.389091 197.777049 
L 324.36 197.777049 
z
" clip-path="url(#p057d2c442e)" style="fill: #4682b4; opacity: 0.7"/>
   </g>
   <g id="patch_107">
    <path d="M 326.389091 320.4 
L 328.418182 320.4 
L 328.418182 188.4 
L 326.389091 188.4 
z
" clip-path="url(#p057d2c442e)" style="fill: #4682b4; opacity: 0.7"/>
   </g>
   <g id="patch_108">
    <path d="M 328.418182 320.4 
L 330.447273 320.4 
L 330.447273 185.514754 
L 328.418182 185.514754 
z
" clip-path="url(#p057d2c442e)" style="fill: #4682b4; opacity: 0.7"/>
   </g>
   <g id="patch_109">
    <path d="M 330.447273 320.4 
L 332.476364 320.4 
L 332.476364 181.908197 
L 330.447273 181.908197 
z
" clip-path="url(#p057d2c442e)" style="fill: #4682b4; opacity: 0.7"/>
   </g>
   <g id="patch_110">
    <path d="M 332.476364 320.4 
L 334.505455 320.4 
L 334.505455 175.416393 
L 332.476364 175.416393 
z
" clip-path="url(#p057d2c442e)" style="fill: #4682b4; opacity: 0.7"/>
   </g>
   <g id="patch_111">
    <path d="M 334.505455 320.4 
L 336.534545 320.4 
L 336.534545 167.481967 
L 334.505455 167.481967 
z
" clip-path="url(#p057d2c442e)" style="fill: #4682b4; opacity: 0.7"/>
   </g>
   <g id="patch_112">
    <path d="M 336.534545 320.4 
L 338.563636 320.4 
L 338.563636 162.432787 
L 336.534545 162.432787 
z
" clip-path="url(#p057d2c442e)" style="fill: #4682b4; opacity: 0.7"/>
   </g>
   <g id="patch_113">
    <path d="M 338.563636 320.4 
L 340.592727 320.4 
L 340.592727 153.055738 
L 338.563636 153.055738 
z
" clip-path="url(#p057d2c442e)" style="fill: #4682b4; opacity: 0.7"/>
   </g>
   <g id="patch_114">
    <path d="M 340.592727 320.4 
L 342.621818 320.4 
L 342.621818 148.006557 
L 340.592727 148.006557 
z
" clip-path="url(#p057d2c442e)" style="fill: #4682b4; opacity: 0.7"/>
   </g>
   <g id="patch_115">
    <path d="M 342.621818 320.4 
L 344.650909 320.4 
L 344.650909 138.629508 
L 342.621818 138.629508 
z
" clip-path="url(#p057d2c442e)" style="fill: #4682b4; opacity: 0.7"/>
   </g>
   <g id="patch_116">
    <path d="M 344.650909 320.4 
L 346.68 320.4 
L 346.68 132.859016 
L 344.650909 132.859016 
z
" clip-path="url(#p057d2c442e)" style="fill: #4682b4; opacity: 0.7"/>
   </g>
   <g id="patch_117">
    <path d="M 346.68 320.4 
L 348.709091 320.4 
L 348.709091 129.252459 
L 346.68 129.252459 
z
" clip-path="url(#p057d2c442e)" style="fill: #4682b4; opacity: 0.7"/>
   </g>
   <g id="patch_118">
    <path d="M 348.709091 320.4 
L 350.738182 320.4 
L 350.738182 123.481967 
L 348.709091 123.481967 
z
" clip-path="url(#p057d2c442e)" style="fill: #4682b4; opacity: 0.7"/>
   </g>
   <g id="patch_119">
    <path d="M 350.738182 320.4 
L 352.767273 320.4 
L 352.767273 119.87541 
L 350.738182 119.87541 
z
" clip-path="url(#p057d2c442e)" style="fill: #4682b4; opacity: 0.7"/>
   </g>
   <g id="patch_120">
    <path d="M 352.767273 320.4 
L 354.796364 320.4 
L 354.796364 114.82623 
L 352.767273 114.82623 
z
" clip-path="url(#p057d2c442e)" style="fill: #4682b4; opacity: 0.7"/>
   </g>
   <g id="patch_121">
    <path d="M 354.796364 320.4 
L 356.825455 320.4 
L 356.825455 109.055738 
L 354.796364 109.055738 
z
" clip-path="url(#p057d2c442e)" style="fill: #4682b4; opacity: 0.7"/>
   </g>
   <g id="patch_122">
    <path d="M 356.825455 320.4 
L 358.854545 320.4 
L 358.854545 104.727869 
L 356.825455 104.727869 
z
" clip-path="url(#p057d2c442e)" style="fill: #4682b4; opacity: 0.7"/>
   </g>
   <g id="patch_123">
    <path d="M 358.854545 320.4 
L 360.883636 320.4 
L 360.883636 98.236066 
L 358.854545 98.236066 
z
" clip-path="url(#p057d2c442e)" style="fill: #4682b4; opacity: 0.7"/>
   </g>
   <g id="patch_124">
    <path d="M 360.883636 320.4 
L 362.912727 320.4 
L 362.912727 90.301639 
L 360.883636 90.301639 
z
" clip-path="url(#p057d2c442e)" style="fill: #4682b4; opacity: 0.7"/>
   </g>
   <g id="patch_125">
    <path d="M 362.912727 320.4 
L 364.941818 320.4 
L 364.941818 82.367213 
L 362.912727 82.367213 
z
" clip-path="url(#p057d2c442e)" style="fill: #4682b4; opacity: 0.7"/>
   </g>
   <g id="patch_126">
    <path d="M 364.941818 320.4 
L 366.970909 320.4 
L 366.970909 80.92459 
L 364.941818 80.92459 
z
" clip-path="url(#p057d2c442e)" style="fill: #4682b4; opacity: 0.7"/>
   </g>
   <g id="patch_127">
    <path d="M 366.970909 320.4 
L 369 320.4 
L 369 80.92459 
L 366.970909 80.92459 
z
" clip-path="url(#p057d2c442e)" style="fill: #4682b4; opacity: 0.7"/>
   </g>
   <g id="patch_128">
    <path d="M 369 320.4 
L 371.029091 320.4 
L 371.029091 79.481967 
L 369 79.481967 
z
" clip-path="url(#p057d2c442e)" style="fill: #4682b4; opacity: 0.7"/>
   </g>
   <g id="patch_129">
    <path d="M 371.029091 320.4 
L 373.058182 320.4 
L 373.058182 75.154098 
L 371.029091 75.154098 
z
" clip-path="url(#p057d2c442e)" style="fill: #4682b4; opacity: 0.7"/>
   </g>
   <g id="patch_130">
    <path d="M 373.058182 320.4 
L 375.087273 320.4 
L 375.087273 72.990164 
L 373.058182 72.990164 
z
" clip-path="url(#p057d2c442e)" style="fill: #4682b4; opacity: 0.7"/>
   </g>
   <g id="patch_131">
    <path d="M 375.087273 320.4 
L 377.116364 320.4 
L 377.116364 70.104918 
L 375.087273 70.104918 
z
" clip-path="url(#p057d2c442e)" style="fill: #4682b4; opacity: 0.7"/>
   </g>
   <g id="patch_132">
    <path d="M 377.116364 320.4 
L 379.145455 320.4 
L 379.145455 65.777049 
L 377.116364 65.777049 
z
" clip-path="url(#p057d2c442e)" style="fill: #4682b4; opacity: 0.7"/>
   </g>
   <g id="patch_133">
    <path d="M 379.145455 320.4 
L 381.174545 320.4 
L 381.174545 65.055738 
L 379.145455 65.055738 
z
" clip-path="url(#p057d2c442e)" style="fill: #4682b4; opacity: 0.7"/>
   </g>
   <g id="patch_134">
    <path d="M 381.174545 320.4 
L 383.203636 320.4 
L 383.203636 65.055738 
L 381.174545 65.055738 
z
" clip-path="url(#p057d2c442e)" style="fill: #4682b4; opacity: 0.7"/>
   </g>
   <g id="patch_135">
    <path d="M 383.203636 320.4 
L 385.232727 320.4 
L 385.232727 62.891803 
L 383.203636 62.891803 
z
" clip-path="url(#p057d2c442e)" style="fill: #4682b4; opacity: 0.7"/>
   </g>
   <g id="patch_136">
    <path d="M 385.232727 320.4 
L 387.261818 320.4 
L 387.261818 65.055738 
L 385.232727 65.055738 
z
" clip-path="url(#p057d2c442e)" style="fill: #4682b4; opacity: 0.7"/>
   </g>
   <g id="patch_137">
    <path d="M 387.261818 320.4 
L 389.290909 320.4 
L 389.290909 62.170492 
L 387.261818 62.170492 
z
" clip-path="url(#p057d2c442e)" style="fill: #4682b4; opacity: 0.7"/>
   </g>
   <g id="patch_138">
    <path d="M 389.290909 320.4 
L 391.32 320.4 
L 391.32 65.055738 
L 389.290909 65.055738 
z
" clip-path="url(#p057d2c442e)" style="fill: #4682b4; opacity: 0.7"/>
   </g>
   <g id="patch_139">
    <path d="M 391.32 320.4 
L 393.349091 320.4 
L 393.349091 65.777049 
L 391.32 65.777049 
z
" clip-path="url(#p057d2c442e)" style="fill: #4682b4; opacity: 0.7"/>
   </g>
   <g id="patch_140">
    <path d="M 393.349091 320.4 
L 395.378182 320.4 
L 395.378182 61.44918 
L 393.349091 61.44918 
z
" clip-path="url(#p057d2c442e)" style="fill: #4682b4; opacity: 0.7"/>
   </g>
   <g id="patch_141">
    <path d="M 395.378182 320.4 
L 397.407273 320.4 
L 397.407273 59.285246 
L 395.378182 59.285246 
z
" clip-path="url(#p057d2c442e)" style="fill: #4682b4; opacity: 0.7"/>
   </g>
   <g id="patch_142">
    <path d="M 397.407273 320.4 
L 399.436364 320.4 
L 399.436364 57.121311 
L 397.407273 57.121311 
z
" clip-path="url(#p057d2c442e)" style="fill: #4682b4; opacity: 0.7"/>
   </g>
   <g id="patch_143">
    <path d="M 399.436364 320.4 
L 401.465455 320.4 
L 401.465455 57.121311 
L 399.436364 57.121311 
z
" clip-path="url(#p057d2c442e)" style="fill: #4682b4; opacity: 0.7"/>
   </g>
   <g id="patch_144">
    <path d="M 401.465455 320.4 
L 403.494545 320.4 
L 403.494545 60.006557 
L 401.465455 60.006557 
z
" clip-path="url(#p057d2c442e)" style="fill: #4682b4; opacity: 0.7"/>
   </g>
   <g id="patch_145">
    <path d="M 403.494545 320.4 
L 405.523636 320.4 
L 405.523636 58.563934 
L 403.494545 58.563934 
z
" clip-path="url(#p057d2c442e)" style="fill: #4682b4; opacity: 0.7"/>
   </g>
   <g id="patch_146">
    <path d="M 405.523636 320.4 
L 407.552727 320.4 
L 407.552727 57.842623 
L 405.523636 57.842623 
z
" clip-path="url(#p057d2c442e)" style="fill: #4682b4; opacity: 0.7"/>
   </g>
   <g id="patch_147">
    <path d="M 407.552727 320.4 
L 409.581818 320.4 
L 409.581818 60.727869 
L 407.552727 60.727869 
z
" clip-path="url(#p057d2c442e)" style="fill: #4682b4; opacity: 0.7"/>
   </g>
   <g id="patch_148">
    <path d="M 409.581818 320.4 
L 411.610909 320.4 
L 411.610909 58.563934 
L 409.581818 58.563934 
z
" clip-path="url(#p057d2c442e)" style="fill: #4682b4; opacity: 0.7"/>
   </g>
   <g id="patch_149">
    <path d="M 411.610909 320.4 
L 413.64 320.4 
L 413.64 58.563934 
L 411.610909 58.563934 
z
" clip-path="url(#p057d2c442e)" style="fill: #4682b4; opacity: 0.7"/>
   </g>
   <g id="patch_150">
    <path d="M 413.64 320.4 
L 415.669091 320.4 
L 415.669091 60.006557 
L 413.64 60.006557 
z
" clip-path="url(#p057d2c442e)" style="fill: #4682b4; opacity: 0.7"/>
   </g>
   <g id="patch_151">
    <path d="M 415.669091 320.4 
L 417.698182 320.4 
L 417.698182 56.4 
L 415.669091 56.4 
z
" clip-path="url(#p057d2c442e)" style="fill: #4682b4; opacity: 0.7"/>
   </g>
   <g id="patch_152">
    <path d="M 417.698182 320.4 
L 419.727273 320.4 
L 419.727273 61.44918 
L 417.698182 61.44918 
z
" clip-path="url(#p057d2c442e)" style="fill: #4682b4; opacity: 0.7"/>
   </g>
   <g id="patch_153">
    <path d="M 419.727273 320.4 
L 421.756364 320.4 
L 421.756364 63.613115 
L 419.727273 63.613115 
z
" clip-path="url(#p057d2c442e)" style="fill: #4682b4; opacity: 0.7"/>
   </g>
   <g id="patch_154">
    <path d="M 421.756364 320.4 
L 423.785455 320.4 
L 423.785455 64.334426 
L 421.756364 64.334426 
z
" clip-path="url(#p057d2c442e)" style="fill: #4682b4; opacity: 0.7"/>
   </g>
   <g id="patch_155">
    <path d="M 423.785455 320.4 
L 425.814545 320.4 
L 425.814545 66.498361 
L 423.785455 66.498361 
z
" clip-path="url(#p057d2c442e)" style="fill: #4682b4; opacity: 0.7"/>
   </g>
   <g id="patch_156">
    <path d="M 425.814545 320.4 
L 427.843636 320.4 
L 427.843636 66.498361 
L 425.814545 66.498361 
z
" clip-path="url(#p057d2c442e)" style="fill: #4682b4; opacity: 0.7"/>
   </g>
   <g id="patch_157">
    <path d="M 427.843636 320.4 
L 429.872727 320.4 
L 429.872727 71.547541 
L 427.843636 71.547541 
z
" clip-path="url(#p057d2c442e)" style="fill: #4682b4; opacity: 0.7"/>
   </g>
   <g id="patch_158">
    <path d="M 429.872727 320.4 
L 431.901818 320.4 
L 431.901818 72.990164 
L 429.872727 72.990164 
z
" clip-path="url(#p057d2c442e)" style="fill: #4682b4; opacity: 0.7"/>
   </g>
   <g id="patch_159">
    <path d="M 431.901818 320.4 
L 433.930909 320.4 
L 433.930909 76.596721 
L 431.901818 76.596721 
z
" clip-path="url(#p057d2c442e)" style="fill: #4682b4; opacity: 0.7"/>
   </g>
   <g id="patch_160">
    <path d="M 433.930909 320.4 
L 435.96 320.4 
L 435.96 85.97377 
L 433.930909 85.97377 
z
" clip-path="url(#p057d2c442e)" style="fill: #4682b4; opacity: 0.7"/>
   </g>
   <g id="patch_161">
    <path d="M 435.96 320.4 
L 437.989091 320.4 
L 437.989091 90.301639 
L 435.96 90.301639 
z
" clip-path="url(#p057d2c442e)" style="fill: #4682b4; opacity: 0.7"/>
   </g>
   <g id="patch_162">
    <path d="M 437.989091 320.4 
L 440.018182 320.4 
L 440.018182 92.465574 
L 437.989091 92.465574 
z
" clip-path="url(#p057d2c442e)" style="fill: #4682b4; opacity: 0.7"/>
   </g>
   <g id="patch_163">
    <path d="M 440.018182 320.4 
L 442.047273 320.4 
L 442.047273 98.957377 
L 440.018182 98.957377 
z
" clip-path="url(#p057d2c442e)" style="fill: #4682b4; opacity: 0.7"/>
   </g>
   <g id="patch_164">
    <path d="M 442.047273 320.4 
L 444.076364 320.4 
L 444.076364 102.563934 
L 442.047273 102.563934 
z
" clip-path="url(#p057d2c442e)" style="fill: #4682b4; opacity: 0.7"/>
   </g>
   <g id="patch_165">
    <path d="M 444.076364 320.4 
L 446.105455 320.4 
L 446.105455 104.727869 
L 444.076364 104.727869 
z
" clip-path="url(#p057d2c442e)" style="fill: #4682b4; opacity: 0.7"/>
   </g>
   <g id="patch_166">
    <path d="M 446.105455 320.4 
L 448.134545 320.4 
L 448.134545 106.170492 
L 446.105455 106.170492 
z
" clip-path="url(#p057d2c442e)" style="fill: #4682b4; opacity: 0.7"/>
   </g>
   <g id="patch_167">
    <path d="M 448.134545 320.4 
L 450.163636 320.4 
L 450.163636 106.891803 
L 448.134545 106.891803 
z
" clip-path="url(#p057d2c442e)" style="fill: #4682b4; opacity: 0.7"/>
   </g>
   <g id="patch_168">
    <path d="M 450.163636 320.4 
L 452.192727 320.4 
L 452.192727 112.662295 
L 450.163636 112.662295 
z
" clip-path="url(#p057d2c442e)" style="fill: #4682b4; opacity: 0.7"/>
   </g>
   <g id="patch_169">
    <path d="M 452.192727 320.4 
L 454.221818 320.4 
L 454.221818 116.990164 
L 452.192727 116.990164 
z
" clip-path="url(#p057d2c442e)" style="fill: #4682b4; opacity: 0.7"/>
   </g>
   <g id="patch_170">
    <path d="M 454.221818 320.4 
L 456.250909 320.4 
L 456.250909 117.711475 
L 454.221818 117.711475 
z
" clip-path="url(#p057d2c442e)" style="fill: #4682b4; opacity: 0.7"/>
   </g>
   <g id="patch_171">
    <path d="M 456.250909 320.4 
L 458.28 320.4 
L 458.28 128.531148 
L 456.250909 128.531148 
z
" clip-path="url(#p057d2c442e)" style="fill: #4682b4; opacity: 0.7"/>
   </g>
   <g id="patch_172">
    <path d="M 458.28 320.4 
L 460.309091 320.4 
L 460.309091 131.416393 
L 458.28 131.416393 
z
" clip-path="url(#p057d2c442e)" style="fill: #4682b4; opacity: 0.7"/>
   </g>
   <g id="patch_173">
    <path d="M 460.309091 320.4 
L 462.338182 320.4 
L 462.338182 130.695082 
L 460.309091 130.695082 
z
" clip-path="url(#p057d2c442e)" style="fill: #4682b4; opacity: 0.7"/>
   </g>
   <g id="patch_174">
    <path d="M 462.338182 320.4 
L 464.367273 320.4 
L 464.367273 135.022951 
L 462.338182 135.022951 
z
" clip-path="url(#p057d2c442e)" style="fill: #4682b4; opacity: 0.7"/>
   </g>
   <g id="patch_175">
    <path d="M 464.367273 320.4 
L 466.396364 320.4 
L 466.396364 141.514754 
L 464.367273 141.514754 
z
" clip-path="url(#p057d2c442e)" style="fill: #4682b4; opacity: 0.7"/>
   </g>
   <g id="patch_176">
    <path d="M 466.396364 320.4 
L 468.425455 320.4 
L 468.425455 145.121311 
L 466.396364 145.121311 
z
" clip-path="url(#p057d2c442e)" style="fill: #4682b4; opacity: 0.7"/>
   </g>
   <g id="patch_177">
    <path d="M 468.425455 320.4 
L 470.454545 320.4 
L 470.454545 149.44918 
L 468.425455 149.44918 
z
" clip-path="url(#p057d2c442e)" style="fill: #4682b4; opacity: 0.7"/>
   </g>
   <g id="patch_178">
    <path d="M 470.454545 320.4 
L 472.483636 320.4 
L 472.483636 153.777049 
L 470.454545 153.777049 
z
" clip-path="url(#p057d2c442e)" style="fill: #4682b4; opacity: 0.7"/>
   </g>
   <g id="patch_179">
    <path d="M 472.483636 320.4 
L 474.512727 320.4 
L 474.512727 155.940984 
L 472.483636 155.940984 
z
" clip-path="url(#p057d2c442e)" style="fill: #4682b4; opacity: 0.7"/>
   </g>
   <g id="patch_180">
    <path d="M 474.512727 320.4 
L 476.541818 320.4 
L 476.541818 160.268852 
L 474.512727 160.268852 
z
" clip-path="url(#p057d2c442e)" style="fill: #4682b4; opacity: 0.7"/>
   </g>
   <g id="patch_181">
    <path d="M 476.541818 320.4 
L 478.570909 320.4 
L 478.570909 169.645902 
L 476.541818 169.645902 
z
" clip-path="url(#p057d2c442e)" style="fill: #4682b4; opacity: 0.7"/>
   </g>
   <g id="patch_182">
    <path d="M 478.570909 320.4 
L 480.6 320.4 
L 480.6 179.744262 
L 478.570909 179.744262 
z
" clip-path="url(#p057d2c442e)" style="fill: #4682b4; opacity: 0.7"/>
   </g>
   <g id="patch_183">
    <path d="M 480.6 320.4 
L 482.629091 320.4 
L 482.629091 184.793443 
L 480.6 184.793443 
z
" clip-path="url(#p057d2c442e)" style="fill: #4682b4; opacity: 0.7"/>
   </g>
   <g id="patch_184">
    <path d="M 482.629091 320.4 
L 484.658182 320.4 
L 484.658182 187.678689 
L 482.629091 187.678689 
z
" clip-path="url(#p057d2c442e)" style="fill: #4682b4; opacity: 0.7"/>
   </g>
   <g id="patch_185">
    <path d="M 484.658182 320.4 
L 486.687273 320.4 
L 486.687273 192.006557 
L 484.658182 192.006557 
z
" clip-path="url(#p057d2c442e)" style="fill: #4682b4; opacity: 0.7"/>
   </g>
   <g id="patch_186">
    <path d="M 486.687273 320.4 
L 488.716364 320.4 
L 488.716364 197.055738 
L 486.687273 197.055738 
z
" clip-path="url(#p057d2c442e)" style="fill: #4682b4; opacity: 0.7"/>
   </g>
   <g id="patch_187">
    <path d="M 488.716364 320.4 
L 490.745455 320.4 
L 490.745455 200.662295 
L 488.716364 200.662295 
z
" clip-path="url(#p057d2c442e)" style="fill: #4682b4; opacity: 0.7"/>
   </g>
   <g id="patch_188">
    <path d="M 490.745455 320.4 
L 492.774545 320.4 
L 492.774545 211.481967 
L 490.745455 211.481967 
z
" clip-path="url(#p057d2c442e)" style="fill: #4682b4; opacity: 0.7"/>
   </g>
   <g id="patch_189">
    <path d="M 492.774545 320.4 
L 494.803636 320.4 
L 494.803636 216.531148 
L 492.774545 216.531148 
z
" clip-path="url(#p057d2c442e)" style="fill: #4682b4; opacity: 0.7"/>
   </g>
   <g id="patch_190">
    <path d="M 494.803636 320.4 
L 496.832727 320.4 
L 496.832727 217.252459 
L 494.803636 217.252459 
z
" clip-path="url(#p057d2c442e)" style="fill: #4682b4; opacity: 0.7"/>
   </g>
   <g id="patch_191">
    <path d="M 496.832727 320.4 
L 498.861818 320.4 
L 498.861818 221.580328 
L 496.832727 221.580328 
z
" clip-path="url(#p057d2c442e)" style="fill: #4682b4; opacity: 0.7"/>
   </g>
   <g id="patch_192">
    <path d="M 498.861818 320.4 
L 500.890909 320.4 
L 500.890909 226.629508 
L 498.861818 226.629508 
z
" clip-path="url(#p057d2c442e)" style="fill: #4682b4; opacity: 0.7"/>
   </g>
   <g id="patch_193">
    <path d="M 500.890909 320.4 
L 502.92 320.4 
L 502.92 227.35082 
L 500.890909 227.35082 
z
" clip-path="url(#p057d2c442e)" style="fill: #4682b4; opacity: 0.7"/>
   </g>
   <g id="patch_194">
    <path d="M 502.92 320.4 
L 504.949091 320.4 
L 504.949091 233.842623 
L 502.92 233.842623 
z
" clip-path="url(#p057d2c442e)" style="fill: #4682b4; opacity: 0.7"/>
   </g>
   <g id="patch_195">
    <path d="M 504.949091 320.4 
L 506.978182 320.4 
L 506.978182 240.334426 
L 504.949091 240.334426 
z
" clip-path="url(#p057d2c442e)" style="fill: #4682b4; opacity: 0.7"/>
   </g>
   <g id="patch_196">
    <path d="M 506.978182 320.4 
L 509.007273 320.4 
L 509.007273 243.940984 
L 506.978182 243.940984 
z
" clip-path="url(#p057d2c442e)" style="fill: #4682b4; opacity: 0.7"/>
   </g>
   <g id="patch_197">
    <path d="M 509.007273 320.4 
L 511.036364 320.4 
L 511.036364 246.82623 
L 509.007273 246.82623 
z
" clip-path="url(#p057d2c442e)" style="fill: #4682b4; opacity: 0.7"/>
   </g>
   <g id="patch_198">
    <path d="M 511.036364 320.4 
L 513.065455 320.4 
L 513.065455 252.596721 
L 511.036364 252.596721 
z
" clip-path="url(#p057d2c442e)" style="fill: #4682b4; opacity: 0.7"/>
   </g>
   <g id="patch_199">
    <path d="M 513.065455 320.4 
L 515.094545 320.4 
L 515.094545 254.039344 
L 513.065455 254.039344 
z
" clip-path="url(#p057d2c442e)" style="fill: #4682b4; opacity: 0.7"/>
   </g>
   <g id="patch_200">
    <path d="M 515.094545 320.4 
L 517.123636 320.4 
L 517.123636 258.367213 
L 515.094545 258.367213 
z
" clip-path="url(#p057d2c442e)" style="fill: #4682b4; opacity: 0.7"/>
   </g>
   <g id="patch_201">
    <path d="M 517.123636 320.4 
L 519.152727 320.4 
L 519.152727 260.531148 
L 517.123636 260.531148 
z
" clip-path="url(#p057d2c442e)" style="fill: #4682b4; opacity: 0.7"/>
   </g>
   <g id="patch_202">
    <path d="M 519.152727 320.4 
L 521.181818 320.4 
L 521.181818 265.580328 
L 519.152727 265.580328 
z
" clip-path="url(#p057d2c442e)" style="fill: #4682b4; opacity: 0.7"/>
   </g>
   <g id="patch_203">
    <path d="M 521.181818 320.4 
L 523.210909 320.4 
L 523.210909 268.465574 
L 521.181818 268.465574 
z
" clip-path="url(#p057d2c442e)" style="fill: #4682b4; opacity: 0.7"/>
   </g>
   <g id="patch_204">
    <path d="M 523.210909 320.4 
L 525.24 320.4 
L 525.24 273.514754 
L 523.210909 273.514754 
z
" clip-path="url(#p057d2c442e)" style="fill: #4682b4; opacity: 0.7"/>
   </g>
   <g id="patch_205">
    <path d="M 525.24 320.4 
L 527.269091 320.4 
L 527.269091 281.44918 
L 525.24 281.44918 
z
" clip-path="url(#p057d2c442e)" style="fill: #4682b4; opacity: 0.7"/>
   </g>
   <g id="patch_206">
    <path d="M 527.269091 320.4 
L 529.298182 320.4 
L 529.298182 285.055738 
L 527.269091 285.055738 
z
" clip-path="url(#p057d2c442e)" style="fill: #4682b4; opacity: 0.7"/>
   </g>
   <g id="patch_207">
    <path d="M 529.298182 320.4 
L 531.327273 320.4 
L 531.327273 287.219672 
L 529.298182 287.219672 
z
" clip-path="url(#p057d2c442e)" style="fill: #4682b4; opacity: 0.7"/>
   </g>
   <g id="patch_208">
    <path d="M 531.327273 320.4 
L 533.356364 320.4 
L 533.356364 290.104918 
L 531.327273 290.104918 
z
" clip-path="url(#p057d2c442e)" style="fill: #4682b4; opacity: 0.7"/>
   </g>
   <g id="patch_209">
    <path d="M 533.356364 320.4 
L 535.385455 320.4 
L 535.385455 290.104918 
L 533.356364 290.104918 
z
" clip-path="url(#p057d2c442e)" style="fill: #4682b4; opacity: 0.7"/>
   </g>
   <g id="patch_210">
    <path d="M 535.385455 320.4 
L 537.414545 320.4 
L 537.414545 291.547541 
L 535.385455 291.547541 
z
" clip-path="url(#p057d2c442e)" style="fill: #4682b4; opacity: 0.7"/>
   </g>
   <g id="patch_211">
    <path d="M 537.414545 320.4 
L 539.443636 320.4 
L 539.443636 292.990164 
L 537.414545 292.990164 
z
" clip-path="url(#p057d2c442e)" style="fill: #4682b4; opacity: 0.7"/>
   </g>
   <g id="patch_212">
    <path d="M 539.443636 320.4 
L 541.472727 320.4 
L 541.472727 293.711475 
L 539.443636 293.711475 
z
" clip-path="url(#p057d2c442e)" style="fill: #4682b4; opacity: 0.7"/>
   </g>
   <g id="patch_213">
    <path d="M 541.472727 320.4 
L 543.501818 320.4 
L 543.501818 294.432787 
L 541.472727 294.432787 
z
" clip-path="url(#p057d2c442e)" style="fill: #4682b4; opacity: 0.7"/>
   </g>
   <g id="patch_214">
    <path d="M 543.501818 320.4 
L 545.530909 320.4 
L 545.530909 297.318033 
L 543.501818 297.318033 
z
" clip-path="url(#p057d2c442e)" style="fill: #4682b4; opacity: 0.7"/>
   </g>
   <g id="patch_215">
    <path d="M 545.530909 320.4 
L 547.56 320.4 
L 547.56 298.760656 
L 545.530909 298.760656 
z
" clip-path="url(#p057d2c442e)" style="fill: #4682b4; opacity: 0.7"/>
   </g>
   <g id="patch_216">
    <path d="M 547.56 320.4 
L 549.589091 320.4 
L 549.589091 300.92459 
L 547.56 300.92459 
z
" clip-path="url(#p057d2c442e)" style="fill: #4682b4; opacity: 0.7"/>
   </g>
   <g id="patch_217">
    <path d="M 549.589091 320.4 
L 551.618182 320.4 
L 551.618182 305.252459 
L 549.589091 305.252459 
z
" clip-path="url(#p057d2c442e)" style="fill: #4682b4; opacity: 0.7"/>
   </g>
   <g id="patch_218">
    <path d="M 551.618182 320.4 
L 553.647273 320.4 
L 553.647273 305.97377 
L 551.618182 305.97377 
z
" clip-path="url(#p057d2c442e)" style="fill: #4682b4; opacity: 0.7"/>
   </g>
   <g id="patch_219">
    <path d="M 553.647273 320.4 
L 555.676364 320.4 
L 555.676364 308.137705 
L 553.647273 308.137705 
z
" clip-path="url(#p057d2c442e)" style="fill: #4682b4; opacity: 0.7"/>
   </g>
   <g id="patch_220">
    <path d="M 555.676364 320.4 
L 557.705455 320.4 
L 557.705455 311.022951 
L 555.676364 311.022951 
z
" clip-path="url(#p057d2c442e)" style="fill: #4682b4; opacity: 0.7"/>
   </g>
   <g id="patch_221">
    <path d="M 557.705455 320.4 
L 559.734545 320.4 
L 559.734545 312.465574 
L 557.705455 312.465574 
z
" clip-path="url(#p057d2c442e)" style="fill: #4682b4; opacity: 0.7"/>
   </g>
   <g id="patch_222">
    <path d="M 559.734545 320.4 
L 561.763636 320.4 
L 561.763636 315.35082 
L 559.734545 315.35082 
z
" clip-path="url(#p057d2c442e)" style="fill: #4682b4; opacity: 0.7"/>
   </g>
   <g id="patch_223">
    <path d="M 561.763636 320.4 
L 563.792727 320.4 
L 563.792727 316.072131 
L 561.763636 316.072131 
z
" clip-path="url(#p057d2c442e)" style="fill: #4682b4; opacity: 0.7"/>
   </g>
   <g id="patch_224">
    <path d="M 563.792727 320.4 
L 565.821818 320.4 
L 565.821818 316.793443 
L 563.792727 316.793443 
z
" clip-path="url(#p057d2c442e)" style="fill: #4682b4; opacity: 0.7"/>
   </g>
   <g id="patch_225">
    <path d="M 565.821818 320.4 
L 567.850909 320.4 
L 567.850909 316.793443 
L 565.821818 316.793443 
z
" clip-path="url(#p057d2c442e)" style="fill: #4682b4; opacity: 0.7"/>
   </g>
   <g id="patch_226">
    <path d="M 567.850909 320.4 
L 569.88 320.4 
L 569.88 316.793443 
L 567.850909 316.793443 
z
" clip-path="url(#p057d2c442e)" style="fill: #4682b4; opacity: 0.7"/>
   </g>
   <g id="patch_227">
    <path d="M 569.88 320.4 
L 571.909091 320.4 
L 571.909091 318.236066 
L 569.88 318.236066 
z
" clip-path="url(#p057d2c442e)" style="fill: #4682b4; opacity: 0.7"/>
   </g>
   <g id="patch_228">
    <path d="M 571.909091 320.4 
L 573.938182 320.4 
L 573.938182 318.236066 
L 571.909091 318.236066 
z
" clip-path="url(#p057d2c442e)" style="fill: #4682b4; opacity: 0.7"/>
   </g>
   <g id="patch_229">
    <path d="M 573.938182 320.4 
L 575.967273 320.4 
L 575.967273 318.236066 
L 573.938182 318.236066 
z
" clip-path="url(#p057d2c442e)" style="fill: #4682b4; opacity: 0.7"/>
   </g>
   <g id="patch_230">
    <path d="M 575.967273 320.4 
L 577.996364 320.4 
L 577.996364 318.236066 
L 575.967273 318.236066 
z
" clip-path="url(#p057d2c442e)" style="fill: #4682b4; opacity: 0.7"/>
   </g>
   <g id="patch_231">
    <path d="M 577.996364 320.4 
L 580.025455 320.4 
L 580.025455 318.957377 
L 577.996364 318.957377 
z
" clip-path="url(#p057d2c442e)" style="fill: #4682b4; opacity: 0.7"/>
   </g>
   <g id="patch_232">
    <path d="M 580.025455 320.4 
L 582.054545 320.4 
L 582.054545 319.678689 
L 580.025455 319.678689 
z
" clip-path="url(#p057d2c442e)" style="fill: #4682b4; opacity: 0.7"/>
   </g>
   <g id="patch_233">
    <path d="M 582.054545 320.4 
L 584.083636 320.4 
L 584.083636 319.678689 
L 582.054545 319.678689 
z
" clip-path="url(#p057d2c442e)" style="fill: #4682b4; opacity: 0.7"/>
   </g>
   <g id="patch_234">
    <path d="M 584.083636 320.4 
L 586.112727 320.4 
L 586.112727 319.678689 
L 584.083636 319.678689 
z
" clip-path="url(#p057d2c442e)" style="fill: #4682b4; opacity: 0.7"/>
   </g>
   <g id="patch_235">
    <path d="M 586.112727 320.4 
L 588.141818 320.4 
L 588.141818 320.4 
L 586.112727 320.4 
z
" clip-path="url(#p057d2c442e)" style="fill: #4682b4; opacity: 0.7"/>
   </g>
   <g id="patch_236">
    <path d="M 588.141818 320.4 
L 590.170909 320.4 
L 590.170909 320.4 
L 588.141818 320.4 
z
" clip-path="url(#p057d2c442e)" style="fill: #4682b4; opacity: 0.7"/>
   </g>
   <g id="patch_237">
    <path d="M 590.170909 320.4 
L 592.2 320.4 
L 592.2 320.4 
L 590.170909 320.4 
z
" clip-path="url(#p057d2c442e)" style="fill: #4682b4; opacity: 0.7"/>
   </g>
   <g id="patch_238">
    <path d="M 592.2 320.4 
L 594.229091 320.4 
L 594.229091 320.4 
L 592.2 320.4 
z
" clip-path="url(#p057d2c442e)" style="fill: #4682b4; opacity: 0.7"/>
   </g>
   <g id="patch_239">
    <path d="M 594.229091 320.4 
L 596.258182 320.4 
L 596.258182 320.4 
L 594.229091 320.4 
z
" clip-path="url(#p057d2c442e)" style="fill: #4682b4; opacity: 0.7"/>
   </g>
   <g id="patch_240">
    <path d="M 596.258182 320.4 
L 598.287273 320.4 
L 598.287273 320.4 
L 596.258182 320.4 
z
" clip-path="url(#p057d2c442e)" style="fill: #4682b4; opacity: 0.7"/>
   </g>
   <g id="patch_241">
    <path d="M 598.287273 320.4 
L 600.316364 320.4 
L 600.316364 320.4 
L 598.287273 320.4 
z
" clip-path="url(#p057d2c442e)" style="fill: #4682b4; opacity: 0.7"/>
   </g>
   <g id="patch_242">
    <path d="M 600.316364 320.4 
L 602.345455 320.4 
L 602.345455 320.4 
L 600.316364 320.4 
z
" clip-path="url(#p057d2c442e)" style="fill: #4682b4; opacity: 0.7"/>
   </g>
   <g id="patch_243">
    <path d="M 602.345455 320.4 
L 604.374545 320.4 
L 604.374545 320.4 
L 602.345455 320.4 
z
" clip-path="url(#p057d2c442e)" style="fill: #4682b4; opacity: 0.7"/>
   </g>
   <g id="patch_244">
    <path d="M 604.374545 320.4 
L 606.403636 320.4 
L 606.403636 320.4 
L 604.374545 320.4 
z
" clip-path="url(#p057d2c442e)" style="fill: #4682b4; opacity: 0.7"/>
   </g>
   <g id="patch_245">
    <path d="M 606.403636 320.4 
L 608.432727 320.4 
L 608.432727 320.4 
L 606.403636 320.4 
z
" clip-path="url(#p057d2c442e)" style="fill: #4682b4; opacity: 0.7"/>
   </g>
   <g id="patch_246">
    <path d="M 608.432727 320.4 
L 610.461818 320.4 
L 610.461818 320.4 
L 608.432727 320.4 
z
" clip-path="url(#p057d2c442e)" style="fill: #4682b4; opacity: 0.7"/>
   </g>
   <g id="patch_247">
    <path d="M 610.461818 320.4 
L 612.490909 320.4 
L 612.490909 320.4 
L 610.461818 320.4 
z
" clip-path="url(#p057d2c442e)" style="fill: #4682b4; opacity: 0.7"/>
   </g>
   <g id="patch_248">
    <path d="M 612.490909 320.4 
L 614.52 320.4 
L 614.52 320.4 
L 612.490909 320.4 
z
" clip-path="url(#p057d2c442e)" style="fill: #4682b4; opacity: 0.7"/>
   </g>
   <g id="patch_249">
    <path d="M 614.52 320.4 
L 616.549091 320.4 
L 616.549091 320.4 
L 614.52 320.4 
z
" clip-path="url(#p057d2c442e)" style="fill: #4682b4; opacity: 0.7"/>
   </g>
   <g id="patch_250">
    <path d="M 616.549091 320.4 
L 618.578182 320.4 
L 618.578182 320.4 
L 616.549091 320.4 
z
" clip-path="url(#p057d2c442e)" style="fill: #4682b4; opacity: 0.7"/>
   </g>
   <g id="patch_251">
    <path d="M 618.578182 320.4 
L 620.607273 320.4 
L 620.607273 320.4 
L 618.578182 320.4 
z
" clip-path="url(#p057d2c442e)" style="fill: #4682b4; opacity: 0.7"/>
   </g>
   <g id="patch_252">
    <path d="M 620.607273 320.4 
L 622.636364 320.4 
L 622.636364 320.4 
L 620.607273 320.4 
z
" clip-path="url(#p057d2c442e)" style="fill: #4682b4; opacity: 0.7"/>
   </g>
   <g id="matplotlib.axis_1">
    <g id="xtick_1">
     <g id="line2d_1">
      <path d="M 115.363636 320.4 
L 115.363636 43.2 
" clip-path="url(#p057d2c442e)" style="fill: none; stroke: #b0b0b0; stroke-width: 0.8; stroke-linecap: square"/>
     </g>
     <g id="line2d_2">
      <defs>
       <path id="meb7668747d" d="M 0 0 
L 0 3.5 
" style="stroke: #000000; stroke-width: 0.8"/>
      </defs>
      <g>
       <use xlink:href="#meb7668747d" x="115.363636" y="320.4" style="stroke: #000000; stroke-width: 0.8"/>
      </g>
     </g>
     <g id="text_1">
      <!-- 0.0 -->
      <g transform="translate(107.412074 334.998438) scale(0.1 -0.1)">
       <defs>
        <path id="DejaVuSans-30" d="M 2034 4250 
Q 1547 4250 1301 3770 
Q 1056 3291 1056 2328 
Q 1056 1369 1301 889 
Q 1547 409 2034 409 
Q 2525 409 2770 889 
Q 3016 1369 3016 2328 
Q 3016 3291 2770 3770 
Q 2525 4250 2034 4250 
z
M 2034 4750 
Q 2819 4750 3233 4129 
Q 3647 3509 3647 2328 
Q 3647 1150 3233 529 
Q 2819 -91 2034 -91 
Q 1250 -91 836 529 
Q 422 1150 422 2328 
Q 422 3509 836 4129 
Q 1250 4750 2034 4750 
z
" transform="scale(0.015625)"/>
        <path id="DejaVuSans-2e" d="M 684 794 
L 1344 794 
L 1344 0 
L 684 0 
L 684 794 
z
" transform="scale(0.015625)"/>
       </defs>
       <use xlink:href="#DejaVuSans-30"/>
       <use xlink:href="#DejaVuSans-2e" transform="translate(63.623047 0)"/>
       <use xlink:href="#DejaVuSans-30" transform="translate(95.410156 0)"/>
      </g>
     </g>
    </g>
    <g id="xtick_2">
     <g id="line2d_3">
      <path d="M 216.818182 320.4 
L 216.818182 43.2 
" clip-path="url(#p057d2c442e)" style="fill: none; stroke: #b0b0b0; stroke-width: 0.8; stroke-linecap: square"/>
     </g>
     <g id="line2d_4">
      <g>
       <use xlink:href="#meb7668747d" x="216.818182" y="320.4" style="stroke: #000000; stroke-width: 0.8"/>
      </g>
     </g>
     <g id="text_2">
      <!-- 0.2 -->
      <g transform="translate(208.866619 334.998438) scale(0.1 -0.1)">
       <defs>
        <path id="DejaVuSans-32" d="M 1228 531 
L 3431 531 
L 3431 0 
L 469 0 
L 469 531 
Q 828 903 1448 1529 
Q 2069 2156 2228 2338 
Q 2531 2678 2651 2914 
Q 2772 3150 2772 3378 
Q 2772 3750 2511 3984 
Q 2250 4219 1831 4219 
Q 1534 4219 1204 4116 
Q 875 4013 500 3803 
L 500 4441 
Q 881 4594 1212 4672 
Q 1544 4750 1819 4750 
Q 2544 4750 2975 4387 
Q 3406 4025 3406 3419 
Q 3406 3131 3298 2873 
Q 3191 2616 2906 2266 
Q 2828 2175 2409 1742 
Q 1991 1309 1228 531 
z
" transform="scale(0.015625)"/>
       </defs>
       <use xlink:href="#DejaVuSans-30"/>
       <use xlink:href="#DejaVuSans-2e" transform="translate(63.623047 0)"/>
       <use xlink:href="#DejaVuSans-32" transform="translate(95.410156 0)"/>
      </g>
     </g>
    </g>
    <g id="xtick_3">
     <g id="line2d_5">
      <path d="M 318.272727 320.4 
L 318.272727 43.2 
" clip-path="url(#p057d2c442e)" style="fill: none; stroke: #b0b0b0; stroke-width: 0.8; stroke-linecap: square"/>
     </g>
     <g id="line2d_6">
      <g>
       <use xlink:href="#meb7668747d" x="318.272727" y="320.4" style="stroke: #000000; stroke-width: 0.8"/>
      </g>
     </g>
     <g id="text_3">
      <!-- 0.4 -->
      <g transform="translate(310.321165 334.998438) scale(0.1 -0.1)">
       <defs>
        <path id="DejaVuSans-34" d="M 2419 4116 
L 825 1625 
L 2419 1625 
L 2419 4116 
z
M 2253 4666 
L 3047 4666 
L 3047 1625 
L 3713 1625 
L 3713 1100 
L 3047 1100 
L 3047 0 
L 2419 0 
L 2419 1100 
L 313 1100 
L 313 1709 
L 2253 4666 
z
" transform="scale(0.015625)"/>
       </defs>
       <use xlink:href="#DejaVuSans-30"/>
       <use xlink:href="#DejaVuSans-2e" transform="translate(63.623047 0)"/>
       <use xlink:href="#DejaVuSans-34" transform="translate(95.410156 0)"/>
      </g>
     </g>
    </g>
    <g id="xtick_4">
     <g id="line2d_7">
      <path d="M 419.727273 320.4 
L 419.727273 43.2 
" clip-path="url(#p057d2c442e)" style="fill: none; stroke: #b0b0b0; stroke-width: 0.8; stroke-linecap: square"/>
     </g>
     <g id="line2d_8">
      <g>
       <use xlink:href="#meb7668747d" x="419.727273" y="320.4" style="stroke: #000000; stroke-width: 0.8"/>
      </g>
     </g>
     <g id="text_4">
      <!-- 0.6 -->
      <g transform="translate(411.77571 334.998438) scale(0.1 -0.1)">
       <defs>
        <path id="DejaVuSans-36" d="M 2113 2584 
Q 1688 2584 1439 2293 
Q 1191 2003 1191 1497 
Q 1191 994 1439 701 
Q 1688 409 2113 409 
Q 2538 409 2786 701 
Q 3034 994 3034 1497 
Q 3034 2003 2786 2293 
Q 2538 2584 2113 2584 
z
M 3366 4563 
L 3366 3988 
Q 3128 4100 2886 4159 
Q 2644 4219 2406 4219 
Q 1781 4219 1451 3797 
Q 1122 3375 1075 2522 
Q 1259 2794 1537 2939 
Q 1816 3084 2150 3084 
Q 2853 3084 3261 2657 
Q 3669 2231 3669 1497 
Q 3669 778 3244 343 
Q 2819 -91 2113 -91 
Q 1303 -91 875 529 
Q 447 1150 447 2328 
Q 447 3434 972 4092 
Q 1497 4750 2381 4750 
Q 2619 4750 2861 4703 
Q 3103 4656 3366 4563 
z
" transform="scale(0.015625)"/>
       </defs>
       <use xlink:href="#DejaVuSans-30"/>
       <use xlink:href="#DejaVuSans-2e" transform="translate(63.623047 0)"/>
       <use xlink:href="#DejaVuSans-36" transform="translate(95.410156 0)"/>
      </g>
     </g>
    </g>
    <g id="xtick_5">
     <g id="line2d_9">
      <path d="M 521.181818 320.4 
L 521.181818 43.2 
" clip-path="url(#p057d2c442e)" style="fill: none; stroke: #b0b0b0; stroke-width: 0.8; stroke-linecap: square"/>
     </g>
     <g id="line2d_10">
      <g>
       <use xlink:href="#meb7668747d" x="521.181818" y="320.4" style="stroke: #000000; stroke-width: 0.8"/>
      </g>
     </g>
     <g id="text_5">
      <!-- 0.8 -->
      <g transform="translate(513.230256 334.998438) scale(0.1 -0.1)">
       <defs>
        <path id="DejaVuSans-38" d="M 2034 2216 
Q 1584 2216 1326 1975 
Q 1069 1734 1069 1313 
Q 1069 891 1326 650 
Q 1584 409 2034 409 
Q 2484 409 2743 651 
Q 3003 894 3003 1313 
Q 3003 1734 2745 1975 
Q 2488 2216 2034 2216 
z
M 1403 2484 
Q 997 2584 770 2862 
Q 544 3141 544 3541 
Q 544 4100 942 4425 
Q 1341 4750 2034 4750 
Q 2731 4750 3128 4425 
Q 3525 4100 3525 3541 
Q 3525 3141 3298 2862 
Q 3072 2584 2669 2484 
Q 3125 2378 3379 2068 
Q 3634 1759 3634 1313 
Q 3634 634 3220 271 
Q 2806 -91 2034 -91 
Q 1263 -91 848 271 
Q 434 634 434 1313 
Q 434 1759 690 2068 
Q 947 2378 1403 2484 
z
M 1172 3481 
Q 1172 3119 1398 2916 
Q 1625 2713 2034 2713 
Q 2441 2713 2670 2916 
Q 2900 3119 2900 3481 
Q 2900 3844 2670 4047 
Q 2441 4250 2034 4250 
Q 1625 4250 1398 4047 
Q 1172 3844 1172 3481 
z
" transform="scale(0.015625)"/>
       </defs>
       <use xlink:href="#DejaVuSans-30"/>
       <use xlink:href="#DejaVuSans-2e" transform="translate(63.623047 0)"/>
       <use xlink:href="#DejaVuSans-38" transform="translate(95.410156 0)"/>
      </g>
     </g>
    </g>
    <g id="xtick_6">
     <g id="line2d_11">
      <path d="M 622.636364 320.4 
L 622.636364 43.2 
" clip-path="url(#p057d2c442e)" style="fill: none; stroke: #b0b0b0; stroke-width: 0.8; stroke-linecap: square"/>
     </g>
     <g id="line2d_12">
      <g>
       <use xlink:href="#meb7668747d" x="622.636364" y="320.4" style="stroke: #000000; stroke-width: 0.8"/>
      </g>
     </g>
     <g id="text_6">
      <!-- 1.0 -->
      <g transform="translate(614.684801 334.998438) scale(0.1 -0.1)">
       <defs>
        <path id="DejaVuSans-31" d="M 794 531 
L 1825 531 
L 1825 4091 
L 703 3866 
L 703 4441 
L 1819 4666 
L 2450 4666 
L 2450 531 
L 3481 531 
L 3481 0 
L 794 0 
L 794 531 
z
" transform="scale(0.015625)"/>
       </defs>
       <use xlink:href="#DejaVuSans-31"/>
       <use xlink:href="#DejaVuSans-2e" transform="translate(63.623047 0)"/>
       <use xlink:href="#DejaVuSans-30" transform="translate(95.410156 0)"/>
      </g>
     </g>
    </g>
    <g id="text_7">
     <!-- Fraccin del intervalo [V/(E+K), V/E] -->
     <g transform="translate(278.744531 348.676562) scale(0.1 -0.1)">
      <defs>
       <path id="DejaVuSans-46" d="M 628 4666 
L 3309 4666 
L 3309 4134 
L 1259 4134 
L 1259 2759 
L 3109 2759 
L 3109 2228 
L 1259 2228 
L 1259 0 
L 628 0 
L 628 4666 
z
" transform="scale(0.015625)"/>
       <path id="DejaVuSans-72" d="M 2631 2963 
Q 2534 3019 2420 3045 
Q 2306 3072 2169 3072 
Q 1681 3072 1420 2755 
Q 1159 2438 1159 1844 
L 1159 0 
L 581 0 
L 581 3500 
L 1159 3500 
L 1159 2956 
Q 1341 3275 1631 3429 
Q 1922 3584 2338 3584 
Q 2397 3584 2469 3576 
Q 2541 3569 2628 3553 
L 2631 2963 
z
" transform="scale(0.015625)"/>
       <path id="DejaVuSans-61" d="M 2194 1759 
Q 1497 1759 1228 1600 
Q 959 1441 959 1056 
Q 959 750 1161 570 
Q 1363 391 1709 391 
Q 2188 391 2477 730 
Q 2766 1069 2766 1631 
L 2766 1759 
L 2194 1759 
z
M 3341 1997 
L 3341 0 
L 2766 0 
L 2766 531 
Q 2569 213 2275 61 
Q 1981 -91 1556 -91 
Q 1019 -91 701 211 
Q 384 513 384 1019 
Q 384 1609 779 1909 
Q 1175 2209 1959 2209 
L 2766 2209 
L 2766 2266 
Q 2766 2663 2505 2880 
Q 2244 3097 1772 3097 
Q 1472 3097 1187 3025 
Q 903 2953 641 2809 
L 641 3341 
Q 956 3463 1253 3523 
Q 1550 3584 1831 3584 
Q 2591 3584 2966 3190 
Q 3341 2797 3341 1997 
z
" transform="scale(0.015625)"/>
       <path id="DejaVuSans-63" d="M 3122 3366 
L 3122 2828 
Q 2878 2963 2633 3030 
Q 2388 3097 2138 3097 
Q 1578 3097 1268 2742 
Q 959 2388 959 1747 
Q 959 1106 1268 751 
Q 1578 397 2138 397 
Q 2388 397 2633 464 
Q 2878 531 3122 666 
L 3122 134 
Q 2881 22 2623 -34 
Q 2366 -91 2075 -91 
Q 1284 -91 818 406 
Q 353 903 353 1747 
Q 353 2603 823 3093 
Q 1294 3584 2113 3584 
Q 2378 3584 2631 3529 
Q 2884 3475 3122 3366 
z
" transform="scale(0.015625)"/>
       <path id="DejaVuSans-69" d="M 603 3500 
L 1178 3500 
L 1178 0 
L 603 0 
L 603 3500 
z
M 603 4863 
L 1178 4863 
L 1178 4134 
L 603 4134 
L 603 4863 
z
" transform="scale(0.015625)"/>
       <path id="DejaVuSans-f3" d="M 1959 3097 
Q 1497 3097 1228 2736 
Q 959 2375 959 1747 
Q 959 1119 1226 758 
Q 1494 397 1959 397 
Q 2419 397 2687 759 
Q 2956 1122 2956 1747 
Q 2956 2369 2687 2733 
Q 2419 3097 1959 3097 
z
M 1959 3584 
Q 2709 3584 3137 3096 
Q 3566 2609 3566 1747 
Q 3566 888 3137 398 
Q 2709 -91 1959 -91 
Q 1206 -91 779 398 
Q 353 888 353 1747 
Q 353 2609 779 3096 
Q 1206 3584 1959 3584 
z
M 2394 5119 
L 3016 5119 
L 1998 3944 
L 1519 3944 
L 2394 5119 
z
" transform="scale(0.015625)"/>
       <path id="DejaVuSans-6e" d="M 3513 2113 
L 3513 0 
L 2938 0 
L 2938 2094 
Q 2938 2591 2744 2837 
Q 2550 3084 2163 3084 
Q 1697 3084 1428 2787 
Q 1159 2491 1159 1978 
L 1159 0 
L 581 0 
L 581 3500 
L 1159 3500 
L 1159 2956 
Q 1366 3272 1645 3428 
Q 1925 3584 2291 3584 
Q 2894 3584 3203 3211 
Q 3513 2838 3513 2113 
z
" transform="scale(0.015625)"/>
       <path id="DejaVuSans-20" transform="scale(0.015625)"/>
       <path id="DejaVuSans-64" d="M 2906 2969 
L 2906 4863 
L 3481 4863 
L 3481 0 
L 2906 0 
L 2906 525 
Q 2725 213 2448 61 
Q 2172 -91 1784 -91 
Q 1150 -91 751 415 
Q 353 922 353 1747 
Q 353 2572 751 3078 
Q 1150 3584 1784 3584 
Q 2172 3584 2448 3432 
Q 2725 3281 2906 2969 
z
M 947 1747 
Q 947 1113 1208 752 
Q 1469 391 1925 391 
Q 2381 391 2643 752 
Q 2906 1113 2906 1747 
Q 2906 2381 2643 2742 
Q 2381 3103 1925 3103 
Q 1469 3103 1208 2742 
Q 947 2381 947 1747 
z
" transform="scale(0.015625)"/>
       <path id="DejaVuSans-65" d="M 3597 1894 
L 3597 1613 
L 953 1613 
Q 991 1019 1311 708 
Q 1631 397 2203 397 
Q 2534 397 2845 478 
Q 3156 559 3463 722 
L 3463 178 
Q 3153 47 2828 -22 
Q 2503 -91 2169 -91 
Q 1331 -91 842 396 
Q 353 884 353 1716 
Q 353 2575 817 3079 
Q 1281 3584 2069 3584 
Q 2775 3584 3186 3129 
Q 3597 2675 3597 1894 
z
M 3022 2063 
Q 3016 2534 2758 2815 
Q 2500 3097 2075 3097 
Q 1594 3097 1305 2825 
Q 1016 2553 972 2059 
L 3022 2063 
z
" transform="scale(0.015625)"/>
       <path id="DejaVuSans-6c" d="M 603 4863 
L 1178 4863 
L 1178 0 
L 603 0 
L 603 4863 
z
" transform="scale(0.015625)"/>
       <path id="DejaVuSans-74" d="M 1172 4494 
L 1172 3500 
L 2356 3500 
L 2356 3053 
L 1172 3053 
L 1172 1153 
Q 1172 725 1289 603 
Q 1406 481 1766 481 
L 2356 481 
L 2356 0 
L 1766 0 
Q 1100 0 847 248 
Q 594 497 594 1153 
L 594 3053 
L 172 3053 
L 172 3500 
L 594 3500 
L 594 4494 
L 1172 4494 
z
" transform="scale(0.015625)"/>
       <path id="DejaVuSans-76" d="M 191 3500 
L 800 3500 
L 1894 563 
L 2988 3500 
L 3597 3500 
L 2284 0 
L 1503 0 
L 191 3500 
z
" transform="scale(0.015625)"/>
       <path id="DejaVuSans-6f" d="M 1959 3097 
Q 1497 3097 1228 2736 
Q 959 2375 959 1747 
Q 959 1119 1226 758 
Q 1494 397 1959 397 
Q 2419 397 2687 759 
Q 2956 1122 2956 1747 
Q 2956 2369 2687 2733 
Q 2419 3097 1959 3097 
z
M 1959 3584 
Q 2709 3584 3137 3096 
Q 3566 2609 3566 1747 
Q 3566 888 3137 398 
Q 2709 -91 1959 -91 
Q 1206 -91 779 398 
Q 353 888 353 1747 
Q 353 2609 779 3096 
Q 1206 3584 1959 3584 
z
" transform="scale(0.015625)"/>
       <path id="DejaVuSans-5b" d="M 550 4863 
L 1875 4863 
L 1875 4416 
L 1125 4416 
L 1125 -397 
L 1875 -397 
L 1875 -844 
L 550 -844 
L 550 4863 
z
" transform="scale(0.015625)"/>
       <path id="DejaVuSans-56" d="M 1831 0 
L 50 4666 
L 709 4666 
L 2188 738 
L 3669 4666 
L 4325 4666 
L 2547 0 
L 1831 0 
z
" transform="scale(0.015625)"/>
       <path id="DejaVuSans-2f" d="M 1625 4666 
L 2156 4666 
L 531 -594 
L 0 -594 
L 1625 4666 
z
" transform="scale(0.015625)"/>
       <path id="DejaVuSans-28" d="M 1984 4856 
Q 1566 4138 1362 3434 
Q 1159 2731 1159 2009 
Q 1159 1288 1364 580 
Q 1569 -128 1984 -844 
L 1484 -844 
Q 1016 -109 783 600 
Q 550 1309 550 2009 
Q 550 2706 781 3412 
Q 1013 4119 1484 4856 
L 1984 4856 
z
" transform="scale(0.015625)"/>
       <path id="DejaVuSans-45" d="M 628 4666 
L 3578 4666 
L 3578 4134 
L 1259 4134 
L 1259 2753 
L 3481 2753 
L 3481 2222 
L 1259 2222 
L 1259 531 
L 3634 531 
L 3634 0 
L 628 0 
L 628 4666 
z
" transform="scale(0.015625)"/>
       <path id="DejaVuSans-2b" d="M 2944 4013 
L 2944 2272 
L 4684 2272 
L 4684 1741 
L 2944 1741 
L 2944 0 
L 2419 0 
L 2419 1741 
L 678 1741 
L 678 2272 
L 2419 2272 
L 2419 4013 
L 2944 4013 
z
" transform="scale(0.015625)"/>
       <path id="DejaVuSans-4b" d="M 628 4666 
L 1259 4666 
L 1259 2694 
L 3353 4666 
L 4166 4666 
L 1850 2491 
L 4331 0 
L 3500 0 
L 1259 2247 
L 1259 0 
L 628 0 
L 628 4666 
z
" transform="scale(0.015625)"/>
       <path id="DejaVuSans-29" d="M 513 4856 
L 1013 4856 
Q 1481 4119 1714 3412 
Q 1947 2706 1947 2009 
Q 1947 1309 1714 600 
Q 1481 -109 1013 -844 
L 513 -844 
Q 928 -128 1133 580 
Q 1338 1288 1338 2009 
Q 1338 2731 1133 3434 
Q 928 4138 513 4856 
z
" transform="scale(0.015625)"/>
       <path id="DejaVuSans-2c" d="M 750 794 
L 1409 794 
L 1409 256 
L 897 -744 
L 494 -744 
L 750 256 
L 750 794 
z
" transform="scale(0.015625)"/>
       <path id="DejaVuSans-5d" d="M 1947 4863 
L 1947 -844 
L 622 -844 
L 622 -397 
L 1369 -397 
L 1369 4416 
L 622 4416 
L 622 4863 
L 1947 4863 
z
" transform="scale(0.015625)"/>
      </defs>
      <use xlink:href="#DejaVuSans-46"/>
      <use xlink:href="#DejaVuSans-72" transform="translate(50.269531 0)"/>
      <use xlink:href="#DejaVuSans-61" transform="translate(91.382812 0)"/>
      <use xlink:href="#DejaVuSans-63" transform="translate(152.662109 0)"/>
      <use xlink:href="#DejaVuSans-63" transform="translate(207.642578 0)"/>
      <use xlink:href="#DejaVuSans-69" transform="translate(262.623047 0)"/>
      <use xlink:href="#DejaVuSans-f3" transform="translate(290.40625 0)"/>
      <use xlink:href="#DejaVuSans-6e" transform="translate(351.587891 0)"/>
      <use xlink:href="#DejaVuSans-20" transform="translate(414.966797 0)"/>
      <use xlink:href="#DejaVuSans-64" transform="translate(446.753906 0)"/>
      <use xlink:href="#DejaVuSans-65" transform="translate(510.230469 0)"/>
      <use xlink:href="#DejaVuSans-6c" transform="translate(571.753906 0)"/>
      <use xlink:href="#DejaVuSans-20" transform="translate(599.537109 0)"/>
      <use xlink:href="#DejaVuSans-69" transform="translate(631.324219 0)"/>
      <use xlink:href="#DejaVuSans-6e" transform="translate(659.107422 0)"/>
      <use xlink:href="#DejaVuSans-74" transform="translate(722.486328 0)"/>
      <use xlink:href="#DejaVuSans-65" transform="translate(761.695312 0)"/>
      <use xlink:href="#DejaVuSans-72" transform="translate(823.21875 0)"/>
      <use xlink:href="#DejaVuSans-76" transform="translate(864.332031 0)"/>
      <use xlink:href="#DejaVuSans-61" transform="translate(923.511719 0)"/>
      <use xlink:href="#DejaVuSans-6c" transform="translate(984.791016 0)"/>
      <use xlink:href="#DejaVuSans-6f" transform="translate(1012.574219 0)"/>
      <use xlink:href="#DejaVuSans-20" transform="translate(1073.755859 0)"/>
      <use xlink:href="#DejaVuSans-5b" transform="translate(1105.542969 0)"/>
      <use xlink:href="#DejaVuSans-56" transform="translate(1144.556641 0)"/>
      <use xlink:href="#DejaVuSans-2f" transform="translate(1212.964844 0)"/>
      <use xlink:href="#DejaVuSans-28" transform="translate(1246.65625 0)"/>
      <use xlink:href="#DejaVuSans-45" transform="translate(1285.669922 0)"/>
      <use xlink:href="#DejaVuSans-2b" transform="translate(1348.853516 0)"/>
      <use xlink:href="#DejaVuSans-4b" transform="translate(1432.642578 0)"/>
      <use xlink:href="#DejaVuSans-29" transform="translate(1498.21875 0)"/>
      <use xlink:href="#DejaVuSans-2c" transform="translate(1537.232422 0)"/>
      <use xlink:href="#DejaVuSans-20" transform="translate(1569.019531 0)"/>
      <use xlink:href="#DejaVuSans-56" transform="translate(1600.806641 0)"/>
      <use xlink:href="#DejaVuSans-2f" transform="translate(1669.214844 0)"/>
      <use xlink:href="#DejaVuSans-45" transform="translate(1702.90625 0)"/>
      <use xlink:href="#DejaVuSans-5d" transform="translate(1766.089844 0)"/>
     </g>
    </g>
   </g>
   <g id="matplotlib.axis_2">
    <g id="ytick_1">
     <g id="line2d_13">
      <path d="M 90 320.4 
L 648 320.4 
" clip-path="url(#p057d2c442e)" style="fill: none; stroke: #b0b0b0; stroke-width: 0.8; stroke-linecap: square"/>
     </g>
     <g id="line2d_14">
      <defs>
       <path id="m755553bf10" d="M 0 0 
L -3.5 0 
" style="stroke: #000000; stroke-width: 0.8"/>
      </defs>
      <g>
       <use xlink:href="#m755553bf10" x="90" y="320.4" style="stroke: #000000; stroke-width: 0.8"/>
      </g>
     </g>
     <g id="text_8">
      <!-- 0 -->
      <g transform="translate(76.6375 324.199219) scale(0.1 -0.1)">
       <use xlink:href="#DejaVuSans-30"/>
      </g>
     </g>
    </g>
    <g id="ytick_2">
     <g id="line2d_15">
      <path d="M 90 284.334426 
L 648 284.334426 
" clip-path="url(#p057d2c442e)" style="fill: none; stroke: #b0b0b0; stroke-width: 0.8; stroke-linecap: square"/>
     </g>
     <g id="line2d_16">
      <g>
       <use xlink:href="#m755553bf10" x="90" y="284.334426" style="stroke: #000000; stroke-width: 0.8"/>
      </g>
     </g>
     <g id="text_9">
      <!-- 50 -->
      <g transform="translate(70.275 288.133645) scale(0.1 -0.1)">
       <defs>
        <path id="DejaVuSans-35" d="M 691 4666 
L 3169 4666 
L 3169 4134 
L 1269 4134 
L 1269 2991 
Q 1406 3038 1543 3061 
Q 1681 3084 1819 3084 
Q 2600 3084 3056 2656 
Q 3513 2228 3513 1497 
Q 3513 744 3044 326 
Q 2575 -91 1722 -91 
Q 1428 -91 1123 -41 
Q 819 9 494 109 
L 494 744 
Q 775 591 1075 516 
Q 1375 441 1709 441 
Q 2250 441 2565 725 
Q 2881 1009 2881 1497 
Q 2881 1984 2565 2268 
Q 2250 2553 1709 2553 
Q 1456 2553 1204 2497 
Q 953 2441 691 2322 
L 691 4666 
z
" transform="scale(0.015625)"/>
       </defs>
       <use xlink:href="#DejaVuSans-35"/>
       <use xlink:href="#DejaVuSans-30" transform="translate(63.623047 0)"/>
      </g>
     </g>
    </g>
    <g id="ytick_3">
     <g id="line2d_17">
      <path d="M 90 248.268852 
L 648 248.268852 
" clip-path="url(#p057d2c442e)" style="fill: none; stroke: #b0b0b0; stroke-width: 0.8; stroke-linecap: square"/>
     </g>
     <g id="line2d_18">
      <g>
       <use xlink:href="#m755553bf10" x="90" y="248.268852" style="stroke: #000000; stroke-width: 0.8"/>
      </g>
     </g>
     <g id="text_10">
      <!-- 100 -->
      <g transform="translate(63.9125 252.068071) scale(0.1 -0.1)">
       <use xlink:href="#DejaVuSans-31"/>
       <use xlink:href="#DejaVuSans-30" transform="translate(63.623047 0)"/>
       <use xlink:href="#DejaVuSans-30" transform="translate(127.246094 0)"/>
      </g>
     </g>
    </g>
    <g id="ytick_4">
     <g id="line2d_19">
      <path d="M 90 212.203279 
L 648 212.203279 
" clip-path="url(#p057d2c442e)" style="fill: none; stroke: #b0b0b0; stroke-width: 0.8; stroke-linecap: square"/>
     </g>
     <g id="line2d_20">
      <g>
       <use xlink:href="#m755553bf10" x="90" y="212.203279" style="stroke: #000000; stroke-width: 0.8"/>
      </g>
     </g>
     <g id="text_11">
      <!-- 150 -->
      <g transform="translate(63.9125 216.002497) scale(0.1 -0.1)">
       <use xlink:href="#DejaVuSans-31"/>
       <use xlink:href="#DejaVuSans-35" transform="translate(63.623047 0)"/>
       <use xlink:href="#DejaVuSans-30" transform="translate(127.246094 0)"/>
      </g>
     </g>
    </g>
    <g id="ytick_5">
     <g id="line2d_21">
      <path d="M 90 176.137705 
L 648 176.137705 
" clip-path="url(#p057d2c442e)" style="fill: none; stroke: #b0b0b0; stroke-width: 0.8; stroke-linecap: square"/>
     </g>
     <g id="line2d_22">
      <g>
       <use xlink:href="#m755553bf10" x="90" y="176.137705" style="stroke: #000000; stroke-width: 0.8"/>
      </g>
     </g>
     <g id="text_12">
      <!-- 200 -->
      <g transform="translate(63.9125 179.936924) scale(0.1 -0.1)">
       <use xlink:href="#DejaVuSans-32"/>
       <use xlink:href="#DejaVuSans-30" transform="translate(63.623047 0)"/>
       <use xlink:href="#DejaVuSans-30" transform="translate(127.246094 0)"/>
      </g>
     </g>
    </g>
    <g id="ytick_6">
     <g id="line2d_23">
      <path d="M 90 140.072131 
L 648 140.072131 
" clip-path="url(#p057d2c442e)" style="fill: none; stroke: #b0b0b0; stroke-width: 0.8; stroke-linecap: square"/>
     </g>
     <g id="line2d_24">
      <g>
       <use xlink:href="#m755553bf10" x="90" y="140.072131" style="stroke: #000000; stroke-width: 0.8"/>
      </g>
     </g>
     <g id="text_13">
      <!-- 250 -->
      <g transform="translate(63.9125 143.87135) scale(0.1 -0.1)">
       <use xlink:href="#DejaVuSans-32"/>
       <use xlink:href="#DejaVuSans-35" transform="translate(63.623047 0)"/>
       <use xlink:href="#DejaVuSans-30" transform="translate(127.246094 0)"/>
      </g>
     </g>
    </g>
    <g id="ytick_7">
     <g id="line2d_25">
      <path d="M 90 104.006557 
L 648 104.006557 
" clip-path="url(#p057d2c442e)" style="fill: none; stroke: #b0b0b0; stroke-width: 0.8; stroke-linecap: square"/>
     </g>
     <g id="line2d_26">
      <g>
       <use xlink:href="#m755553bf10" x="90" y="104.006557" style="stroke: #000000; stroke-width: 0.8"/>
      </g>
     </g>
     <g id="text_14">
      <!-- 300 -->
      <g transform="translate(63.9125 107.805776) scale(0.1 -0.1)">
       <defs>
        <path id="DejaVuSans-33" d="M 2597 2516 
Q 3050 2419 3304 2112 
Q 3559 1806 3559 1356 
Q 3559 666 3084 287 
Q 2609 -91 1734 -91 
Q 1441 -91 1130 -33 
Q 819 25 488 141 
L 488 750 
Q 750 597 1062 519 
Q 1375 441 1716 441 
Q 2309 441 2620 675 
Q 2931 909 2931 1356 
Q 2931 1769 2642 2001 
Q 2353 2234 1838 2234 
L 1294 2234 
L 1294 2753 
L 1863 2753 
Q 2328 2753 2575 2939 
Q 2822 3125 2822 3475 
Q 2822 3834 2567 4026 
Q 2313 4219 1838 4219 
Q 1578 4219 1281 4162 
Q 984 4106 628 3988 
L 628 4550 
Q 988 4650 1302 4700 
Q 1616 4750 1894 4750 
Q 2613 4750 3031 4423 
Q 3450 4097 3450 3541 
Q 3450 3153 3228 2886 
Q 3006 2619 2597 2516 
z
" transform="scale(0.015625)"/>
       </defs>
       <use xlink:href="#DejaVuSans-33"/>
       <use xlink:href="#DejaVuSans-30" transform="translate(63.623047 0)"/>
       <use xlink:href="#DejaVuSans-30" transform="translate(127.246094 0)"/>
      </g>
     </g>
    </g>
    <g id="ytick_8">
     <g id="line2d_27">
      <path d="M 90 67.940984 
L 648 67.940984 
" clip-path="url(#p057d2c442e)" style="fill: none; stroke: #b0b0b0; stroke-width: 0.8; stroke-linecap: square"/>
     </g>
     <g id="line2d_28">
      <g>
       <use xlink:href="#m755553bf10" x="90" y="67.940984" style="stroke: #000000; stroke-width: 0.8"/>
      </g>
     </g>
     <g id="text_15">
      <!-- 350 -->
      <g transform="translate(63.9125 71.740202) scale(0.1 -0.1)">
       <use xlink:href="#DejaVuSans-33"/>
       <use xlink:href="#DejaVuSans-35" transform="translate(63.623047 0)"/>
       <use xlink:href="#DejaVuSans-30" transform="translate(127.246094 0)"/>
      </g>
     </g>
    </g>
    <g id="text_16">
     <!-- Frecuencia acumulada -->
     <g transform="translate(57.832812 238) rotate(-90) scale(0.1 -0.1)">
      <defs>
       <path id="DejaVuSans-75" d="M 544 1381 
L 544 3500 
L 1119 3500 
L 1119 1403 
Q 1119 906 1312 657 
Q 1506 409 1894 409 
Q 2359 409 2629 706 
Q 2900 1003 2900 1516 
L 2900 3500 
L 3475 3500 
L 3475 0 
L 2900 0 
L 2900 538 
Q 2691 219 2414 64 
Q 2138 -91 1772 -91 
Q 1169 -91 856 284 
Q 544 659 544 1381 
z
M 1991 3584 
L 1991 3584 
z
" transform="scale(0.015625)"/>
       <path id="DejaVuSans-6d" d="M 3328 2828 
Q 3544 3216 3844 3400 
Q 4144 3584 4550 3584 
Q 5097 3584 5394 3201 
Q 5691 2819 5691 2113 
L 5691 0 
L 5113 0 
L 5113 2094 
Q 5113 2597 4934 2840 
Q 4756 3084 4391 3084 
Q 3944 3084 3684 2787 
Q 3425 2491 3425 1978 
L 3425 0 
L 2847 0 
L 2847 2094 
Q 2847 2600 2669 2842 
Q 2491 3084 2119 3084 
Q 1678 3084 1418 2786 
Q 1159 2488 1159 1978 
L 1159 0 
L 581 0 
L 581 3500 
L 1159 3500 
L 1159 2956 
Q 1356 3278 1631 3431 
Q 1906 3584 2284 3584 
Q 2666 3584 2933 3390 
Q 3200 3197 3328 2828 
z
" transform="scale(0.015625)"/>
      </defs>
      <use xlink:href="#DejaVuSans-46"/>
      <use xlink:href="#DejaVuSans-72" transform="translate(50.269531 0)"/>
      <use xlink:href="#DejaVuSans-65" transform="translate(89.132812 0)"/>
      <use xlink:href="#DejaVuSans-63" transform="translate(150.65625 0)"/>
      <use xlink:href="#DejaVuSans-75" transform="translate(205.636719 0)"/>
      <use xlink:href="#DejaVuSans-65" transform="translate(269.015625 0)"/>
      <use xlink:href="#DejaVuSans-6e" transform="translate(330.539062 0)"/>
      <use xlink:href="#DejaVuSans-63" transform="translate(393.917969 0)"/>
      <use xlink:href="#DejaVuSans-69" transform="translate(448.898438 0)"/>
      <use xlink:href="#DejaVuSans-61" transform="translate(476.681641 0)"/>
      <use xlink:href="#DejaVuSans-20" transform="translate(537.960938 0)"/>
      <use xlink:href="#DejaVuSans-61" transform="translate(569.748047 0)"/>
      <use xlink:href="#DejaVuSans-63" transform="translate(631.027344 0)"/>
      <use xlink:href="#DejaVuSans-75" transform="translate(686.007812 0)"/>
      <use xlink:href="#DejaVuSans-6d" transform="translate(749.386719 0)"/>
      <use xlink:href="#DejaVuSans-75" transform="translate(846.798828 0)"/>
      <use xlink:href="#DejaVuSans-6c" transform="translate(910.177734 0)"/>
      <use xlink:href="#DejaVuSans-61" transform="translate(937.960938 0)"/>
      <use xlink:href="#DejaVuSans-64" transform="translate(999.240234 0)"/>
      <use xlink:href="#DejaVuSans-61" transform="translate(1062.716797 0)"/>
     </g>
    </g>
   </g>
   <g id="patch_253">
    <path d="M 90 320.4 
L 90 43.2 
" style="fill: none; stroke: #000000; stroke-width: 0.8; stroke-linejoin: miter; stroke-linecap: square"/>
   </g>
   <g id="patch_254">
    <path d="M 648 320.4 
L 648 43.2 
" style="fill: none; stroke: #000000; stroke-width: 0.8; stroke-linejoin: miter; stroke-linecap: square"/>
   </g>
   <g id="patch_255">
    <path d="M 90 320.4 
L 648 320.4 
" style="fill: none; stroke: #000000; stroke-width: 0.8; stroke-linejoin: miter; stroke-linecap: square"/>
   </g>
   <g id="patch_256">
    <path d="M 90 43.2 
L 648 43.2 
" style="fill: none; stroke: #000000; stroke-width: 0.8; stroke-linejoin: miter; stroke-linecap: square"/>
   </g>
   <g id="text_17">
    <!-- Densidad acomulada precios de reparto exacto -->
    <g transform="translate(226.906875 37.2) scale(0.12 -0.12)">
     <defs>
      <path id="DejaVuSans-44" d="M 1259 4147 
L 1259 519 
L 2022 519 
Q 2988 519 3436 956 
Q 3884 1394 3884 2338 
Q 3884 3275 3436 3711 
Q 2988 4147 2022 4147 
L 1259 4147 
z
M 628 4666 
L 1925 4666 
Q 3281 4666 3915 4102 
Q 4550 3538 4550 2338 
Q 4550 1131 3912 565 
Q 3275 0 1925 0 
L 628 0 
L 628 4666 
z
" transform="scale(0.015625)"/>
      <path id="DejaVuSans-73" d="M 2834 3397 
L 2834 2853 
Q 2591 2978 2328 3040 
Q 2066 3103 1784 3103 
Q 1356 3103 1142 2972 
Q 928 2841 928 2578 
Q 928 2378 1081 2264 
Q 1234 2150 1697 2047 
L 1894 2003 
Q 2506 1872 2764 1633 
Q 3022 1394 3022 966 
Q 3022 478 2636 193 
Q 2250 -91 1575 -91 
Q 1294 -91 989 -36 
Q 684 19 347 128 
L 347 722 
Q 666 556 975 473 
Q 1284 391 1588 391 
Q 1994 391 2212 530 
Q 2431 669 2431 922 
Q 2431 1156 2273 1281 
Q 2116 1406 1581 1522 
L 1381 1569 
Q 847 1681 609 1914 
Q 372 2147 372 2553 
Q 372 3047 722 3315 
Q 1072 3584 1716 3584 
Q 2034 3584 2315 3537 
Q 2597 3491 2834 3397 
z
" transform="scale(0.015625)"/>
      <path id="DejaVuSans-70" d="M 1159 525 
L 1159 -1331 
L 581 -1331 
L 581 3500 
L 1159 3500 
L 1159 2969 
Q 1341 3281 1617 3432 
Q 1894 3584 2278 3584 
Q 2916 3584 3314 3078 
Q 3713 2572 3713 1747 
Q 3713 922 3314 415 
Q 2916 -91 2278 -91 
Q 1894 -91 1617 61 
Q 1341 213 1159 525 
z
M 3116 1747 
Q 3116 2381 2855 2742 
Q 2594 3103 2138 3103 
Q 1681 3103 1420 2742 
Q 1159 2381 1159 1747 
Q 1159 1113 1420 752 
Q 1681 391 2138 391 
Q 2594 391 2855 752 
Q 3116 1113 3116 1747 
z
" transform="scale(0.015625)"/>
      <path id="DejaVuSans-78" d="M 3513 3500 
L 2247 1797 
L 3578 0 
L 2900 0 
L 1881 1375 
L 863 0 
L 184 0 
L 1544 1831 
L 300 3500 
L 978 3500 
L 1906 2253 
L 2834 3500 
L 3513 3500 
z
" transform="scale(0.015625)"/>
     </defs>
     <use xlink:href="#DejaVuSans-44"/>
     <use xlink:href="#DejaVuSans-65" transform="translate(77.001953 0)"/>
     <use xlink:href="#DejaVuSans-6e" transform="translate(138.525391 0)"/>
     <use xlink:href="#DejaVuSans-73" transform="translate(201.904297 0)"/>
     <use xlink:href="#DejaVuSans-69" transform="translate(254.003906 0)"/>
     <use xlink:href="#DejaVuSans-64" transform="translate(281.787109 0)"/>
     <use xlink:href="#DejaVuSans-61" transform="translate(345.263672 0)"/>
     <use xlink:href="#DejaVuSans-64" transform="translate(406.542969 0)"/>
     <use xlink:href="#DejaVuSans-20" transform="translate(470.019531 0)"/>
     <use xlink:href="#DejaVuSans-61" transform="translate(501.806641 0)"/>
     <use xlink:href="#DejaVuSans-63" transform="translate(563.085938 0)"/>
     <use xlink:href="#DejaVuSans-6f" transform="translate(618.066406 0)"/>
     <use xlink:href="#DejaVuSans-6d" transform="translate(679.248047 0)"/>
     <use xlink:href="#DejaVuSans-75" transform="translate(776.660156 0)"/>
     <use xlink:href="#DejaVuSans-6c" transform="translate(840.039062 0)"/>
     <use xlink:href="#DejaVuSans-61" transform="translate(867.822266 0)"/>
     <use xlink:href="#DejaVuSans-64" transform="translate(929.101562 0)"/>
     <use xlink:href="#DejaVuSans-61" transform="translate(992.578125 0)"/>
     <use xlink:href="#DejaVuSans-20" transform="translate(1053.857422 0)"/>
     <use xlink:href="#DejaVuSans-70" transform="translate(1085.644531 0)"/>
     <use xlink:href="#DejaVuSans-72" transform="translate(1149.121094 0)"/>
     <use xlink:href="#DejaVuSans-65" transform="translate(1187.984375 0)"/>
     <use xlink:href="#DejaVuSans-63" transform="translate(1249.507812 0)"/>
     <use xlink:href="#DejaVuSans-69" transform="translate(1304.488281 0)"/>
     <use xlink:href="#DejaVuSans-6f" transform="translate(1332.271484 0)"/>
     <use xlink:href="#DejaVuSans-73" transform="translate(1393.453125 0)"/>
     <use xlink:href="#DejaVuSans-20" transform="translate(1445.552734 0)"/>
     <use xlink:href="#DejaVuSans-64" transform="translate(1477.339844 0)"/>
     <use xlink:href="#DejaVuSans-65" transform="translate(1540.816406 0)"/>
     <use xlink:href="#DejaVuSans-20" transform="translate(1602.339844 0)"/>
     <use xlink:href="#DejaVuSans-72" transform="translate(1634.126953 0)"/>
     <use xlink:href="#DejaVuSans-65" transform="translate(1672.990234 0)"/>
     <use xlink:href="#DejaVuSans-70" transform="translate(1734.513672 0)"/>
     <use xlink:href="#DejaVuSans-61" transform="translate(1797.990234 0)"/>
     <use xlink:href="#DejaVuSans-72" transform="translate(1859.269531 0)"/>
     <use xlink:href="#DejaVuSans-74" transform="translate(1900.382812 0)"/>
     <use xlink:href="#DejaVuSans-6f" transform="translate(1939.591797 0)"/>
     <use xlink:href="#DejaVuSans-20" transform="translate(2000.773438 0)"/>
     <use xlink:href="#DejaVuSans-65" transform="translate(2032.560547 0)"/>
     <use xlink:href="#DejaVuSans-78" transform="translate(2092.333984 0)"/>
     <use xlink:href="#DejaVuSans-61" transform="translate(2151.513672 0)"/>
     <use xlink:href="#DejaVuSans-63" transform="translate(2212.792969 0)"/>
     <use xlink:href="#DejaVuSans-74" transform="translate(2267.773438 0)"/>
     <use xlink:href="#DejaVuSans-6f" transform="translate(2306.982422 0)"/>
    </g>
   </g>
  </g>
 </g>
 <defs>
  <clipPath id="p057d2c442e">
   <rect x="90" y="43.2" width="558" height="277.2"/>
  </clipPath>
 </defs>
</svg>
