<?xml version="1.0" encoding="utf-8" standalone="no"?>
<!DOCTYPE svg PUBLIC "-//W3C//DTD SVG 1.1//EN"
  "http://www.w3.org/Graphics/SVG/1.1/DTD/svg11.dtd">
<svg xmlns:xlink="http://www.w3.org/1999/xlink" width="720pt" height="360pt" viewBox="0 0 720 360" xmlns="http://www.w3.org/2000/svg" version="1.1">
 <metadata>
  <rdf:RDF xmlns:dc="http://purl.org/dc/elements/1.1/" xmlns:cc="http://creativecommons.org/ns#" xmlns:rdf="http://www.w3.org/1999/02/22-rdf-syntax-ns#">
   <cc:Work>
    <dc:type rdf:resource="http://purl.org/dc/dcmitype/StillImage"/>
    <dc:date>2025-05-16T15:27:04.040603</dc:date>
    <dc:format>image/svg+xml</dc:format>
    <dc:creator>
     <cc:Agent>
      <dc:title>Matplotlib v3.10.1, https://matplotlib.org/</dc:title>
     </cc:Agent>
    </dc:creator>
   </cc:Work>
  </rdf:RDF>
 </metadata>
 <defs>
  <style type="text/css">*{stroke-linejoin: round; stroke-linecap: butt}</style>
 </defs>
 <g id="figure_1">
  <g id="patch_1">
   <path d="M 0 360 
L 720 360 
L 720 0 
L 0 0 
z
" style="fill: #ffffff"/>
  </g>
  <g id="axes_1">
   <g id="patch_2">
    <path d="M 90 320.4 
L 648 320.4 
L 648 43.2 
L 90 43.2 
z
" style="fill: #ffffff"/>
   </g>
   <g id="patch_3">
    <path d="M 115.363636 320.4 
L 117.392727 320.4 
L 117.392727 320.4 
L 115.363636 320.4 
z
" clip-path="url(#p616e1bd1b9)" style="fill: #4682b4; opacity: 0.7"/>
   </g>
   <g id="patch_4">
    <path d="M 117.392727 320.4 
L 119.421818 320.4 
L 119.421818 320.4 
L 117.392727 320.4 
z
" clip-path="url(#p616e1bd1b9)" style="fill: #4682b4; opacity: 0.7"/>
   </g>
   <g id="patch_5">
    <path d="M 119.421818 320.4 
L 121.450909 320.4 
L 121.450909 320.4 
L 119.421818 320.4 
z
" clip-path="url(#p616e1bd1b9)" style="fill: #4682b4; opacity: 0.7"/>
   </g>
   <g id="patch_6">
    <path d="M 121.450909 320.4 
L 123.48 320.4 
L 123.48 319.696 
L 121.450909 319.696 
z
" clip-path="url(#p616e1bd1b9)" style="fill: #4682b4; opacity: 0.7"/>
   </g>
   <g id="patch_7">
    <path d="M 123.48 320.4 
L 125.509091 320.4 
L 125.509091 316.88 
L 123.48 316.88 
z
" clip-path="url(#p616e1bd1b9)" style="fill: #4682b4; opacity: 0.7"/>
   </g>
   <g id="patch_8">
    <path d="M 125.509091 320.4 
L 127.538182 320.4 
L 127.538182 316.88 
L 125.509091 316.88 
z
" clip-path="url(#p616e1bd1b9)" style="fill: #4682b4; opacity: 0.7"/>
   </g>
   <g id="patch_9">
    <path d="M 127.538182 320.4 
L 129.567273 320.4 
L 129.567273 316.88 
L 127.538182 316.88 
z
" clip-path="url(#p616e1bd1b9)" style="fill: #4682b4; opacity: 0.7"/>
   </g>
   <g id="patch_10">
    <path d="M 129.567273 320.4 
L 131.596364 320.4 
L 131.596364 312.656 
L 129.567273 312.656 
z
" clip-path="url(#p616e1bd1b9)" style="fill: #4682b4; opacity: 0.7"/>
   </g>
   <g id="patch_11">
    <path d="M 131.596364 320.4 
L 133.625455 320.4 
L 133.625455 310.544 
L 131.596364 310.544 
z
" clip-path="url(#p616e1bd1b9)" style="fill: #4682b4; opacity: 0.7"/>
   </g>
   <g id="patch_12">
    <path d="M 133.625455 320.4 
L 135.654545 320.4 
L 135.654545 304.208 
L 133.625455 304.208 
z
" clip-path="url(#p616e1bd1b9)" style="fill: #4682b4; opacity: 0.7"/>
   </g>
   <g id="patch_13">
    <path d="M 135.654545 320.4 
L 137.683636 320.4 
L 137.683636 299.984 
L 135.654545 299.984 
z
" clip-path="url(#p616e1bd1b9)" style="fill: #4682b4; opacity: 0.7"/>
   </g>
   <g id="patch_14">
    <path d="M 137.683636 320.4 
L 139.712727 320.4 
L 139.712727 291.536 
L 137.683636 291.536 
z
" clip-path="url(#p616e1bd1b9)" style="fill: #4682b4; opacity: 0.7"/>
   </g>
   <g id="patch_15">
    <path d="M 139.712727 320.4 
L 141.741818 320.4 
L 141.741818 285.2 
L 139.712727 285.2 
z
" clip-path="url(#p616e1bd1b9)" style="fill: #4682b4; opacity: 0.7"/>
   </g>
   <g id="patch_16">
    <path d="M 141.741818 320.4 
L 143.770909 320.4 
L 143.770909 276.752 
L 141.741818 276.752 
z
" clip-path="url(#p616e1bd1b9)" style="fill: #4682b4; opacity: 0.7"/>
   </g>
   <g id="patch_17">
    <path d="M 143.770909 320.4 
L 145.8 320.4 
L 145.8 272.528 
L 143.770909 272.528 
z
" clip-path="url(#p616e1bd1b9)" style="fill: #4682b4; opacity: 0.7"/>
   </g>
   <g id="patch_18">
    <path d="M 145.8 320.4 
L 147.829091 320.4 
L 147.829091 264.08 
L 145.8 264.08 
z
" clip-path="url(#p616e1bd1b9)" style="fill: #4682b4; opacity: 0.7"/>
   </g>
   <g id="patch_19">
    <path d="M 147.829091 320.4 
L 149.858182 320.4 
L 149.858182 257.744 
L 147.829091 257.744 
z
" clip-path="url(#p616e1bd1b9)" style="fill: #4682b4; opacity: 0.7"/>
   </g>
   <g id="patch_20">
    <path d="M 149.858182 320.4 
L 151.887273 320.4 
L 151.887273 248.592 
L 149.858182 248.592 
z
" clip-path="url(#p616e1bd1b9)" style="fill: #4682b4; opacity: 0.7"/>
   </g>
   <g id="patch_21">
    <path d="M 151.887273 320.4 
L 153.916364 320.4 
L 153.916364 238.736 
L 151.887273 238.736 
z
" clip-path="url(#p616e1bd1b9)" style="fill: #4682b4; opacity: 0.7"/>
   </g>
   <g id="patch_22">
    <path d="M 153.916364 320.4 
L 155.945455 320.4 
L 155.945455 232.4 
L 153.916364 232.4 
z
" clip-path="url(#p616e1bd1b9)" style="fill: #4682b4; opacity: 0.7"/>
   </g>
   <g id="patch_23">
    <path d="M 155.945455 320.4 
L 157.974545 320.4 
L 157.974545 226.768 
L 155.945455 226.768 
z
" clip-path="url(#p616e1bd1b9)" style="fill: #4682b4; opacity: 0.7"/>
   </g>
   <g id="patch_24">
    <path d="M 157.974545 320.4 
L 160.003636 320.4 
L 160.003636 219.728 
L 157.974545 219.728 
z
" clip-path="url(#p616e1bd1b9)" style="fill: #4682b4; opacity: 0.7"/>
   </g>
   <g id="patch_25">
    <path d="M 160.003636 320.4 
L 162.032727 320.4 
L 162.032727 213.392 
L 160.003636 213.392 
z
" clip-path="url(#p616e1bd1b9)" style="fill: #4682b4; opacity: 0.7"/>
   </g>
   <g id="patch_26">
    <path d="M 162.032727 320.4 
L 164.061818 320.4 
L 164.061818 204.944 
L 162.032727 204.944 
z
" clip-path="url(#p616e1bd1b9)" style="fill: #4682b4; opacity: 0.7"/>
   </g>
   <g id="patch_27">
    <path d="M 164.061818 320.4 
L 166.090909 320.4 
L 166.090909 195.088 
L 164.061818 195.088 
z
" clip-path="url(#p616e1bd1b9)" style="fill: #4682b4; opacity: 0.7"/>
   </g>
   <g id="patch_28">
    <path d="M 166.090909 320.4 
L 168.12 320.4 
L 168.12 190.864 
L 166.090909 190.864 
z
" clip-path="url(#p616e1bd1b9)" style="fill: #4682b4; opacity: 0.7"/>
   </g>
   <g id="patch_29">
    <path d="M 168.12 320.4 
L 170.149091 320.4 
L 170.149091 182.416 
L 168.12 182.416 
z
" clip-path="url(#p616e1bd1b9)" style="fill: #4682b4; opacity: 0.7"/>
   </g>
   <g id="patch_30">
    <path d="M 170.149091 320.4 
L 172.178182 320.4 
L 172.178182 174.672 
L 170.149091 174.672 
z
" clip-path="url(#p616e1bd1b9)" style="fill: #4682b4; opacity: 0.7"/>
   </g>
   <g id="patch_31">
    <path d="M 172.178182 320.4 
L 174.207273 320.4 
L 174.207273 169.744 
L 172.178182 169.744 
z
" clip-path="url(#p616e1bd1b9)" style="fill: #4682b4; opacity: 0.7"/>
   </g>
   <g id="patch_32">
    <path d="M 174.207273 320.4 
L 176.236364 320.4 
L 176.236364 162 
L 174.207273 162 
z
" clip-path="url(#p616e1bd1b9)" style="fill: #4682b4; opacity: 0.7"/>
   </g>
   <g id="patch_33">
    <path d="M 176.236364 320.4 
L 178.265455 320.4 
L 178.265455 153.552 
L 176.236364 153.552 
z
" clip-path="url(#p616e1bd1b9)" style="fill: #4682b4; opacity: 0.7"/>
   </g>
   <g id="patch_34">
    <path d="M 178.265455 320.4 
L 180.294545 320.4 
L 180.294545 140.88 
L 178.265455 140.88 
z
" clip-path="url(#p616e1bd1b9)" style="fill: #4682b4; opacity: 0.7"/>
   </g>
   <g id="patch_35">
    <path d="M 180.294545 320.4 
L 182.323636 320.4 
L 182.323636 133.84 
L 180.294545 133.84 
z
" clip-path="url(#p616e1bd1b9)" style="fill: #4682b4; opacity: 0.7"/>
   </g>
   <g id="patch_36">
    <path d="M 182.323636 320.4 
L 184.352727 320.4 
L 184.352727 121.168 
L 182.323636 121.168 
z
" clip-path="url(#p616e1bd1b9)" style="fill: #4682b4; opacity: 0.7"/>
   </g>
   <g id="patch_37">
    <path d="M 184.352727 320.4 
L 186.381818 320.4 
L 186.381818 112.016 
L 184.352727 112.016 
z
" clip-path="url(#p616e1bd1b9)" style="fill: #4682b4; opacity: 0.7"/>
   </g>
   <g id="patch_38">
    <path d="M 186.381818 320.4 
L 188.410909 320.4 
L 188.410909 105.68 
L 186.381818 105.68 
z
" clip-path="url(#p616e1bd1b9)" style="fill: #4682b4; opacity: 0.7"/>
   </g>
   <g id="patch_39">
    <path d="M 188.410909 320.4 
L 190.44 320.4 
L 190.44 102.16 
L 188.410909 102.16 
z
" clip-path="url(#p616e1bd1b9)" style="fill: #4682b4; opacity: 0.7"/>
   </g>
   <g id="patch_40">
    <path d="M 190.44 320.4 
L 192.469091 320.4 
L 192.469091 92.304 
L 190.44 92.304 
z
" clip-path="url(#p616e1bd1b9)" style="fill: #4682b4; opacity: 0.7"/>
   </g>
   <g id="patch_41">
    <path d="M 192.469091 320.4 
L 194.498182 320.4 
L 194.498182 88.784 
L 192.469091 88.784 
z
" clip-path="url(#p616e1bd1b9)" style="fill: #4682b4; opacity: 0.7"/>
   </g>
   <g id="patch_42">
    <path d="M 194.498182 320.4 
L 196.527273 320.4 
L 196.527273 79.632 
L 194.498182 79.632 
z
" clip-path="url(#p616e1bd1b9)" style="fill: #4682b4; opacity: 0.7"/>
   </g>
   <g id="patch_43">
    <path d="M 196.527273 320.4 
L 198.556364 320.4 
L 198.556364 80.336 
L 196.527273 80.336 
z
" clip-path="url(#p616e1bd1b9)" style="fill: #4682b4; opacity: 0.7"/>
   </g>
   <g id="patch_44">
    <path d="M 198.556364 320.4 
L 200.585455 320.4 
L 200.585455 74 
L 198.556364 74 
z
" clip-path="url(#p616e1bd1b9)" style="fill: #4682b4; opacity: 0.7"/>
   </g>
   <g id="patch_45">
    <path d="M 200.585455 320.4 
L 202.614545 320.4 
L 202.614545 69.776 
L 200.585455 69.776 
z
" clip-path="url(#p616e1bd1b9)" style="fill: #4682b4; opacity: 0.7"/>
   </g>
   <g id="patch_46">
    <path d="M 202.614545 320.4 
L 204.643636 320.4 
L 204.643636 68.368 
L 202.614545 68.368 
z
" clip-path="url(#p616e1bd1b9)" style="fill: #4682b4; opacity: 0.7"/>
   </g>
   <g id="patch_47">
    <path d="M 204.643636 320.4 
L 206.672727 320.4 
L 206.672727 62.736 
L 204.643636 62.736 
z
" clip-path="url(#p616e1bd1b9)" style="fill: #4682b4; opacity: 0.7"/>
   </g>
   <g id="patch_48">
    <path d="M 206.672727 320.4 
L 208.701818 320.4 
L 208.701818 60.624 
L 206.672727 60.624 
z
" clip-path="url(#p616e1bd1b9)" style="fill: #4682b4; opacity: 0.7"/>
   </g>
   <g id="patch_49">
    <path d="M 208.701818 320.4 
L 210.730909 320.4 
L 210.730909 59.92 
L 208.701818 59.92 
z
" clip-path="url(#p616e1bd1b9)" style="fill: #4682b4; opacity: 0.7"/>
   </g>
   <g id="patch_50">
    <path d="M 210.730909 320.4 
L 212.76 320.4 
L 212.76 56.4 
L 210.730909 56.4 
z
" clip-path="url(#p616e1bd1b9)" style="fill: #4682b4; opacity: 0.7"/>
   </g>
   <g id="patch_51">
    <path d="M 212.76 320.4 
L 214.789091 320.4 
L 214.789091 56.4 
L 212.76 56.4 
z
" clip-path="url(#p616e1bd1b9)" style="fill: #4682b4; opacity: 0.7"/>
   </g>
   <g id="patch_52">
    <path d="M 214.789091 320.4 
L 216.818182 320.4 
L 216.818182 61.328 
L 214.789091 61.328 
z
" clip-path="url(#p616e1bd1b9)" style="fill: #4682b4; opacity: 0.7"/>
   </g>
   <g id="patch_53">
    <path d="M 216.818182 320.4 
L 218.847273 320.4 
L 218.847273 63.44 
L 216.818182 63.44 
z
" clip-path="url(#p616e1bd1b9)" style="fill: #4682b4; opacity: 0.7"/>
   </g>
   <g id="patch_54">
    <path d="M 218.847273 320.4 
L 220.876364 320.4 
L 220.876364 64.848 
L 218.847273 64.848 
z
" clip-path="url(#p616e1bd1b9)" style="fill: #4682b4; opacity: 0.7"/>
   </g>
   <g id="patch_55">
    <path d="M 220.876364 320.4 
L 222.905455 320.4 
L 222.905455 57.808 
L 220.876364 57.808 
z
" clip-path="url(#p616e1bd1b9)" style="fill: #4682b4; opacity: 0.7"/>
   </g>
   <g id="patch_56">
    <path d="M 222.905455 320.4 
L 224.934545 320.4 
L 224.934545 59.216 
L 222.905455 59.216 
z
" clip-path="url(#p616e1bd1b9)" style="fill: #4682b4; opacity: 0.7"/>
   </g>
   <g id="patch_57">
    <path d="M 224.934545 320.4 
L 226.963636 320.4 
L 226.963636 65.552 
L 224.934545 65.552 
z
" clip-path="url(#p616e1bd1b9)" style="fill: #4682b4; opacity: 0.7"/>
   </g>
   <g id="patch_58">
    <path d="M 226.963636 320.4 
L 228.992727 320.4 
L 228.992727 73.296 
L 226.963636 73.296 
z
" clip-path="url(#p616e1bd1b9)" style="fill: #4682b4; opacity: 0.7"/>
   </g>
   <g id="patch_59">
    <path d="M 228.992727 320.4 
L 231.021818 320.4 
L 231.021818 78.928 
L 228.992727 78.928 
z
" clip-path="url(#p616e1bd1b9)" style="fill: #4682b4; opacity: 0.7"/>
   </g>
   <g id="patch_60">
    <path d="M 231.021818 320.4 
L 233.050909 320.4 
L 233.050909 86.672 
L 231.021818 86.672 
z
" clip-path="url(#p616e1bd1b9)" style="fill: #4682b4; opacity: 0.7"/>
   </g>
   <g id="patch_61">
    <path d="M 233.050909 320.4 
L 235.08 320.4 
L 235.08 90.896 
L 233.050909 90.896 
z
" clip-path="url(#p616e1bd1b9)" style="fill: #4682b4; opacity: 0.7"/>
   </g>
   <g id="patch_62">
    <path d="M 235.08 320.4 
L 237.109091 320.4 
L 237.109091 100.048 
L 235.08 100.048 
z
" clip-path="url(#p616e1bd1b9)" style="fill: #4682b4; opacity: 0.7"/>
   </g>
   <g id="patch_63">
    <path d="M 237.109091 320.4 
L 239.138182 320.4 
L 239.138182 107.792 
L 237.109091 107.792 
z
" clip-path="url(#p616e1bd1b9)" style="fill: #4682b4; opacity: 0.7"/>
   </g>
   <g id="patch_64">
    <path d="M 239.138182 320.4 
L 241.167273 320.4 
L 241.167273 107.792 
L 239.138182 107.792 
z
" clip-path="url(#p616e1bd1b9)" style="fill: #4682b4; opacity: 0.7"/>
   </g>
   <g id="patch_65">
    <path d="M 241.167273 320.4 
L 243.196364 320.4 
L 243.196364 111.312 
L 241.167273 111.312 
z
" clip-path="url(#p616e1bd1b9)" style="fill: #4682b4; opacity: 0.7"/>
   </g>
   <g id="patch_66">
    <path d="M 243.196364 320.4 
L 245.225455 320.4 
L 245.225455 114.128 
L 243.196364 114.128 
z
" clip-path="url(#p616e1bd1b9)" style="fill: #4682b4; opacity: 0.7"/>
   </g>
   <g id="patch_67">
    <path d="M 245.225455 320.4 
L 247.254545 320.4 
L 247.254545 123.984 
L 245.225455 123.984 
z
" clip-path="url(#p616e1bd1b9)" style="fill: #4682b4; opacity: 0.7"/>
   </g>
   <g id="patch_68">
    <path d="M 247.254545 320.4 
L 249.283636 320.4 
L 249.283636 128.208 
L 247.254545 128.208 
z
" clip-path="url(#p616e1bd1b9)" style="fill: #4682b4; opacity: 0.7"/>
   </g>
   <g id="patch_69">
    <path d="M 249.283636 320.4 
L 251.312727 320.4 
L 251.312727 136.656 
L 249.283636 136.656 
z
" clip-path="url(#p616e1bd1b9)" style="fill: #4682b4; opacity: 0.7"/>
   </g>
   <g id="patch_70">
    <path d="M 251.312727 320.4 
L 253.341818 320.4 
L 253.341818 143.696 
L 251.312727 143.696 
z
" clip-path="url(#p616e1bd1b9)" style="fill: #4682b4; opacity: 0.7"/>
   </g>
   <g id="patch_71">
    <path d="M 253.341818 320.4 
L 255.370909 320.4 
L 255.370909 152.848 
L 253.341818 152.848 
z
" clip-path="url(#p616e1bd1b9)" style="fill: #4682b4; opacity: 0.7"/>
   </g>
   <g id="patch_72">
    <path d="M 255.370909 320.4 
L 257.4 320.4 
L 257.4 156.368 
L 255.370909 156.368 
z
" clip-path="url(#p616e1bd1b9)" style="fill: #4682b4; opacity: 0.7"/>
   </g>
   <g id="patch_73">
    <path d="M 257.4 320.4 
L 259.429091 320.4 
L 259.429091 164.112 
L 257.4 164.112 
z
" clip-path="url(#p616e1bd1b9)" style="fill: #4682b4; opacity: 0.7"/>
   </g>
   <g id="patch_74">
    <path d="M 259.429091 320.4 
L 261.458182 320.4 
L 261.458182 169.04 
L 259.429091 169.04 
z
" clip-path="url(#p616e1bd1b9)" style="fill: #4682b4; opacity: 0.7"/>
   </g>
   <g id="patch_75">
    <path d="M 261.458182 320.4 
L 263.487273 320.4 
L 263.487273 173.968 
L 261.458182 173.968 
z
" clip-path="url(#p616e1bd1b9)" style="fill: #4682b4; opacity: 0.7"/>
   </g>
   <g id="patch_76">
    <path d="M 263.487273 320.4 
L 265.516364 320.4 
L 265.516364 178.192 
L 263.487273 178.192 
z
" clip-path="url(#p616e1bd1b9)" style="fill: #4682b4; opacity: 0.7"/>
   </g>
   <g id="patch_77">
    <path d="M 265.516364 320.4 
L 267.545455 320.4 
L 267.545455 192.976 
L 265.516364 192.976 
z
" clip-path="url(#p616e1bd1b9)" style="fill: #4682b4; opacity: 0.7"/>
   </g>
   <g id="patch_78">
    <path d="M 267.545455 320.4 
L 269.574545 320.4 
L 269.574545 198.608 
L 267.545455 198.608 
z
" clip-path="url(#p616e1bd1b9)" style="fill: #4682b4; opacity: 0.7"/>
   </g>
   <g id="patch_79">
    <path d="M 269.574545 320.4 
L 271.603636 320.4 
L 271.603636 204.944 
L 269.574545 204.944 
z
" clip-path="url(#p616e1bd1b9)" style="fill: #4682b4; opacity: 0.7"/>
   </g>
   <g id="patch_80">
    <path d="M 271.603636 320.4 
L 273.632727 320.4 
L 273.632727 209.872 
L 271.603636 209.872 
z
" clip-path="url(#p616e1bd1b9)" style="fill: #4682b4; opacity: 0.7"/>
   </g>
   <g id="patch_81">
    <path d="M 273.632727 320.4 
L 275.661818 320.4 
L 275.661818 214.096 
L 273.632727 214.096 
z
" clip-path="url(#p616e1bd1b9)" style="fill: #4682b4; opacity: 0.7"/>
   </g>
   <g id="patch_82">
    <path d="M 275.661818 320.4 
L 277.690909 320.4 
L 277.690909 220.432 
L 275.661818 220.432 
z
" clip-path="url(#p616e1bd1b9)" style="fill: #4682b4; opacity: 0.7"/>
   </g>
   <g id="patch_83">
    <path d="M 277.690909 320.4 
L 279.72 320.4 
L 279.72 219.024 
L 277.690909 219.024 
z
" clip-path="url(#p616e1bd1b9)" style="fill: #4682b4; opacity: 0.7"/>
   </g>
   <g id="patch_84">
    <path d="M 279.72 320.4 
L 281.749091 320.4 
L 281.749091 222.544 
L 279.72 222.544 
z
" clip-path="url(#p616e1bd1b9)" style="fill: #4682b4; opacity: 0.7"/>
   </g>
   <g id="patch_85">
    <path d="M 281.749091 320.4 
L 283.778182 320.4 
L 283.778182 226.768 
L 281.749091 226.768 
z
" clip-path="url(#p616e1bd1b9)" style="fill: #4682b4; opacity: 0.7"/>
   </g>
   <g id="patch_86">
    <path d="M 283.778182 320.4 
L 285.807273 320.4 
L 285.807273 230.992 
L 283.778182 230.992 
z
" clip-path="url(#p616e1bd1b9)" style="fill: #4682b4; opacity: 0.7"/>
   </g>
   <g id="patch_87">
    <path d="M 285.807273 320.4 
L 287.836364 320.4 
L 287.836364 240.144 
L 285.807273 240.144 
z
" clip-path="url(#p616e1bd1b9)" style="fill: #4682b4; opacity: 0.7"/>
   </g>
   <g id="patch_88">
    <path d="M 287.836364 320.4 
L 289.865455 320.4 
L 289.865455 244.368 
L 287.836364 244.368 
z
" clip-path="url(#p616e1bd1b9)" style="fill: #4682b4; opacity: 0.7"/>
   </g>
   <g id="patch_89">
    <path d="M 289.865455 320.4 
L 291.894545 320.4 
L 291.894545 250 
L 289.865455 250 
z
" clip-path="url(#p616e1bd1b9)" style="fill: #4682b4; opacity: 0.7"/>
   </g>
   <g id="patch_90">
    <path d="M 291.894545 320.4 
L 293.923636 320.4 
L 293.923636 254.928 
L 291.894545 254.928 
z
" clip-path="url(#p616e1bd1b9)" style="fill: #4682b4; opacity: 0.7"/>
   </g>
   <g id="patch_91">
    <path d="M 293.923636 320.4 
L 295.952727 320.4 
L 295.952727 261.968 
L 293.923636 261.968 
z
" clip-path="url(#p616e1bd1b9)" style="fill: #4682b4; opacity: 0.7"/>
   </g>
   <g id="patch_92">
    <path d="M 295.952727 320.4 
L 297.981818 320.4 
L 297.981818 266.896 
L 295.952727 266.896 
z
" clip-path="url(#p616e1bd1b9)" style="fill: #4682b4; opacity: 0.7"/>
   </g>
   <g id="patch_93">
    <path d="M 297.981818 320.4 
L 300.010909 320.4 
L 300.010909 267.6 
L 297.981818 267.6 
z
" clip-path="url(#p616e1bd1b9)" style="fill: #4682b4; opacity: 0.7"/>
   </g>
   <g id="patch_94">
    <path d="M 300.010909 320.4 
L 302.04 320.4 
L 302.04 271.12 
L 300.010909 271.12 
z
" clip-path="url(#p616e1bd1b9)" style="fill: #4682b4; opacity: 0.7"/>
   </g>
   <g id="patch_95">
    <path d="M 302.04 320.4 
L 304.069091 320.4 
L 304.069091 276.048 
L 302.04 276.048 
z
" clip-path="url(#p616e1bd1b9)" style="fill: #4682b4; opacity: 0.7"/>
   </g>
   <g id="patch_96">
    <path d="M 304.069091 320.4 
L 306.098182 320.4 
L 306.098182 278.864 
L 304.069091 278.864 
z
" clip-path="url(#p616e1bd1b9)" style="fill: #4682b4; opacity: 0.7"/>
   </g>
   <g id="patch_97">
    <path d="M 306.098182 320.4 
L 308.127273 320.4 
L 308.127273 281.68 
L 306.098182 281.68 
z
" clip-path="url(#p616e1bd1b9)" style="fill: #4682b4; opacity: 0.7"/>
   </g>
   <g id="patch_98">
    <path d="M 308.127273 320.4 
L 310.156364 320.4 
L 310.156364 283.088 
L 308.127273 283.088 
z
" clip-path="url(#p616e1bd1b9)" style="fill: #4682b4; opacity: 0.7"/>
   </g>
   <g id="patch_99">
    <path d="M 310.156364 320.4 
L 312.185455 320.4 
L 312.185455 284.496 
L 310.156364 284.496 
z
" clip-path="url(#p616e1bd1b9)" style="fill: #4682b4; opacity: 0.7"/>
   </g>
   <g id="patch_100">
    <path d="M 312.185455 320.4 
L 314.214545 320.4 
L 314.214545 285.904 
L 312.185455 285.904 
z
" clip-path="url(#p616e1bd1b9)" style="fill: #4682b4; opacity: 0.7"/>
   </g>
   <g id="patch_101">
    <path d="M 314.214545 320.4 
L 316.243636 320.4 
L 316.243636 290.128 
L 314.214545 290.128 
z
" clip-path="url(#p616e1bd1b9)" style="fill: #4682b4; opacity: 0.7"/>
   </g>
   <g id="patch_102">
    <path d="M 316.243636 320.4 
L 318.272727 320.4 
L 318.272727 292.24 
L 316.243636 292.24 
z
" clip-path="url(#p616e1bd1b9)" style="fill: #4682b4; opacity: 0.7"/>
   </g>
   <g id="patch_103">
    <path d="M 318.272727 320.4 
L 320.301818 320.4 
L 320.301818 293.648 
L 318.272727 293.648 
z
" clip-path="url(#p616e1bd1b9)" style="fill: #4682b4; opacity: 0.7"/>
   </g>
   <g id="patch_104">
    <path d="M 320.301818 320.4 
L 322.330909 320.4 
L 322.330909 295.76 
L 320.301818 295.76 
z
" clip-path="url(#p616e1bd1b9)" style="fill: #4682b4; opacity: 0.7"/>
   </g>
   <g id="patch_105">
    <path d="M 322.330909 320.4 
L 324.36 320.4 
L 324.36 297.872 
L 322.330909 297.872 
z
" clip-path="url(#p616e1bd1b9)" style="fill: #4682b4; opacity: 0.7"/>
   </g>
   <g id="patch_106">
    <path d="M 324.36 320.4 
L 326.389091 320.4 
L 326.389091 299.28 
L 324.36 299.28 
z
" clip-path="url(#p616e1bd1b9)" style="fill: #4682b4; opacity: 0.7"/>
   </g>
   <g id="patch_107">
    <path d="M 326.389091 320.4 
L 328.418182 320.4 
L 328.418182 300.688 
L 326.389091 300.688 
z
" clip-path="url(#p616e1bd1b9)" style="fill: #4682b4; opacity: 0.7"/>
   </g>
   <g id="patch_108">
    <path d="M 328.418182 320.4 
L 330.447273 320.4 
L 330.447273 300.688 
L 328.418182 300.688 
z
" clip-path="url(#p616e1bd1b9)" style="fill: #4682b4; opacity: 0.7"/>
   </g>
   <g id="patch_109">
    <path d="M 330.447273 320.4 
L 332.476364 320.4 
L 332.476364 303.504 
L 330.447273 303.504 
z
" clip-path="url(#p616e1bd1b9)" style="fill: #4682b4; opacity: 0.7"/>
   </g>
   <g id="patch_110">
    <path d="M 332.476364 320.4 
L 334.505455 320.4 
L 334.505455 304.912 
L 332.476364 304.912 
z
" clip-path="url(#p616e1bd1b9)" style="fill: #4682b4; opacity: 0.7"/>
   </g>
   <g id="patch_111">
    <path d="M 334.505455 320.4 
L 336.534545 320.4 
L 336.534545 305.616 
L 334.505455 305.616 
z
" clip-path="url(#p616e1bd1b9)" style="fill: #4682b4; opacity: 0.7"/>
   </g>
   <g id="patch_112">
    <path d="M 336.534545 320.4 
L 338.563636 320.4 
L 338.563636 306.32 
L 336.534545 306.32 
z
" clip-path="url(#p616e1bd1b9)" style="fill: #4682b4; opacity: 0.7"/>
   </g>
   <g id="patch_113">
    <path d="M 338.563636 320.4 
L 340.592727 320.4 
L 340.592727 306.32 
L 338.563636 306.32 
z
" clip-path="url(#p616e1bd1b9)" style="fill: #4682b4; opacity: 0.7"/>
   </g>
   <g id="patch_114">
    <path d="M 340.592727 320.4 
L 342.621818 320.4 
L 342.621818 307.024 
L 340.592727 307.024 
z
" clip-path="url(#p616e1bd1b9)" style="fill: #4682b4; opacity: 0.7"/>
   </g>
   <g id="patch_115">
    <path d="M 342.621818 320.4 
L 344.650909 320.4 
L 344.650909 309.136 
L 342.621818 309.136 
z
" clip-path="url(#p616e1bd1b9)" style="fill: #4682b4; opacity: 0.7"/>
   </g>
   <g id="patch_116">
    <path d="M 344.650909 320.4 
L 346.68 320.4 
L 346.68 311.952 
L 344.650909 311.952 
z
" clip-path="url(#p616e1bd1b9)" style="fill: #4682b4; opacity: 0.7"/>
   </g>
   <g id="patch_117">
    <path d="M 346.68 320.4 
L 348.709091 320.4 
L 348.709091 312.656 
L 346.68 312.656 
z
" clip-path="url(#p616e1bd1b9)" style="fill: #4682b4; opacity: 0.7"/>
   </g>
   <g id="patch_118">
    <path d="M 348.709091 320.4 
L 350.738182 320.4 
L 350.738182 312.656 
L 348.709091 312.656 
z
" clip-path="url(#p616e1bd1b9)" style="fill: #4682b4; opacity: 0.7"/>
   </g>
   <g id="patch_119">
    <path d="M 350.738182 320.4 
L 352.767273 320.4 
L 352.767273 312.656 
L 350.738182 312.656 
z
" clip-path="url(#p616e1bd1b9)" style="fill: #4682b4; opacity: 0.7"/>
   </g>
   <g id="patch_120">
    <path d="M 352.767273 320.4 
L 354.796364 320.4 
L 354.796364 313.36 
L 352.767273 313.36 
z
" clip-path="url(#p616e1bd1b9)" style="fill: #4682b4; opacity: 0.7"/>
   </g>
   <g id="patch_121">
    <path d="M 354.796364 320.4 
L 356.825455 320.4 
L 356.825455 314.064 
L 354.796364 314.064 
z
" clip-path="url(#p616e1bd1b9)" style="fill: #4682b4; opacity: 0.7"/>
   </g>
   <g id="patch_122">
    <path d="M 356.825455 320.4 
L 358.854545 320.4 
L 358.854545 314.768 
L 356.825455 314.768 
z
" clip-path="url(#p616e1bd1b9)" style="fill: #4682b4; opacity: 0.7"/>
   </g>
   <g id="patch_123">
    <path d="M 358.854545 320.4 
L 360.883636 320.4 
L 360.883636 315.472 
L 358.854545 315.472 
z
" clip-path="url(#p616e1bd1b9)" style="fill: #4682b4; opacity: 0.7"/>
   </g>
   <g id="patch_124">
    <path d="M 360.883636 320.4 
L 362.912727 320.4 
L 362.912727 316.176 
L 360.883636 316.176 
z
" clip-path="url(#p616e1bd1b9)" style="fill: #4682b4; opacity: 0.7"/>
   </g>
   <g id="patch_125">
    <path d="M 362.912727 320.4 
L 364.941818 320.4 
L 364.941818 316.88 
L 362.912727 316.88 
z
" clip-path="url(#p616e1bd1b9)" style="fill: #4682b4; opacity: 0.7"/>
   </g>
   <g id="patch_126">
    <path d="M 364.941818 320.4 
L 366.970909 320.4 
L 366.970909 316.88 
L 364.941818 316.88 
z
" clip-path="url(#p616e1bd1b9)" style="fill: #4682b4; opacity: 0.7"/>
   </g>
   <g id="patch_127">
    <path d="M 366.970909 320.4 
L 369 320.4 
L 369 316.88 
L 366.970909 316.88 
z
" clip-path="url(#p616e1bd1b9)" style="fill: #4682b4; opacity: 0.7"/>
   </g>
   <g id="patch_128">
    <path d="M 369 320.4 
L 371.029091 320.4 
L 371.029091 316.88 
L 369 316.88 
z
" clip-path="url(#p616e1bd1b9)" style="fill: #4682b4; opacity: 0.7"/>
   </g>
   <g id="patch_129">
    <path d="M 371.029091 320.4 
L 373.058182 320.4 
L 373.058182 316.88 
L 371.029091 316.88 
z
" clip-path="url(#p616e1bd1b9)" style="fill: #4682b4; opacity: 0.7"/>
   </g>
   <g id="patch_130">
    <path d="M 373.058182 320.4 
L 375.087273 320.4 
L 375.087273 316.88 
L 373.058182 316.88 
z
" clip-path="url(#p616e1bd1b9)" style="fill: #4682b4; opacity: 0.7"/>
   </g>
   <g id="patch_131">
    <path d="M 375.087273 320.4 
L 377.116364 320.4 
L 377.116364 316.88 
L 375.087273 316.88 
z
" clip-path="url(#p616e1bd1b9)" style="fill: #4682b4; opacity: 0.7"/>
   </g>
   <g id="patch_132">
    <path d="M 377.116364 320.4 
L 379.145455 320.4 
L 379.145455 316.88 
L 377.116364 316.88 
z
" clip-path="url(#p616e1bd1b9)" style="fill: #4682b4; opacity: 0.7"/>
   </g>
   <g id="patch_133">
    <path d="M 379.145455 320.4 
L 381.174545 320.4 
L 381.174545 316.88 
L 379.145455 316.88 
z
" clip-path="url(#p616e1bd1b9)" style="fill: #4682b4; opacity: 0.7"/>
   </g>
   <g id="patch_134">
    <path d="M 381.174545 320.4 
L 383.203636 320.4 
L 383.203636 316.88 
L 381.174545 316.88 
z
" clip-path="url(#p616e1bd1b9)" style="fill: #4682b4; opacity: 0.7"/>
   </g>
   <g id="patch_135">
    <path d="M 383.203636 320.4 
L 385.232727 320.4 
L 385.232727 316.88 
L 383.203636 316.88 
z
" clip-path="url(#p616e1bd1b9)" style="fill: #4682b4; opacity: 0.7"/>
   </g>
   <g id="patch_136">
    <path d="M 385.232727 320.4 
L 387.261818 320.4 
L 387.261818 316.88 
L 385.232727 316.88 
z
" clip-path="url(#p616e1bd1b9)" style="fill: #4682b4; opacity: 0.7"/>
   </g>
   <g id="patch_137">
    <path d="M 387.261818 320.4 
L 389.290909 320.4 
L 389.290909 316.88 
L 387.261818 316.88 
z
" clip-path="url(#p616e1bd1b9)" style="fill: #4682b4; opacity: 0.7"/>
   </g>
   <g id="patch_138">
    <path d="M 389.290909 320.4 
L 391.32 320.4 
L 391.32 317.584 
L 389.290909 317.584 
z
" clip-path="url(#p616e1bd1b9)" style="fill: #4682b4; opacity: 0.7"/>
   </g>
   <g id="patch_139">
    <path d="M 391.32 320.4 
L 393.349091 320.4 
L 393.349091 317.584 
L 391.32 317.584 
z
" clip-path="url(#p616e1bd1b9)" style="fill: #4682b4; opacity: 0.7"/>
   </g>
   <g id="patch_140">
    <path d="M 393.349091 320.4 
L 395.378182 320.4 
L 395.378182 317.584 
L 393.349091 317.584 
z
" clip-path="url(#p616e1bd1b9)" style="fill: #4682b4; opacity: 0.7"/>
   </g>
   <g id="patch_141">
    <path d="M 395.378182 320.4 
L 397.407273 320.4 
L 397.407273 318.288 
L 395.378182 318.288 
z
" clip-path="url(#p616e1bd1b9)" style="fill: #4682b4; opacity: 0.7"/>
   </g>
   <g id="patch_142">
    <path d="M 397.407273 320.4 
L 399.436364 320.4 
L 399.436364 318.288 
L 397.407273 318.288 
z
" clip-path="url(#p616e1bd1b9)" style="fill: #4682b4; opacity: 0.7"/>
   </g>
   <g id="patch_143">
    <path d="M 399.436364 320.4 
L 401.465455 320.4 
L 401.465455 318.288 
L 399.436364 318.288 
z
" clip-path="url(#p616e1bd1b9)" style="fill: #4682b4; opacity: 0.7"/>
   </g>
   <g id="patch_144">
    <path d="M 401.465455 320.4 
L 403.494545 320.4 
L 403.494545 318.992 
L 401.465455 318.992 
z
" clip-path="url(#p616e1bd1b9)" style="fill: #4682b4; opacity: 0.7"/>
   </g>
   <g id="patch_145">
    <path d="M 403.494545 320.4 
L 405.523636 320.4 
L 405.523636 318.992 
L 403.494545 318.992 
z
" clip-path="url(#p616e1bd1b9)" style="fill: #4682b4; opacity: 0.7"/>
   </g>
   <g id="patch_146">
    <path d="M 405.523636 320.4 
L 407.552727 320.4 
L 407.552727 318.992 
L 405.523636 318.992 
z
" clip-path="url(#p616e1bd1b9)" style="fill: #4682b4; opacity: 0.7"/>
   </g>
   <g id="patch_147">
    <path d="M 407.552727 320.4 
L 409.581818 320.4 
L 409.581818 319.696 
L 407.552727 319.696 
z
" clip-path="url(#p616e1bd1b9)" style="fill: #4682b4; opacity: 0.7"/>
   </g>
   <g id="patch_148">
    <path d="M 409.581818 320.4 
L 411.610909 320.4 
L 411.610909 319.696 
L 409.581818 319.696 
z
" clip-path="url(#p616e1bd1b9)" style="fill: #4682b4; opacity: 0.7"/>
   </g>
   <g id="patch_149">
    <path d="M 411.610909 320.4 
L 413.64 320.4 
L 413.64 319.696 
L 411.610909 319.696 
z
" clip-path="url(#p616e1bd1b9)" style="fill: #4682b4; opacity: 0.7"/>
   </g>
   <g id="patch_150">
    <path d="M 413.64 320.4 
L 415.669091 320.4 
L 415.669091 319.696 
L 413.64 319.696 
z
" clip-path="url(#p616e1bd1b9)" style="fill: #4682b4; opacity: 0.7"/>
   </g>
   <g id="patch_151">
    <path d="M 415.669091 320.4 
L 417.698182 320.4 
L 417.698182 319.696 
L 415.669091 319.696 
z
" clip-path="url(#p616e1bd1b9)" style="fill: #4682b4; opacity: 0.7"/>
   </g>
   <g id="patch_152">
    <path d="M 417.698182 320.4 
L 419.727273 320.4 
L 419.727273 319.696 
L 417.698182 319.696 
z
" clip-path="url(#p616e1bd1b9)" style="fill: #4682b4; opacity: 0.7"/>
   </g>
   <g id="patch_153">
    <path d="M 419.727273 320.4 
L 421.756364 320.4 
L 421.756364 319.696 
L 419.727273 319.696 
z
" clip-path="url(#p616e1bd1b9)" style="fill: #4682b4; opacity: 0.7"/>
   </g>
   <g id="patch_154">
    <path d="M 421.756364 320.4 
L 423.785455 320.4 
L 423.785455 319.696 
L 421.756364 319.696 
z
" clip-path="url(#p616e1bd1b9)" style="fill: #4682b4; opacity: 0.7"/>
   </g>
   <g id="patch_155">
    <path d="M 423.785455 320.4 
L 425.814545 320.4 
L 425.814545 319.696 
L 423.785455 319.696 
z
" clip-path="url(#p616e1bd1b9)" style="fill: #4682b4; opacity: 0.7"/>
   </g>
   <g id="patch_156">
    <path d="M 425.814545 320.4 
L 427.843636 320.4 
L 427.843636 319.696 
L 425.814545 319.696 
z
" clip-path="url(#p616e1bd1b9)" style="fill: #4682b4; opacity: 0.7"/>
   </g>
   <g id="patch_157">
    <path d="M 427.843636 320.4 
L 429.872727 320.4 
L 429.872727 319.696 
L 427.843636 319.696 
z
" clip-path="url(#p616e1bd1b9)" style="fill: #4682b4; opacity: 0.7"/>
   </g>
   <g id="patch_158">
    <path d="M 429.872727 320.4 
L 431.901818 320.4 
L 431.901818 319.696 
L 429.872727 319.696 
z
" clip-path="url(#p616e1bd1b9)" style="fill: #4682b4; opacity: 0.7"/>
   </g>
   <g id="patch_159">
    <path d="M 431.901818 320.4 
L 433.930909 320.4 
L 433.930909 319.696 
L 431.901818 319.696 
z
" clip-path="url(#p616e1bd1b9)" style="fill: #4682b4; opacity: 0.7"/>
   </g>
   <g id="patch_160">
    <path d="M 433.930909 320.4 
L 435.96 320.4 
L 435.96 319.696 
L 433.930909 319.696 
z
" clip-path="url(#p616e1bd1b9)" style="fill: #4682b4; opacity: 0.7"/>
   </g>
   <g id="patch_161">
    <path d="M 435.96 320.4 
L 437.989091 320.4 
L 437.989091 319.696 
L 435.96 319.696 
z
" clip-path="url(#p616e1bd1b9)" style="fill: #4682b4; opacity: 0.7"/>
   </g>
   <g id="patch_162">
    <path d="M 437.989091 320.4 
L 440.018182 320.4 
L 440.018182 319.696 
L 437.989091 319.696 
z
" clip-path="url(#p616e1bd1b9)" style="fill: #4682b4; opacity: 0.7"/>
   </g>
   <g id="patch_163">
    <path d="M 440.018182 320.4 
L 442.047273 320.4 
L 442.047273 319.696 
L 440.018182 319.696 
z
" clip-path="url(#p616e1bd1b9)" style="fill: #4682b4; opacity: 0.7"/>
   </g>
   <g id="patch_164">
    <path d="M 442.047273 320.4 
L 444.076364 320.4 
L 444.076364 319.696 
L 442.047273 319.696 
z
" clip-path="url(#p616e1bd1b9)" style="fill: #4682b4; opacity: 0.7"/>
   </g>
   <g id="patch_165">
    <path d="M 444.076364 320.4 
L 446.105455 320.4 
L 446.105455 319.696 
L 444.076364 319.696 
z
" clip-path="url(#p616e1bd1b9)" style="fill: #4682b4; opacity: 0.7"/>
   </g>
   <g id="patch_166">
    <path d="M 446.105455 320.4 
L 448.134545 320.4 
L 448.134545 319.696 
L 446.105455 319.696 
z
" clip-path="url(#p616e1bd1b9)" style="fill: #4682b4; opacity: 0.7"/>
   </g>
   <g id="patch_167">
    <path d="M 448.134545 320.4 
L 450.163636 320.4 
L 450.163636 319.696 
L 448.134545 319.696 
z
" clip-path="url(#p616e1bd1b9)" style="fill: #4682b4; opacity: 0.7"/>
   </g>
   <g id="patch_168">
    <path d="M 450.163636 320.4 
L 452.192727 320.4 
L 452.192727 319.696 
L 450.163636 319.696 
z
" clip-path="url(#p616e1bd1b9)" style="fill: #4682b4; opacity: 0.7"/>
   </g>
   <g id="patch_169">
    <path d="M 452.192727 320.4 
L 454.221818 320.4 
L 454.221818 320.4 
L 452.192727 320.4 
z
" clip-path="url(#p616e1bd1b9)" style="fill: #4682b4; opacity: 0.7"/>
   </g>
   <g id="patch_170">
    <path d="M 454.221818 320.4 
L 456.250909 320.4 
L 456.250909 320.4 
L 454.221818 320.4 
z
" clip-path="url(#p616e1bd1b9)" style="fill: #4682b4; opacity: 0.7"/>
   </g>
   <g id="patch_171">
    <path d="M 456.250909 320.4 
L 458.28 320.4 
L 458.28 320.4 
L 456.250909 320.4 
z
" clip-path="url(#p616e1bd1b9)" style="fill: #4682b4; opacity: 0.7"/>
   </g>
   <g id="patch_172">
    <path d="M 458.28 320.4 
L 460.309091 320.4 
L 460.309091 320.4 
L 458.28 320.4 
z
" clip-path="url(#p616e1bd1b9)" style="fill: #4682b4; opacity: 0.7"/>
   </g>
   <g id="patch_173">
    <path d="M 460.309091 320.4 
L 462.338182 320.4 
L 462.338182 320.4 
L 460.309091 320.4 
z
" clip-path="url(#p616e1bd1b9)" style="fill: #4682b4; opacity: 0.7"/>
   </g>
   <g id="patch_174">
    <path d="M 462.338182 320.4 
L 464.367273 320.4 
L 464.367273 320.4 
L 462.338182 320.4 
z
" clip-path="url(#p616e1bd1b9)" style="fill: #4682b4; opacity: 0.7"/>
   </g>
   <g id="patch_175">
    <path d="M 464.367273 320.4 
L 466.396364 320.4 
L 466.396364 320.4 
L 464.367273 320.4 
z
" clip-path="url(#p616e1bd1b9)" style="fill: #4682b4; opacity: 0.7"/>
   </g>
   <g id="patch_176">
    <path d="M 466.396364 320.4 
L 468.425455 320.4 
L 468.425455 320.4 
L 466.396364 320.4 
z
" clip-path="url(#p616e1bd1b9)" style="fill: #4682b4; opacity: 0.7"/>
   </g>
   <g id="patch_177">
    <path d="M 468.425455 320.4 
L 470.454545 320.4 
L 470.454545 320.4 
L 468.425455 320.4 
z
" clip-path="url(#p616e1bd1b9)" style="fill: #4682b4; opacity: 0.7"/>
   </g>
   <g id="patch_178">
    <path d="M 470.454545 320.4 
L 472.483636 320.4 
L 472.483636 320.4 
L 470.454545 320.4 
z
" clip-path="url(#p616e1bd1b9)" style="fill: #4682b4; opacity: 0.7"/>
   </g>
   <g id="patch_179">
    <path d="M 472.483636 320.4 
L 474.512727 320.4 
L 474.512727 320.4 
L 472.483636 320.4 
z
" clip-path="url(#p616e1bd1b9)" style="fill: #4682b4; opacity: 0.7"/>
   </g>
   <g id="patch_180">
    <path d="M 474.512727 320.4 
L 476.541818 320.4 
L 476.541818 320.4 
L 474.512727 320.4 
z
" clip-path="url(#p616e1bd1b9)" style="fill: #4682b4; opacity: 0.7"/>
   </g>
   <g id="patch_181">
    <path d="M 476.541818 320.4 
L 478.570909 320.4 
L 478.570909 320.4 
L 476.541818 320.4 
z
" clip-path="url(#p616e1bd1b9)" style="fill: #4682b4; opacity: 0.7"/>
   </g>
   <g id="patch_182">
    <path d="M 478.570909 320.4 
L 480.6 320.4 
L 480.6 320.4 
L 478.570909 320.4 
z
" clip-path="url(#p616e1bd1b9)" style="fill: #4682b4; opacity: 0.7"/>
   </g>
   <g id="patch_183">
    <path d="M 480.6 320.4 
L 482.629091 320.4 
L 482.629091 320.4 
L 480.6 320.4 
z
" clip-path="url(#p616e1bd1b9)" style="fill: #4682b4; opacity: 0.7"/>
   </g>
   <g id="patch_184">
    <path d="M 482.629091 320.4 
L 484.658182 320.4 
L 484.658182 320.4 
L 482.629091 320.4 
z
" clip-path="url(#p616e1bd1b9)" style="fill: #4682b4; opacity: 0.7"/>
   </g>
   <g id="patch_185">
    <path d="M 484.658182 320.4 
L 486.687273 320.4 
L 486.687273 320.4 
L 484.658182 320.4 
z
" clip-path="url(#p616e1bd1b9)" style="fill: #4682b4; opacity: 0.7"/>
   </g>
   <g id="patch_186">
    <path d="M 486.687273 320.4 
L 488.716364 320.4 
L 488.716364 320.4 
L 486.687273 320.4 
z
" clip-path="url(#p616e1bd1b9)" style="fill: #4682b4; opacity: 0.7"/>
   </g>
   <g id="patch_187">
    <path d="M 488.716364 320.4 
L 490.745455 320.4 
L 490.745455 320.4 
L 488.716364 320.4 
z
" clip-path="url(#p616e1bd1b9)" style="fill: #4682b4; opacity: 0.7"/>
   </g>
   <g id="patch_188">
    <path d="M 490.745455 320.4 
L 492.774545 320.4 
L 492.774545 320.4 
L 490.745455 320.4 
z
" clip-path="url(#p616e1bd1b9)" style="fill: #4682b4; opacity: 0.7"/>
   </g>
   <g id="patch_189">
    <path d="M 492.774545 320.4 
L 494.803636 320.4 
L 494.803636 320.4 
L 492.774545 320.4 
z
" clip-path="url(#p616e1bd1b9)" style="fill: #4682b4; opacity: 0.7"/>
   </g>
   <g id="patch_190">
    <path d="M 494.803636 320.4 
L 496.832727 320.4 
L 496.832727 320.4 
L 494.803636 320.4 
z
" clip-path="url(#p616e1bd1b9)" style="fill: #4682b4; opacity: 0.7"/>
   </g>
   <g id="patch_191">
    <path d="M 496.832727 320.4 
L 498.861818 320.4 
L 498.861818 320.4 
L 496.832727 320.4 
z
" clip-path="url(#p616e1bd1b9)" style="fill: #4682b4; opacity: 0.7"/>
   </g>
   <g id="patch_192">
    <path d="M 498.861818 320.4 
L 500.890909 320.4 
L 500.890909 320.4 
L 498.861818 320.4 
z
" clip-path="url(#p616e1bd1b9)" style="fill: #4682b4; opacity: 0.7"/>
   </g>
   <g id="patch_193">
    <path d="M 500.890909 320.4 
L 502.92 320.4 
L 502.92 320.4 
L 500.890909 320.4 
z
" clip-path="url(#p616e1bd1b9)" style="fill: #4682b4; opacity: 0.7"/>
   </g>
   <g id="patch_194">
    <path d="M 502.92 320.4 
L 504.949091 320.4 
L 504.949091 320.4 
L 502.92 320.4 
z
" clip-path="url(#p616e1bd1b9)" style="fill: #4682b4; opacity: 0.7"/>
   </g>
   <g id="patch_195">
    <path d="M 504.949091 320.4 
L 506.978182 320.4 
L 506.978182 320.4 
L 504.949091 320.4 
z
" clip-path="url(#p616e1bd1b9)" style="fill: #4682b4; opacity: 0.7"/>
   </g>
   <g id="patch_196">
    <path d="M 506.978182 320.4 
L 509.007273 320.4 
L 509.007273 320.4 
L 506.978182 320.4 
z
" clip-path="url(#p616e1bd1b9)" style="fill: #4682b4; opacity: 0.7"/>
   </g>
   <g id="patch_197">
    <path d="M 509.007273 320.4 
L 511.036364 320.4 
L 511.036364 320.4 
L 509.007273 320.4 
z
" clip-path="url(#p616e1bd1b9)" style="fill: #4682b4; opacity: 0.7"/>
   </g>
   <g id="patch_198">
    <path d="M 511.036364 320.4 
L 513.065455 320.4 
L 513.065455 320.4 
L 511.036364 320.4 
z
" clip-path="url(#p616e1bd1b9)" style="fill: #4682b4; opacity: 0.7"/>
   </g>
   <g id="patch_199">
    <path d="M 513.065455 320.4 
L 515.094545 320.4 
L 515.094545 320.4 
L 513.065455 320.4 
z
" clip-path="url(#p616e1bd1b9)" style="fill: #4682b4; opacity: 0.7"/>
   </g>
   <g id="patch_200">
    <path d="M 515.094545 320.4 
L 517.123636 320.4 
L 517.123636 320.4 
L 515.094545 320.4 
z
" clip-path="url(#p616e1bd1b9)" style="fill: #4682b4; opacity: 0.7"/>
   </g>
   <g id="patch_201">
    <path d="M 517.123636 320.4 
L 519.152727 320.4 
L 519.152727 320.4 
L 517.123636 320.4 
z
" clip-path="url(#p616e1bd1b9)" style="fill: #4682b4; opacity: 0.7"/>
   </g>
   <g id="patch_202">
    <path d="M 519.152727 320.4 
L 521.181818 320.4 
L 521.181818 320.4 
L 519.152727 320.4 
z
" clip-path="url(#p616e1bd1b9)" style="fill: #4682b4; opacity: 0.7"/>
   </g>
   <g id="patch_203">
    <path d="M 521.181818 320.4 
L 523.210909 320.4 
L 523.210909 320.4 
L 521.181818 320.4 
z
" clip-path="url(#p616e1bd1b9)" style="fill: #4682b4; opacity: 0.7"/>
   </g>
   <g id="patch_204">
    <path d="M 523.210909 320.4 
L 525.24 320.4 
L 525.24 320.4 
L 523.210909 320.4 
z
" clip-path="url(#p616e1bd1b9)" style="fill: #4682b4; opacity: 0.7"/>
   </g>
   <g id="patch_205">
    <path d="M 525.24 320.4 
L 527.269091 320.4 
L 527.269091 320.4 
L 525.24 320.4 
z
" clip-path="url(#p616e1bd1b9)" style="fill: #4682b4; opacity: 0.7"/>
   </g>
   <g id="patch_206">
    <path d="M 527.269091 320.4 
L 529.298182 320.4 
L 529.298182 320.4 
L 527.269091 320.4 
z
" clip-path="url(#p616e1bd1b9)" style="fill: #4682b4; opacity: 0.7"/>
   </g>
   <g id="patch_207">
    <path d="M 529.298182 320.4 
L 531.327273 320.4 
L 531.327273 320.4 
L 529.298182 320.4 
z
" clip-path="url(#p616e1bd1b9)" style="fill: #4682b4; opacity: 0.7"/>
   </g>
   <g id="patch_208">
    <path d="M 531.327273 320.4 
L 533.356364 320.4 
L 533.356364 320.4 
L 531.327273 320.4 
z
" clip-path="url(#p616e1bd1b9)" style="fill: #4682b4; opacity: 0.7"/>
   </g>
   <g id="patch_209">
    <path d="M 533.356364 320.4 
L 535.385455 320.4 
L 535.385455 320.4 
L 533.356364 320.4 
z
" clip-path="url(#p616e1bd1b9)" style="fill: #4682b4; opacity: 0.7"/>
   </g>
   <g id="patch_210">
    <path d="M 535.385455 320.4 
L 537.414545 320.4 
L 537.414545 320.4 
L 535.385455 320.4 
z
" clip-path="url(#p616e1bd1b9)" style="fill: #4682b4; opacity: 0.7"/>
   </g>
   <g id="patch_211">
    <path d="M 537.414545 320.4 
L 539.443636 320.4 
L 539.443636 320.4 
L 537.414545 320.4 
z
" clip-path="url(#p616e1bd1b9)" style="fill: #4682b4; opacity: 0.7"/>
   </g>
   <g id="patch_212">
    <path d="M 539.443636 320.4 
L 541.472727 320.4 
L 541.472727 320.4 
L 539.443636 320.4 
z
" clip-path="url(#p616e1bd1b9)" style="fill: #4682b4; opacity: 0.7"/>
   </g>
   <g id="patch_213">
    <path d="M 541.472727 320.4 
L 543.501818 320.4 
L 543.501818 320.4 
L 541.472727 320.4 
z
" clip-path="url(#p616e1bd1b9)" style="fill: #4682b4; opacity: 0.7"/>
   </g>
   <g id="patch_214">
    <path d="M 543.501818 320.4 
L 545.530909 320.4 
L 545.530909 320.4 
L 543.501818 320.4 
z
" clip-path="url(#p616e1bd1b9)" style="fill: #4682b4; opacity: 0.7"/>
   </g>
   <g id="patch_215">
    <path d="M 545.530909 320.4 
L 547.56 320.4 
L 547.56 320.4 
L 545.530909 320.4 
z
" clip-path="url(#p616e1bd1b9)" style="fill: #4682b4; opacity: 0.7"/>
   </g>
   <g id="patch_216">
    <path d="M 547.56 320.4 
L 549.589091 320.4 
L 549.589091 320.4 
L 547.56 320.4 
z
" clip-path="url(#p616e1bd1b9)" style="fill: #4682b4; opacity: 0.7"/>
   </g>
   <g id="patch_217">
    <path d="M 549.589091 320.4 
L 551.618182 320.4 
L 551.618182 320.4 
L 549.589091 320.4 
z
" clip-path="url(#p616e1bd1b9)" style="fill: #4682b4; opacity: 0.7"/>
   </g>
   <g id="patch_218">
    <path d="M 551.618182 320.4 
L 553.647273 320.4 
L 553.647273 320.4 
L 551.618182 320.4 
z
" clip-path="url(#p616e1bd1b9)" style="fill: #4682b4; opacity: 0.7"/>
   </g>
   <g id="patch_219">
    <path d="M 553.647273 320.4 
L 555.676364 320.4 
L 555.676364 320.4 
L 553.647273 320.4 
z
" clip-path="url(#p616e1bd1b9)" style="fill: #4682b4; opacity: 0.7"/>
   </g>
   <g id="patch_220">
    <path d="M 555.676364 320.4 
L 557.705455 320.4 
L 557.705455 320.4 
L 555.676364 320.4 
z
" clip-path="url(#p616e1bd1b9)" style="fill: #4682b4; opacity: 0.7"/>
   </g>
   <g id="patch_221">
    <path d="M 557.705455 320.4 
L 559.734545 320.4 
L 559.734545 320.4 
L 557.705455 320.4 
z
" clip-path="url(#p616e1bd1b9)" style="fill: #4682b4; opacity: 0.7"/>
   </g>
   <g id="patch_222">
    <path d="M 559.734545 320.4 
L 561.763636 320.4 
L 561.763636 320.4 
L 559.734545 320.4 
z
" clip-path="url(#p616e1bd1b9)" style="fill: #4682b4; opacity: 0.7"/>
   </g>
   <g id="patch_223">
    <path d="M 561.763636 320.4 
L 563.792727 320.4 
L 563.792727 320.4 
L 561.763636 320.4 
z
" clip-path="url(#p616e1bd1b9)" style="fill: #4682b4; opacity: 0.7"/>
   </g>
   <g id="patch_224">
    <path d="M 563.792727 320.4 
L 565.821818 320.4 
L 565.821818 320.4 
L 563.792727 320.4 
z
" clip-path="url(#p616e1bd1b9)" style="fill: #4682b4; opacity: 0.7"/>
   </g>
   <g id="patch_225">
    <path d="M 565.821818 320.4 
L 567.850909 320.4 
L 567.850909 320.4 
L 565.821818 320.4 
z
" clip-path="url(#p616e1bd1b9)" style="fill: #4682b4; opacity: 0.7"/>
   </g>
   <g id="patch_226">
    <path d="M 567.850909 320.4 
L 569.88 320.4 
L 569.88 320.4 
L 567.850909 320.4 
z
" clip-path="url(#p616e1bd1b9)" style="fill: #4682b4; opacity: 0.7"/>
   </g>
   <g id="patch_227">
    <path d="M 569.88 320.4 
L 571.909091 320.4 
L 571.909091 320.4 
L 569.88 320.4 
z
" clip-path="url(#p616e1bd1b9)" style="fill: #4682b4; opacity: 0.7"/>
   </g>
   <g id="patch_228">
    <path d="M 571.909091 320.4 
L 573.938182 320.4 
L 573.938182 320.4 
L 571.909091 320.4 
z
" clip-path="url(#p616e1bd1b9)" style="fill: #4682b4; opacity: 0.7"/>
   </g>
   <g id="patch_229">
    <path d="M 573.938182 320.4 
L 575.967273 320.4 
L 575.967273 320.4 
L 573.938182 320.4 
z
" clip-path="url(#p616e1bd1b9)" style="fill: #4682b4; opacity: 0.7"/>
   </g>
   <g id="patch_230">
    <path d="M 575.967273 320.4 
L 577.996364 320.4 
L 577.996364 320.4 
L 575.967273 320.4 
z
" clip-path="url(#p616e1bd1b9)" style="fill: #4682b4; opacity: 0.7"/>
   </g>
   <g id="patch_231">
    <path d="M 577.996364 320.4 
L 580.025455 320.4 
L 580.025455 320.4 
L 577.996364 320.4 
z
" clip-path="url(#p616e1bd1b9)" style="fill: #4682b4; opacity: 0.7"/>
   </g>
   <g id="patch_232">
    <path d="M 580.025455 320.4 
L 582.054545 320.4 
L 582.054545 320.4 
L 580.025455 320.4 
z
" clip-path="url(#p616e1bd1b9)" style="fill: #4682b4; opacity: 0.7"/>
   </g>
   <g id="patch_233">
    <path d="M 582.054545 320.4 
L 584.083636 320.4 
L 584.083636 320.4 
L 582.054545 320.4 
z
" clip-path="url(#p616e1bd1b9)" style="fill: #4682b4; opacity: 0.7"/>
   </g>
   <g id="patch_234">
    <path d="M 584.083636 320.4 
L 586.112727 320.4 
L 586.112727 320.4 
L 584.083636 320.4 
z
" clip-path="url(#p616e1bd1b9)" style="fill: #4682b4; opacity: 0.7"/>
   </g>
   <g id="patch_235">
    <path d="M 586.112727 320.4 
L 588.141818 320.4 
L 588.141818 320.4 
L 586.112727 320.4 
z
" clip-path="url(#p616e1bd1b9)" style="fill: #4682b4; opacity: 0.7"/>
   </g>
   <g id="patch_236">
    <path d="M 588.141818 320.4 
L 590.170909 320.4 
L 590.170909 320.4 
L 588.141818 320.4 
z
" clip-path="url(#p616e1bd1b9)" style="fill: #4682b4; opacity: 0.7"/>
   </g>
   <g id="patch_237">
    <path d="M 590.170909 320.4 
L 592.2 320.4 
L 592.2 320.4 
L 590.170909 320.4 
z
" clip-path="url(#p616e1bd1b9)" style="fill: #4682b4; opacity: 0.7"/>
   </g>
   <g id="patch_238">
    <path d="M 592.2 320.4 
L 594.229091 320.4 
L 594.229091 320.4 
L 592.2 320.4 
z
" clip-path="url(#p616e1bd1b9)" style="fill: #4682b4; opacity: 0.7"/>
   </g>
   <g id="patch_239">
    <path d="M 594.229091 320.4 
L 596.258182 320.4 
L 596.258182 320.4 
L 594.229091 320.4 
z
" clip-path="url(#p616e1bd1b9)" style="fill: #4682b4; opacity: 0.7"/>
   </g>
   <g id="patch_240">
    <path d="M 596.258182 320.4 
L 598.287273 320.4 
L 598.287273 320.4 
L 596.258182 320.4 
z
" clip-path="url(#p616e1bd1b9)" style="fill: #4682b4; opacity: 0.7"/>
   </g>
   <g id="patch_241">
    <path d="M 598.287273 320.4 
L 600.316364 320.4 
L 600.316364 320.4 
L 598.287273 320.4 
z
" clip-path="url(#p616e1bd1b9)" style="fill: #4682b4; opacity: 0.7"/>
   </g>
   <g id="patch_242">
    <path d="M 600.316364 320.4 
L 602.345455 320.4 
L 602.345455 320.4 
L 600.316364 320.4 
z
" clip-path="url(#p616e1bd1b9)" style="fill: #4682b4; opacity: 0.7"/>
   </g>
   <g id="patch_243">
    <path d="M 602.345455 320.4 
L 604.374545 320.4 
L 604.374545 320.4 
L 602.345455 320.4 
z
" clip-path="url(#p616e1bd1b9)" style="fill: #4682b4; opacity: 0.7"/>
   </g>
   <g id="patch_244">
    <path d="M 604.374545 320.4 
L 606.403636 320.4 
L 606.403636 320.4 
L 604.374545 320.4 
z
" clip-path="url(#p616e1bd1b9)" style="fill: #4682b4; opacity: 0.7"/>
   </g>
   <g id="patch_245">
    <path d="M 606.403636 320.4 
L 608.432727 320.4 
L 608.432727 320.4 
L 606.403636 320.4 
z
" clip-path="url(#p616e1bd1b9)" style="fill: #4682b4; opacity: 0.7"/>
   </g>
   <g id="patch_246">
    <path d="M 608.432727 320.4 
L 610.461818 320.4 
L 610.461818 320.4 
L 608.432727 320.4 
z
" clip-path="url(#p616e1bd1b9)" style="fill: #4682b4; opacity: 0.7"/>
   </g>
   <g id="patch_247">
    <path d="M 610.461818 320.4 
L 612.490909 320.4 
L 612.490909 320.4 
L 610.461818 320.4 
z
" clip-path="url(#p616e1bd1b9)" style="fill: #4682b4; opacity: 0.7"/>
   </g>
   <g id="patch_248">
    <path d="M 612.490909 320.4 
L 614.52 320.4 
L 614.52 320.4 
L 612.490909 320.4 
z
" clip-path="url(#p616e1bd1b9)" style="fill: #4682b4; opacity: 0.7"/>
   </g>
   <g id="patch_249">
    <path d="M 614.52 320.4 
L 616.549091 320.4 
L 616.549091 320.4 
L 614.52 320.4 
z
" clip-path="url(#p616e1bd1b9)" style="fill: #4682b4; opacity: 0.7"/>
   </g>
   <g id="patch_250">
    <path d="M 616.549091 320.4 
L 618.578182 320.4 
L 618.578182 320.4 
L 616.549091 320.4 
z
" clip-path="url(#p616e1bd1b9)" style="fill: #4682b4; opacity: 0.7"/>
   </g>
   <g id="patch_251">
    <path d="M 618.578182 320.4 
L 620.607273 320.4 
L 620.607273 320.4 
L 618.578182 320.4 
z
" clip-path="url(#p616e1bd1b9)" style="fill: #4682b4; opacity: 0.7"/>
   </g>
   <g id="patch_252">
    <path d="M 620.607273 320.4 
L 622.636364 320.4 
L 622.636364 320.4 
L 620.607273 320.4 
z
" clip-path="url(#p616e1bd1b9)" style="fill: #4682b4; opacity: 0.7"/>
   </g>
   <g id="matplotlib.axis_1">
    <g id="xtick_1">
     <g id="line2d_1">
      <path d="M 115.363636 320.4 
L 115.363636 43.2 
" clip-path="url(#p616e1bd1b9)" style="fill: none; stroke: #b0b0b0; stroke-width: 0.8; stroke-linecap: square"/>
     </g>
     <g id="line2d_2">
      <defs>
       <path id="m07701cc51a" d="M 0 0 
L 0 3.5 
" style="stroke: #000000; stroke-width: 0.8"/>
      </defs>
      <g>
       <use xlink:href="#m07701cc51a" x="115.363636" y="320.4" style="stroke: #000000; stroke-width: 0.8"/>
      </g>
     </g>
     <g id="text_1">
      <!-- 0.0 -->
      <g transform="translate(107.412074 334.998438) scale(0.1 -0.1)">
       <defs>
        <path id="DejaVuSans-30" d="M 2034 4250 
Q 1547 4250 1301 3770 
Q 1056 3291 1056 2328 
Q 1056 1369 1301 889 
Q 1547 409 2034 409 
Q 2525 409 2770 889 
Q 3016 1369 3016 2328 
Q 3016 3291 2770 3770 
Q 2525 4250 2034 4250 
z
M 2034 4750 
Q 2819 4750 3233 4129 
Q 3647 3509 3647 2328 
Q 3647 1150 3233 529 
Q 2819 -91 2034 -91 
Q 1250 -91 836 529 
Q 422 1150 422 2328 
Q 422 3509 836 4129 
Q 1250 4750 2034 4750 
z
" transform="scale(0.015625)"/>
        <path id="DejaVuSans-2e" d="M 684 794 
L 1344 794 
L 1344 0 
L 684 0 
L 684 794 
z
" transform="scale(0.015625)"/>
       </defs>
       <use xlink:href="#DejaVuSans-30"/>
       <use xlink:href="#DejaVuSans-2e" transform="translate(63.623047 0)"/>
       <use xlink:href="#DejaVuSans-30" transform="translate(95.410156 0)"/>
      </g>
     </g>
    </g>
    <g id="xtick_2">
     <g id="line2d_3">
      <path d="M 216.818182 320.4 
L 216.818182 43.2 
" clip-path="url(#p616e1bd1b9)" style="fill: none; stroke: #b0b0b0; stroke-width: 0.8; stroke-linecap: square"/>
     </g>
     <g id="line2d_4">
      <g>
       <use xlink:href="#m07701cc51a" x="216.818182" y="320.4" style="stroke: #000000; stroke-width: 0.8"/>
      </g>
     </g>
     <g id="text_2">
      <!-- 0.2 -->
      <g transform="translate(208.866619 334.998438) scale(0.1 -0.1)">
       <defs>
        <path id="DejaVuSans-32" d="M 1228 531 
L 3431 531 
L 3431 0 
L 469 0 
L 469 531 
Q 828 903 1448 1529 
Q 2069 2156 2228 2338 
Q 2531 2678 2651 2914 
Q 2772 3150 2772 3378 
Q 2772 3750 2511 3984 
Q 2250 4219 1831 4219 
Q 1534 4219 1204 4116 
Q 875 4013 500 3803 
L 500 4441 
Q 881 4594 1212 4672 
Q 1544 4750 1819 4750 
Q 2544 4750 2975 4387 
Q 3406 4025 3406 3419 
Q 3406 3131 3298 2873 
Q 3191 2616 2906 2266 
Q 2828 2175 2409 1742 
Q 1991 1309 1228 531 
z
" transform="scale(0.015625)"/>
       </defs>
       <use xlink:href="#DejaVuSans-30"/>
       <use xlink:href="#DejaVuSans-2e" transform="translate(63.623047 0)"/>
       <use xlink:href="#DejaVuSans-32" transform="translate(95.410156 0)"/>
      </g>
     </g>
    </g>
    <g id="xtick_3">
     <g id="line2d_5">
      <path d="M 318.272727 320.4 
L 318.272727 43.2 
" clip-path="url(#p616e1bd1b9)" style="fill: none; stroke: #b0b0b0; stroke-width: 0.8; stroke-linecap: square"/>
     </g>
     <g id="line2d_6">
      <g>
       <use xlink:href="#m07701cc51a" x="318.272727" y="320.4" style="stroke: #000000; stroke-width: 0.8"/>
      </g>
     </g>
     <g id="text_3">
      <!-- 0.4 -->
      <g transform="translate(310.321165 334.998438) scale(0.1 -0.1)">
       <defs>
        <path id="DejaVuSans-34" d="M 2419 4116 
L 825 1625 
L 2419 1625 
L 2419 4116 
z
M 2253 4666 
L 3047 4666 
L 3047 1625 
L 3713 1625 
L 3713 1100 
L 3047 1100 
L 3047 0 
L 2419 0 
L 2419 1100 
L 313 1100 
L 313 1709 
L 2253 4666 
z
" transform="scale(0.015625)"/>
       </defs>
       <use xlink:href="#DejaVuSans-30"/>
       <use xlink:href="#DejaVuSans-2e" transform="translate(63.623047 0)"/>
       <use xlink:href="#DejaVuSans-34" transform="translate(95.410156 0)"/>
      </g>
     </g>
    </g>
    <g id="xtick_4">
     <g id="line2d_7">
      <path d="M 419.727273 320.4 
L 419.727273 43.2 
" clip-path="url(#p616e1bd1b9)" style="fill: none; stroke: #b0b0b0; stroke-width: 0.8; stroke-linecap: square"/>
     </g>
     <g id="line2d_8">
      <g>
       <use xlink:href="#m07701cc51a" x="419.727273" y="320.4" style="stroke: #000000; stroke-width: 0.8"/>
      </g>
     </g>
     <g id="text_4">
      <!-- 0.6 -->
      <g transform="translate(411.77571 334.998438) scale(0.1 -0.1)">
       <defs>
        <path id="DejaVuSans-36" d="M 2113 2584 
Q 1688 2584 1439 2293 
Q 1191 2003 1191 1497 
Q 1191 994 1439 701 
Q 1688 409 2113 409 
Q 2538 409 2786 701 
Q 3034 994 3034 1497 
Q 3034 2003 2786 2293 
Q 2538 2584 2113 2584 
z
M 3366 4563 
L 3366 3988 
Q 3128 4100 2886 4159 
Q 2644 4219 2406 4219 
Q 1781 4219 1451 3797 
Q 1122 3375 1075 2522 
Q 1259 2794 1537 2939 
Q 1816 3084 2150 3084 
Q 2853 3084 3261 2657 
Q 3669 2231 3669 1497 
Q 3669 778 3244 343 
Q 2819 -91 2113 -91 
Q 1303 -91 875 529 
Q 447 1150 447 2328 
Q 447 3434 972 4092 
Q 1497 4750 2381 4750 
Q 2619 4750 2861 4703 
Q 3103 4656 3366 4563 
z
" transform="scale(0.015625)"/>
       </defs>
       <use xlink:href="#DejaVuSans-30"/>
       <use xlink:href="#DejaVuSans-2e" transform="translate(63.623047 0)"/>
       <use xlink:href="#DejaVuSans-36" transform="translate(95.410156 0)"/>
      </g>
     </g>
    </g>
    <g id="xtick_5">
     <g id="line2d_9">
      <path d="M 521.181818 320.4 
L 521.181818 43.2 
" clip-path="url(#p616e1bd1b9)" style="fill: none; stroke: #b0b0b0; stroke-width: 0.8; stroke-linecap: square"/>
     </g>
     <g id="line2d_10">
      <g>
       <use xlink:href="#m07701cc51a" x="521.181818" y="320.4" style="stroke: #000000; stroke-width: 0.8"/>
      </g>
     </g>
     <g id="text_5">
      <!-- 0.8 -->
      <g transform="translate(513.230256 334.998438) scale(0.1 -0.1)">
       <defs>
        <path id="DejaVuSans-38" d="M 2034 2216 
Q 1584 2216 1326 1975 
Q 1069 1734 1069 1313 
Q 1069 891 1326 650 
Q 1584 409 2034 409 
Q 2484 409 2743 651 
Q 3003 894 3003 1313 
Q 3003 1734 2745 1975 
Q 2488 2216 2034 2216 
z
M 1403 2484 
Q 997 2584 770 2862 
Q 544 3141 544 3541 
Q 544 4100 942 4425 
Q 1341 4750 2034 4750 
Q 2731 4750 3128 4425 
Q 3525 4100 3525 3541 
Q 3525 3141 3298 2862 
Q 3072 2584 2669 2484 
Q 3125 2378 3379 2068 
Q 3634 1759 3634 1313 
Q 3634 634 3220 271 
Q 2806 -91 2034 -91 
Q 1263 -91 848 271 
Q 434 634 434 1313 
Q 434 1759 690 2068 
Q 947 2378 1403 2484 
z
M 1172 3481 
Q 1172 3119 1398 2916 
Q 1625 2713 2034 2713 
Q 2441 2713 2670 2916 
Q 2900 3119 2900 3481 
Q 2900 3844 2670 4047 
Q 2441 4250 2034 4250 
Q 1625 4250 1398 4047 
Q 1172 3844 1172 3481 
z
" transform="scale(0.015625)"/>
       </defs>
       <use xlink:href="#DejaVuSans-30"/>
       <use xlink:href="#DejaVuSans-2e" transform="translate(63.623047 0)"/>
       <use xlink:href="#DejaVuSans-38" transform="translate(95.410156 0)"/>
      </g>
     </g>
    </g>
    <g id="xtick_6">
     <g id="line2d_11">
      <path d="M 622.636364 320.4 
L 622.636364 43.2 
" clip-path="url(#p616e1bd1b9)" style="fill: none; stroke: #b0b0b0; stroke-width: 0.8; stroke-linecap: square"/>
     </g>
     <g id="line2d_12">
      <g>
       <use xlink:href="#m07701cc51a" x="622.636364" y="320.4" style="stroke: #000000; stroke-width: 0.8"/>
      </g>
     </g>
     <g id="text_6">
      <!-- 1.0 -->
      <g transform="translate(614.684801 334.998438) scale(0.1 -0.1)">
       <defs>
        <path id="DejaVuSans-31" d="M 794 531 
L 1825 531 
L 1825 4091 
L 703 3866 
L 703 4441 
L 1819 4666 
L 2450 4666 
L 2450 531 
L 3481 531 
L 3481 0 
L 794 0 
L 794 531 
z
" transform="scale(0.015625)"/>
       </defs>
       <use xlink:href="#DejaVuSans-31"/>
       <use xlink:href="#DejaVuSans-2e" transform="translate(63.623047 0)"/>
       <use xlink:href="#DejaVuSans-30" transform="translate(95.410156 0)"/>
      </g>
     </g>
    </g>
    <g id="text_7">
     <!-- f en P = V / (E + fK) -->
     <g transform="translate(319.682813 348.676562) scale(0.1 -0.1)">
      <defs>
       <path id="DejaVuSans-66" d="M 2375 4863 
L 2375 4384 
L 1825 4384 
Q 1516 4384 1395 4259 
Q 1275 4134 1275 3809 
L 1275 3500 
L 2222 3500 
L 2222 3053 
L 1275 3053 
L 1275 0 
L 697 0 
L 697 3053 
L 147 3053 
L 147 3500 
L 697 3500 
L 697 3744 
Q 697 4328 969 4595 
Q 1241 4863 1831 4863 
L 2375 4863 
z
" transform="scale(0.015625)"/>
       <path id="DejaVuSans-20" transform="scale(0.015625)"/>
       <path id="DejaVuSans-65" d="M 3597 1894 
L 3597 1613 
L 953 1613 
Q 991 1019 1311 708 
Q 1631 397 2203 397 
Q 2534 397 2845 478 
Q 3156 559 3463 722 
L 3463 178 
Q 3153 47 2828 -22 
Q 2503 -91 2169 -91 
Q 1331 -91 842 396 
Q 353 884 353 1716 
Q 353 2575 817 3079 
Q 1281 3584 2069 3584 
Q 2775 3584 3186 3129 
Q 3597 2675 3597 1894 
z
M 3022 2063 
Q 3016 2534 2758 2815 
Q 2500 3097 2075 3097 
Q 1594 3097 1305 2825 
Q 1016 2553 972 2059 
L 3022 2063 
z
" transform="scale(0.015625)"/>
       <path id="DejaVuSans-6e" d="M 3513 2113 
L 3513 0 
L 2938 0 
L 2938 2094 
Q 2938 2591 2744 2837 
Q 2550 3084 2163 3084 
Q 1697 3084 1428 2787 
Q 1159 2491 1159 1978 
L 1159 0 
L 581 0 
L 581 3500 
L 1159 3500 
L 1159 2956 
Q 1366 3272 1645 3428 
Q 1925 3584 2291 3584 
Q 2894 3584 3203 3211 
Q 3513 2838 3513 2113 
z
" transform="scale(0.015625)"/>
       <path id="DejaVuSans-50" d="M 1259 4147 
L 1259 2394 
L 2053 2394 
Q 2494 2394 2734 2622 
Q 2975 2850 2975 3272 
Q 2975 3691 2734 3919 
Q 2494 4147 2053 4147 
L 1259 4147 
z
M 628 4666 
L 2053 4666 
Q 2838 4666 3239 4311 
Q 3641 3956 3641 3272 
Q 3641 2581 3239 2228 
Q 2838 1875 2053 1875 
L 1259 1875 
L 1259 0 
L 628 0 
L 628 4666 
z
" transform="scale(0.015625)"/>
       <path id="DejaVuSans-3d" d="M 678 2906 
L 4684 2906 
L 4684 2381 
L 678 2381 
L 678 2906 
z
M 678 1631 
L 4684 1631 
L 4684 1100 
L 678 1100 
L 678 1631 
z
" transform="scale(0.015625)"/>
       <path id="DejaVuSans-56" d="M 1831 0 
L 50 4666 
L 709 4666 
L 2188 738 
L 3669 4666 
L 4325 4666 
L 2547 0 
L 1831 0 
z
" transform="scale(0.015625)"/>
       <path id="DejaVuSans-2f" d="M 1625 4666 
L 2156 4666 
L 531 -594 
L 0 -594 
L 1625 4666 
z
" transform="scale(0.015625)"/>
       <path id="DejaVuSans-28" d="M 1984 4856 
Q 1566 4138 1362 3434 
Q 1159 2731 1159 2009 
Q 1159 1288 1364 580 
Q 1569 -128 1984 -844 
L 1484 -844 
Q 1016 -109 783 600 
Q 550 1309 550 2009 
Q 550 2706 781 3412 
Q 1013 4119 1484 4856 
L 1984 4856 
z
" transform="scale(0.015625)"/>
       <path id="DejaVuSans-45" d="M 628 4666 
L 3578 4666 
L 3578 4134 
L 1259 4134 
L 1259 2753 
L 3481 2753 
L 3481 2222 
L 1259 2222 
L 1259 531 
L 3634 531 
L 3634 0 
L 628 0 
L 628 4666 
z
" transform="scale(0.015625)"/>
       <path id="DejaVuSans-2b" d="M 2944 4013 
L 2944 2272 
L 4684 2272 
L 4684 1741 
L 2944 1741 
L 2944 0 
L 2419 0 
L 2419 1741 
L 678 1741 
L 678 2272 
L 2419 2272 
L 2419 4013 
L 2944 4013 
z
" transform="scale(0.015625)"/>
       <path id="DejaVuSans-4b" d="M 628 4666 
L 1259 4666 
L 1259 2694 
L 3353 4666 
L 4166 4666 
L 1850 2491 
L 4331 0 
L 3500 0 
L 1259 2247 
L 1259 0 
L 628 0 
L 628 4666 
z
" transform="scale(0.015625)"/>
       <path id="DejaVuSans-29" d="M 513 4856 
L 1013 4856 
Q 1481 4119 1714 3412 
Q 1947 2706 1947 2009 
Q 1947 1309 1714 600 
Q 1481 -109 1013 -844 
L 513 -844 
Q 928 -128 1133 580 
Q 1338 1288 1338 2009 
Q 1338 2731 1133 3434 
Q 928 4138 513 4856 
z
" transform="scale(0.015625)"/>
      </defs>
      <use xlink:href="#DejaVuSans-66"/>
      <use xlink:href="#DejaVuSans-20" transform="translate(35.205078 0)"/>
      <use xlink:href="#DejaVuSans-65" transform="translate(66.992188 0)"/>
      <use xlink:href="#DejaVuSans-6e" transform="translate(128.515625 0)"/>
      <use xlink:href="#DejaVuSans-20" transform="translate(191.894531 0)"/>
      <use xlink:href="#DejaVuSans-50" transform="translate(223.681641 0)"/>
      <use xlink:href="#DejaVuSans-20" transform="translate(283.984375 0)"/>
      <use xlink:href="#DejaVuSans-3d" transform="translate(315.771484 0)"/>
      <use xlink:href="#DejaVuSans-20" transform="translate(399.560547 0)"/>
      <use xlink:href="#DejaVuSans-56" transform="translate(431.347656 0)"/>
      <use xlink:href="#DejaVuSans-20" transform="translate(499.755859 0)"/>
      <use xlink:href="#DejaVuSans-2f" transform="translate(531.542969 0)"/>
      <use xlink:href="#DejaVuSans-20" transform="translate(565.234375 0)"/>
      <use xlink:href="#DejaVuSans-28" transform="translate(597.021484 0)"/>
      <use xlink:href="#DejaVuSans-45" transform="translate(636.035156 0)"/>
      <use xlink:href="#DejaVuSans-20" transform="translate(699.21875 0)"/>
      <use xlink:href="#DejaVuSans-2b" transform="translate(731.005859 0)"/>
      <use xlink:href="#DejaVuSans-20" transform="translate(814.794922 0)"/>
      <use xlink:href="#DejaVuSans-66" transform="translate(846.582031 0)"/>
      <use xlink:href="#DejaVuSans-4b" transform="translate(881.787109 0)"/>
      <use xlink:href="#DejaVuSans-29" transform="translate(947.363281 0)"/>
     </g>
    </g>
   </g>
   <g id="matplotlib.axis_2">
    <g id="ytick_1">
     <g id="line2d_13">
      <path d="M 90 320.4 
L 648 320.4 
" clip-path="url(#p616e1bd1b9)" style="fill: none; stroke: #b0b0b0; stroke-width: 0.8; stroke-linecap: square"/>
     </g>
     <g id="line2d_14">
      <defs>
       <path id="m33b1f2cf3b" d="M 0 0 
L -3.5 0 
" style="stroke: #000000; stroke-width: 0.8"/>
      </defs>
      <g>
       <use xlink:href="#m33b1f2cf3b" x="90" y="320.4" style="stroke: #000000; stroke-width: 0.8"/>
      </g>
     </g>
     <g id="text_8">
      <!-- 0 -->
      <g transform="translate(76.6375 324.199219) scale(0.1 -0.1)">
       <use xlink:href="#DejaVuSans-30"/>
      </g>
     </g>
    </g>
    <g id="ytick_2">
     <g id="line2d_15">
      <path d="M 90 285.2 
L 648 285.2 
" clip-path="url(#p616e1bd1b9)" style="fill: none; stroke: #b0b0b0; stroke-width: 0.8; stroke-linecap: square"/>
     </g>
     <g id="line2d_16">
      <g>
       <use xlink:href="#m33b1f2cf3b" x="90" y="285.2" style="stroke: #000000; stroke-width: 0.8"/>
      </g>
     </g>
     <g id="text_9">
      <!-- 50 -->
      <g transform="translate(70.275 288.999219) scale(0.1 -0.1)">
       <defs>
        <path id="DejaVuSans-35" d="M 691 4666 
L 3169 4666 
L 3169 4134 
L 1269 4134 
L 1269 2991 
Q 1406 3038 1543 3061 
Q 1681 3084 1819 3084 
Q 2600 3084 3056 2656 
Q 3513 2228 3513 1497 
Q 3513 744 3044 326 
Q 2575 -91 1722 -91 
Q 1428 -91 1123 -41 
Q 819 9 494 109 
L 494 744 
Q 775 591 1075 516 
Q 1375 441 1709 441 
Q 2250 441 2565 725 
Q 2881 1009 2881 1497 
Q 2881 1984 2565 2268 
Q 2250 2553 1709 2553 
Q 1456 2553 1204 2497 
Q 953 2441 691 2322 
L 691 4666 
z
" transform="scale(0.015625)"/>
       </defs>
       <use xlink:href="#DejaVuSans-35"/>
       <use xlink:href="#DejaVuSans-30" transform="translate(63.623047 0)"/>
      </g>
     </g>
    </g>
    <g id="ytick_3">
     <g id="line2d_17">
      <path d="M 90 250 
L 648 250 
" clip-path="url(#p616e1bd1b9)" style="fill: none; stroke: #b0b0b0; stroke-width: 0.8; stroke-linecap: square"/>
     </g>
     <g id="line2d_18">
      <g>
       <use xlink:href="#m33b1f2cf3b" x="90" y="250" style="stroke: #000000; stroke-width: 0.8"/>
      </g>
     </g>
     <g id="text_10">
      <!-- 100 -->
      <g transform="translate(63.9125 253.799219) scale(0.1 -0.1)">
       <use xlink:href="#DejaVuSans-31"/>
       <use xlink:href="#DejaVuSans-30" transform="translate(63.623047 0)"/>
       <use xlink:href="#DejaVuSans-30" transform="translate(127.246094 0)"/>
      </g>
     </g>
    </g>
    <g id="ytick_4">
     <g id="line2d_19">
      <path d="M 90 214.8 
L 648 214.8 
" clip-path="url(#p616e1bd1b9)" style="fill: none; stroke: #b0b0b0; stroke-width: 0.8; stroke-linecap: square"/>
     </g>
     <g id="line2d_20">
      <g>
       <use xlink:href="#m33b1f2cf3b" x="90" y="214.8" style="stroke: #000000; stroke-width: 0.8"/>
      </g>
     </g>
     <g id="text_11">
      <!-- 150 -->
      <g transform="translate(63.9125 218.599219) scale(0.1 -0.1)">
       <use xlink:href="#DejaVuSans-31"/>
       <use xlink:href="#DejaVuSans-35" transform="translate(63.623047 0)"/>
       <use xlink:href="#DejaVuSans-30" transform="translate(127.246094 0)"/>
      </g>
     </g>
    </g>
    <g id="ytick_5">
     <g id="line2d_21">
      <path d="M 90 179.6 
L 648 179.6 
" clip-path="url(#p616e1bd1b9)" style="fill: none; stroke: #b0b0b0; stroke-width: 0.8; stroke-linecap: square"/>
     </g>
     <g id="line2d_22">
      <g>
       <use xlink:href="#m33b1f2cf3b" x="90" y="179.6" style="stroke: #000000; stroke-width: 0.8"/>
      </g>
     </g>
     <g id="text_12">
      <!-- 200 -->
      <g transform="translate(63.9125 183.399219) scale(0.1 -0.1)">
       <use xlink:href="#DejaVuSans-32"/>
       <use xlink:href="#DejaVuSans-30" transform="translate(63.623047 0)"/>
       <use xlink:href="#DejaVuSans-30" transform="translate(127.246094 0)"/>
      </g>
     </g>
    </g>
    <g id="ytick_6">
     <g id="line2d_23">
      <path d="M 90 144.4 
L 648 144.4 
" clip-path="url(#p616e1bd1b9)" style="fill: none; stroke: #b0b0b0; stroke-width: 0.8; stroke-linecap: square"/>
     </g>
     <g id="line2d_24">
      <g>
       <use xlink:href="#m33b1f2cf3b" x="90" y="144.4" style="stroke: #000000; stroke-width: 0.8"/>
      </g>
     </g>
     <g id="text_13">
      <!-- 250 -->
      <g transform="translate(63.9125 148.199219) scale(0.1 -0.1)">
       <use xlink:href="#DejaVuSans-32"/>
       <use xlink:href="#DejaVuSans-35" transform="translate(63.623047 0)"/>
       <use xlink:href="#DejaVuSans-30" transform="translate(127.246094 0)"/>
      </g>
     </g>
    </g>
    <g id="ytick_7">
     <g id="line2d_25">
      <path d="M 90 109.2 
L 648 109.2 
" clip-path="url(#p616e1bd1b9)" style="fill: none; stroke: #b0b0b0; stroke-width: 0.8; stroke-linecap: square"/>
     </g>
     <g id="line2d_26">
      <g>
       <use xlink:href="#m33b1f2cf3b" x="90" y="109.2" style="stroke: #000000; stroke-width: 0.8"/>
      </g>
     </g>
     <g id="text_14">
      <!-- 300 -->
      <g transform="translate(63.9125 112.999219) scale(0.1 -0.1)">
       <defs>
        <path id="DejaVuSans-33" d="M 2597 2516 
Q 3050 2419 3304 2112 
Q 3559 1806 3559 1356 
Q 3559 666 3084 287 
Q 2609 -91 1734 -91 
Q 1441 -91 1130 -33 
Q 819 25 488 141 
L 488 750 
Q 750 597 1062 519 
Q 1375 441 1716 441 
Q 2309 441 2620 675 
Q 2931 909 2931 1356 
Q 2931 1769 2642 2001 
Q 2353 2234 1838 2234 
L 1294 2234 
L 1294 2753 
L 1863 2753 
Q 2328 2753 2575 2939 
Q 2822 3125 2822 3475 
Q 2822 3834 2567 4026 
Q 2313 4219 1838 4219 
Q 1578 4219 1281 4162 
Q 984 4106 628 3988 
L 628 4550 
Q 988 4650 1302 4700 
Q 1616 4750 1894 4750 
Q 2613 4750 3031 4423 
Q 3450 4097 3450 3541 
Q 3450 3153 3228 2886 
Q 3006 2619 2597 2516 
z
" transform="scale(0.015625)"/>
       </defs>
       <use xlink:href="#DejaVuSans-33"/>
       <use xlink:href="#DejaVuSans-30" transform="translate(63.623047 0)"/>
       <use xlink:href="#DejaVuSans-30" transform="translate(127.246094 0)"/>
      </g>
     </g>
    </g>
    <g id="ytick_8">
     <g id="line2d_27">
      <path d="M 90 74 
L 648 74 
" clip-path="url(#p616e1bd1b9)" style="fill: none; stroke: #b0b0b0; stroke-width: 0.8; stroke-linecap: square"/>
     </g>
     <g id="line2d_28">
      <g>
       <use xlink:href="#m33b1f2cf3b" x="90" y="74" style="stroke: #000000; stroke-width: 0.8"/>
      </g>
     </g>
     <g id="text_15">
      <!-- 350 -->
      <g transform="translate(63.9125 77.799219) scale(0.1 -0.1)">
       <use xlink:href="#DejaVuSans-33"/>
       <use xlink:href="#DejaVuSans-35" transform="translate(63.623047 0)"/>
       <use xlink:href="#DejaVuSans-30" transform="translate(127.246094 0)"/>
      </g>
     </g>
    </g>
    <g id="text_16">
     <!-- Frecuencia acumulada -->
     <g transform="translate(57.832812 238) rotate(-90) scale(0.1 -0.1)">
      <defs>
       <path id="DejaVuSans-46" d="M 628 4666 
L 3309 4666 
L 3309 4134 
L 1259 4134 
L 1259 2759 
L 3109 2759 
L 3109 2228 
L 1259 2228 
L 1259 0 
L 628 0 
L 628 4666 
z
" transform="scale(0.015625)"/>
       <path id="DejaVuSans-72" d="M 2631 2963 
Q 2534 3019 2420 3045 
Q 2306 3072 2169 3072 
Q 1681 3072 1420 2755 
Q 1159 2438 1159 1844 
L 1159 0 
L 581 0 
L 581 3500 
L 1159 3500 
L 1159 2956 
Q 1341 3275 1631 3429 
Q 1922 3584 2338 3584 
Q 2397 3584 2469 3576 
Q 2541 3569 2628 3553 
L 2631 2963 
z
" transform="scale(0.015625)"/>
       <path id="DejaVuSans-63" d="M 3122 3366 
L 3122 2828 
Q 2878 2963 2633 3030 
Q 2388 3097 2138 3097 
Q 1578 3097 1268 2742 
Q 959 2388 959 1747 
Q 959 1106 1268 751 
Q 1578 397 2138 397 
Q 2388 397 2633 464 
Q 2878 531 3122 666 
L 3122 134 
Q 2881 22 2623 -34 
Q 2366 -91 2075 -91 
Q 1284 -91 818 406 
Q 353 903 353 1747 
Q 353 2603 823 3093 
Q 1294 3584 2113 3584 
Q 2378 3584 2631 3529 
Q 2884 3475 3122 3366 
z
" transform="scale(0.015625)"/>
       <path id="DejaVuSans-75" d="M 544 1381 
L 544 3500 
L 1119 3500 
L 1119 1403 
Q 1119 906 1312 657 
Q 1506 409 1894 409 
Q 2359 409 2629 706 
Q 2900 1003 2900 1516 
L 2900 3500 
L 3475 3500 
L 3475 0 
L 2900 0 
L 2900 538 
Q 2691 219 2414 64 
Q 2138 -91 1772 -91 
Q 1169 -91 856 284 
Q 544 659 544 1381 
z
M 1991 3584 
L 1991 3584 
z
" transform="scale(0.015625)"/>
       <path id="DejaVuSans-69" d="M 603 3500 
L 1178 3500 
L 1178 0 
L 603 0 
L 603 3500 
z
M 603 4863 
L 1178 4863 
L 1178 4134 
L 603 4134 
L 603 4863 
z
" transform="scale(0.015625)"/>
       <path id="DejaVuSans-61" d="M 2194 1759 
Q 1497 1759 1228 1600 
Q 959 1441 959 1056 
Q 959 750 1161 570 
Q 1363 391 1709 391 
Q 2188 391 2477 730 
Q 2766 1069 2766 1631 
L 2766 1759 
L 2194 1759 
z
M 3341 1997 
L 3341 0 
L 2766 0 
L 2766 531 
Q 2569 213 2275 61 
Q 1981 -91 1556 -91 
Q 1019 -91 701 211 
Q 384 513 384 1019 
Q 384 1609 779 1909 
Q 1175 2209 1959 2209 
L 2766 2209 
L 2766 2266 
Q 2766 2663 2505 2880 
Q 2244 3097 1772 3097 
Q 1472 3097 1187 3025 
Q 903 2953 641 2809 
L 641 3341 
Q 956 3463 1253 3523 
Q 1550 3584 1831 3584 
Q 2591 3584 2966 3190 
Q 3341 2797 3341 1997 
z
" transform="scale(0.015625)"/>
       <path id="DejaVuSans-6d" d="M 3328 2828 
Q 3544 3216 3844 3400 
Q 4144 3584 4550 3584 
Q 5097 3584 5394 3201 
Q 5691 2819 5691 2113 
L 5691 0 
L 5113 0 
L 5113 2094 
Q 5113 2597 4934 2840 
Q 4756 3084 4391 3084 
Q 3944 3084 3684 2787 
Q 3425 2491 3425 1978 
L 3425 0 
L 2847 0 
L 2847 2094 
Q 2847 2600 2669 2842 
Q 2491 3084 2119 3084 
Q 1678 3084 1418 2786 
Q 1159 2488 1159 1978 
L 1159 0 
L 581 0 
L 581 3500 
L 1159 3500 
L 1159 2956 
Q 1356 3278 1631 3431 
Q 1906 3584 2284 3584 
Q 2666 3584 2933 3390 
Q 3200 3197 3328 2828 
z
" transform="scale(0.015625)"/>
       <path id="DejaVuSans-6c" d="M 603 4863 
L 1178 4863 
L 1178 0 
L 603 0 
L 603 4863 
z
" transform="scale(0.015625)"/>
       <path id="DejaVuSans-64" d="M 2906 2969 
L 2906 4863 
L 3481 4863 
L 3481 0 
L 2906 0 
L 2906 525 
Q 2725 213 2448 61 
Q 2172 -91 1784 -91 
Q 1150 -91 751 415 
Q 353 922 353 1747 
Q 353 2572 751 3078 
Q 1150 3584 1784 3584 
Q 2172 3584 2448 3432 
Q 2725 3281 2906 2969 
z
M 947 1747 
Q 947 1113 1208 752 
Q 1469 391 1925 391 
Q 2381 391 2643 752 
Q 2906 1113 2906 1747 
Q 2906 2381 2643 2742 
Q 2381 3103 1925 3103 
Q 1469 3103 1208 2742 
Q 947 2381 947 1747 
z
" transform="scale(0.015625)"/>
      </defs>
      <use xlink:href="#DejaVuSans-46"/>
      <use xlink:href="#DejaVuSans-72" transform="translate(50.269531 0)"/>
      <use xlink:href="#DejaVuSans-65" transform="translate(89.132812 0)"/>
      <use xlink:href="#DejaVuSans-63" transform="translate(150.65625 0)"/>
      <use xlink:href="#DejaVuSans-75" transform="translate(205.636719 0)"/>
      <use xlink:href="#DejaVuSans-65" transform="translate(269.015625 0)"/>
      <use xlink:href="#DejaVuSans-6e" transform="translate(330.539062 0)"/>
      <use xlink:href="#DejaVuSans-63" transform="translate(393.917969 0)"/>
      <use xlink:href="#DejaVuSans-69" transform="translate(448.898438 0)"/>
      <use xlink:href="#DejaVuSans-61" transform="translate(476.681641 0)"/>
      <use xlink:href="#DejaVuSans-20" transform="translate(537.960938 0)"/>
      <use xlink:href="#DejaVuSans-61" transform="translate(569.748047 0)"/>
      <use xlink:href="#DejaVuSans-63" transform="translate(631.027344 0)"/>
      <use xlink:href="#DejaVuSans-75" transform="translate(686.007812 0)"/>
      <use xlink:href="#DejaVuSans-6d" transform="translate(749.386719 0)"/>
      <use xlink:href="#DejaVuSans-75" transform="translate(846.798828 0)"/>
      <use xlink:href="#DejaVuSans-6c" transform="translate(910.177734 0)"/>
      <use xlink:href="#DejaVuSans-61" transform="translate(937.960938 0)"/>
      <use xlink:href="#DejaVuSans-64" transform="translate(999.240234 0)"/>
      <use xlink:href="#DejaVuSans-61" transform="translate(1062.716797 0)"/>
     </g>
    </g>
   </g>
   <g id="patch_253">
    <path d="M 90 320.4 
L 90 43.2 
" style="fill: none; stroke: #000000; stroke-width: 0.8; stroke-linejoin: miter; stroke-linecap: square"/>
   </g>
   <g id="patch_254">
    <path d="M 648 320.4 
L 648 43.2 
" style="fill: none; stroke: #000000; stroke-width: 0.8; stroke-linejoin: miter; stroke-linecap: square"/>
   </g>
   <g id="patch_255">
    <path d="M 90 320.4 
L 648 320.4 
" style="fill: none; stroke: #000000; stroke-width: 0.8; stroke-linejoin: miter; stroke-linecap: square"/>
   </g>
   <g id="patch_256">
    <path d="M 90 43.2 
L 648 43.2 
" style="fill: none; stroke: #000000; stroke-width: 0.8; stroke-linejoin: miter; stroke-linecap: square"/>
   </g>
   <g id="text_17">
    <!-- Densidad acumulada de intervalos f vlidos -->
    <g transform="translate(237.555937 37.2) scale(0.12 -0.12)">
     <defs>
      <path id="DejaVuSans-44" d="M 1259 4147 
L 1259 519 
L 2022 519 
Q 2988 519 3436 956 
Q 3884 1394 3884 2338 
Q 3884 3275 3436 3711 
Q 2988 4147 2022 4147 
L 1259 4147 
z
M 628 4666 
L 1925 4666 
Q 3281 4666 3915 4102 
Q 4550 3538 4550 2338 
Q 4550 1131 3912 565 
Q 3275 0 1925 0 
L 628 0 
L 628 4666 
z
" transform="scale(0.015625)"/>
      <path id="DejaVuSans-73" d="M 2834 3397 
L 2834 2853 
Q 2591 2978 2328 3040 
Q 2066 3103 1784 3103 
Q 1356 3103 1142 2972 
Q 928 2841 928 2578 
Q 928 2378 1081 2264 
Q 1234 2150 1697 2047 
L 1894 2003 
Q 2506 1872 2764 1633 
Q 3022 1394 3022 966 
Q 3022 478 2636 193 
Q 2250 -91 1575 -91 
Q 1294 -91 989 -36 
Q 684 19 347 128 
L 347 722 
Q 666 556 975 473 
Q 1284 391 1588 391 
Q 1994 391 2212 530 
Q 2431 669 2431 922 
Q 2431 1156 2273 1281 
Q 2116 1406 1581 1522 
L 1381 1569 
Q 847 1681 609 1914 
Q 372 2147 372 2553 
Q 372 3047 722 3315 
Q 1072 3584 1716 3584 
Q 2034 3584 2315 3537 
Q 2597 3491 2834 3397 
z
" transform="scale(0.015625)"/>
      <path id="DejaVuSans-74" d="M 1172 4494 
L 1172 3500 
L 2356 3500 
L 2356 3053 
L 1172 3053 
L 1172 1153 
Q 1172 725 1289 603 
Q 1406 481 1766 481 
L 2356 481 
L 2356 0 
L 1766 0 
Q 1100 0 847 248 
Q 594 497 594 1153 
L 594 3053 
L 172 3053 
L 172 3500 
L 594 3500 
L 594 4494 
L 1172 4494 
z
" transform="scale(0.015625)"/>
      <path id="DejaVuSans-76" d="M 191 3500 
L 800 3500 
L 1894 563 
L 2988 3500 
L 3597 3500 
L 2284 0 
L 1503 0 
L 191 3500 
z
" transform="scale(0.015625)"/>
      <path id="DejaVuSans-6f" d="M 1959 3097 
Q 1497 3097 1228 2736 
Q 959 2375 959 1747 
Q 959 1119 1226 758 
Q 1494 397 1959 397 
Q 2419 397 2687 759 
Q 2956 1122 2956 1747 
Q 2956 2369 2687 2733 
Q 2419 3097 1959 3097 
z
M 1959 3584 
Q 2709 3584 3137 3096 
Q 3566 2609 3566 1747 
Q 3566 888 3137 398 
Q 2709 -91 1959 -91 
Q 1206 -91 779 398 
Q 353 888 353 1747 
Q 353 2609 779 3096 
Q 1206 3584 1959 3584 
z
" transform="scale(0.015625)"/>
      <path id="DejaVuSans-e1" d="M 2194 1759 
Q 1497 1759 1228 1600 
Q 959 1441 959 1056 
Q 959 750 1161 570 
Q 1363 391 1709 391 
Q 2188 391 2477 730 
Q 2766 1069 2766 1631 
L 2766 1759 
L 2194 1759 
z
M 3341 1997 
L 3341 0 
L 2766 0 
L 2766 531 
Q 2569 213 2275 61 
Q 1981 -91 1556 -91 
Q 1019 -91 701 211 
Q 384 513 384 1019 
Q 384 1609 779 1909 
Q 1175 2209 1959 2209 
L 2766 2209 
L 2766 2266 
Q 2766 2663 2505 2880 
Q 2244 3097 1772 3097 
Q 1472 3097 1187 3025 
Q 903 2953 641 2809 
L 641 3341 
Q 956 3463 1253 3523 
Q 1550 3584 1831 3584 
Q 2591 3584 2966 3190 
Q 3341 2797 3341 1997 
z
M 2290 5119 
L 2912 5119 
L 1894 3944 
L 1415 3944 
L 2290 5119 
z
" transform="scale(0.015625)"/>
     </defs>
     <use xlink:href="#DejaVuSans-44"/>
     <use xlink:href="#DejaVuSans-65" transform="translate(77.001953 0)"/>
     <use xlink:href="#DejaVuSans-6e" transform="translate(138.525391 0)"/>
     <use xlink:href="#DejaVuSans-73" transform="translate(201.904297 0)"/>
     <use xlink:href="#DejaVuSans-69" transform="translate(254.003906 0)"/>
     <use xlink:href="#DejaVuSans-64" transform="translate(281.787109 0)"/>
     <use xlink:href="#DejaVuSans-61" transform="translate(345.263672 0)"/>
     <use xlink:href="#DejaVuSans-64" transform="translate(406.542969 0)"/>
     <use xlink:href="#DejaVuSans-20" transform="translate(470.019531 0)"/>
     <use xlink:href="#DejaVuSans-61" transform="translate(501.806641 0)"/>
     <use xlink:href="#DejaVuSans-63" transform="translate(563.085938 0)"/>
     <use xlink:href="#DejaVuSans-75" transform="translate(618.066406 0)"/>
     <use xlink:href="#DejaVuSans-6d" transform="translate(681.445312 0)"/>
     <use xlink:href="#DejaVuSans-75" transform="translate(778.857422 0)"/>
     <use xlink:href="#DejaVuSans-6c" transform="translate(842.236328 0)"/>
     <use xlink:href="#DejaVuSans-61" transform="translate(870.019531 0)"/>
     <use xlink:href="#DejaVuSans-64" transform="translate(931.298828 0)"/>
     <use xlink:href="#DejaVuSans-61" transform="translate(994.775391 0)"/>
     <use xlink:href="#DejaVuSans-20" transform="translate(1056.054688 0)"/>
     <use xlink:href="#DejaVuSans-64" transform="translate(1087.841797 0)"/>
     <use xlink:href="#DejaVuSans-65" transform="translate(1151.318359 0)"/>
     <use xlink:href="#DejaVuSans-20" transform="translate(1212.841797 0)"/>
     <use xlink:href="#DejaVuSans-69" transform="translate(1244.628906 0)"/>
     <use xlink:href="#DejaVuSans-6e" transform="translate(1272.412109 0)"/>
     <use xlink:href="#DejaVuSans-74" transform="translate(1335.791016 0)"/>
     <use xlink:href="#DejaVuSans-65" transform="translate(1375 0)"/>
     <use xlink:href="#DejaVuSans-72" transform="translate(1436.523438 0)"/>
     <use xlink:href="#DejaVuSans-76" transform="translate(1477.636719 0)"/>
     <use xlink:href="#DejaVuSans-61" transform="translate(1536.816406 0)"/>
     <use xlink:href="#DejaVuSans-6c" transform="translate(1598.095703 0)"/>
     <use xlink:href="#DejaVuSans-6f" transform="translate(1625.878906 0)"/>
     <use xlink:href="#DejaVuSans-73" transform="translate(1687.060547 0)"/>
     <use xlink:href="#DejaVuSans-20" transform="translate(1739.160156 0)"/>
     <use xlink:href="#DejaVuSans-66" transform="translate(1770.947266 0)"/>
     <use xlink:href="#DejaVuSans-20" transform="translate(1806.152344 0)"/>
     <use xlink:href="#DejaVuSans-76" transform="translate(1837.939453 0)"/>
     <use xlink:href="#DejaVuSans-e1" transform="translate(1897.119141 0)"/>
     <use xlink:href="#DejaVuSans-6c" transform="translate(1958.398438 0)"/>
     <use xlink:href="#DejaVuSans-69" transform="translate(1986.181641 0)"/>
     <use xlink:href="#DejaVuSans-64" transform="translate(2013.964844 0)"/>
     <use xlink:href="#DejaVuSans-6f" transform="translate(2077.441406 0)"/>
     <use xlink:href="#DejaVuSans-73" transform="translate(2138.623047 0)"/>
    </g>
   </g>
  </g>
 </g>
 <defs>
  <clipPath id="p616e1bd1b9">
   <rect x="90" y="43.2" width="558" height="277.2"/>
  </clipPath>
 </defs>
</svg>
