<?xml version="1.0" encoding="UTF-8"?>
<svg width="660" height="140" xmlns="http://www.w3.org/2000/svg">
<rect x="20" y="50" width="600" height="40" fill="transparent" stroke="#808080" stroke-width="4" /><rect x="20" y="50" width="100.0" height="40" fill="#4F81BD" stroke="#325886" stroke-width="4" /><rect x="120.0" y="50" width="100.0" height="40" fill="#4F81BD" stroke="#325886" stroke-width="4" /><rect x="220.0" y="50" width="100.0" height="40" fill="#4F81BD" stroke="#325886" stroke-width="4" /><rect x="320.0" y="50" width="100.0" height="40" fill="#4F81BD" stroke="#325886" stroke-width="4" /><rect x="420.0" y="50" width="100.0" height="40" fill="#4F81BD" stroke="#325886" stroke-width="4" /><rect x="520.0" y="50" width="40.0" height="40" fill="#F3A322" stroke="#b5730a" stroke-width="4" /><path d="M 120.0 50 L 120.0 85.0 140.0 120" fill="none" stroke="#000000" stroke-width="1" />
<text x="140.0" y="120" text-anchor="start" dominant-baseline="hanging" font-size="14" font-family="sans-serif" fill="black">
  Precio de corte (120)
</text>
    <path d="M 540.0 70.0 L 540.0 95.0 520.0 120" fill="none" stroke="#000000" stroke-width="1" />
<text x="520.0" y="120" text-anchor="end" dominant-baseline="hanging" font-size="14" font-family="sans-serif" fill="black">
  Restos (48)
</text>
    
<text x="20" y="25" text-anchor="start" dominant-baseline="text-after-edge" font-size="14" font-family="sans-serif" fill="black">
  Votos a la candidatura (648)
</text>
    <path d="M 20.0 90 L 20.0 92.5 20.0 95" fill="none" stroke="#000000" stroke-width="1" />
<text x="20.0" y="95" text-anchor="middle" dominant-baseline="hanging" font-size="14" font-family="sans-serif" fill="black">
  0
</text>
    <path d="M 20.0 50 L 20.0 47.5 20.0 45" fill="none" stroke="#000000" stroke-width="1" />
<text x="20.0" y="45" text-anchor="middle" dominant-baseline="text-after-edge" font-size="14" font-family="sans-serif" fill="black">
  0
</text>
    <path d="M 120.0 90 L 120.0 92.5 120.0 95" fill="none" stroke="#000000" stroke-width="1" />
<text x="120.0" y="95" text-anchor="middle" dominant-baseline="hanging" font-size="14" font-family="sans-serif" fill="black">
  1
</text>
    <path d="M 120.0 50 L 120.0 47.5 120.0 45" fill="none" stroke="#000000" stroke-width="1" />
<text x="120.0" y="45" text-anchor="middle" dominant-baseline="text-after-edge" font-size="14" font-family="sans-serif" fill="black">
  120
</text>
    <path d="M 220.0 90 L 220.0 92.5 220.0 95" fill="none" stroke="#000000" stroke-width="1" />
<text x="220.0" y="95" text-anchor="middle" dominant-baseline="hanging" font-size="14" font-family="sans-serif" fill="black">
  2
</text>
    <path d="M 220.0 50 L 220.0 47.5 220.0 45" fill="none" stroke="#000000" stroke-width="1" />
<text x="220.0" y="45" text-anchor="middle" dominant-baseline="text-after-edge" font-size="14" font-family="sans-serif" fill="black">
  240
</text>
    <path d="M 320.0 90 L 320.0 92.5 320.0 95" fill="none" stroke="#000000" stroke-width="1" />
<text x="320.0" y="95" text-anchor="middle" dominant-baseline="hanging" font-size="14" font-family="sans-serif" fill="black">
  3
</text>
    <path d="M 320.0 50 L 320.0 47.5 320.0 45" fill="none" stroke="#000000" stroke-width="1" />
<text x="320.0" y="45" text-anchor="middle" dominant-baseline="text-after-edge" font-size="14" font-family="sans-serif" fill="black">
  360
</text>
    <path d="M 420.0 90 L 420.0 92.5 420.0 95" fill="none" stroke="#000000" stroke-width="1" />
<text x="420.0" y="95" text-anchor="middle" dominant-baseline="hanging" font-size="14" font-family="sans-serif" fill="black">
  4
</text>
    <path d="M 420.0 50 L 420.0 47.5 420.0 45" fill="none" stroke="#000000" stroke-width="1" />
<text x="420.0" y="45" text-anchor="middle" dominant-baseline="text-after-edge" font-size="14" font-family="sans-serif" fill="black">
  480
</text>
    <path d="M 520.0 90 L 520.0 92.5 520.0 95" fill="none" stroke="#000000" stroke-width="1" />
<text x="520.0" y="95" text-anchor="middle" dominant-baseline="hanging" font-size="14" font-family="sans-serif" fill="black">
  5
</text>
    <path d="M 520.0 50 L 520.0 47.5 520.0 45" fill="none" stroke="#000000" stroke-width="1" />
<text x="520.0" y="45" text-anchor="middle" dominant-baseline="text-after-edge" font-size="14" font-family="sans-serif" fill="black">
  600
</text>
    <path d="M 620.0 90 L 620.0 92.5 620.0 95" fill="none" stroke="#000000" stroke-width="1" />
<text x="620.0" y="95" text-anchor="middle" dominant-baseline="hanging" font-size="14" font-family="sans-serif" fill="black">
  6
</text>
    <path d="M 620.0 50 L 620.0 47.5 620.0 45" fill="none" stroke="#000000" stroke-width="1" />
<text x="620.0" y="45" text-anchor="middle" dominant-baseline="text-after-edge" font-size="14" font-family="sans-serif" fill="black">
  720
</text>
    
<text x="20" y="110" text-anchor="start" dominant-baseline="hanging" font-size="14" font-family="sans-serif" fill="black">
  Escaños (5)
</text>
    </svg>