<?xml version="1.0" encoding="utf-8" ?>
<svg baseProfile="full" height="200.0" version="1.1" width="600" xmlns="http://www.w3.org/2000/svg" xmlns:ev="http://www.w3.org/2001/xml-events" xmlns:xlink="http://www.w3.org/1999/xlink"><defs><clipPath id="plot_area_clip"><rect height="100.0" width="500" x="50" y="50" /></clipPath></defs><line stroke="black" x1="50" x2="550" y1="150.0" y2="150.0" /><line stroke="black" x1="550" x2="550" y1="150.0" y2="50" /><line stroke="black" x1="50" x2="50" y1="150.0" y2="50" /><text font-size="10px" text-anchor="middle" x="50.0" y="165.0">0%</text><text font-size="10px" text-anchor="middle" x="100.0" y="165.0">10%</text><text font-size="10px" text-anchor="middle" x="150.0" y="165.0">20%</text><text font-size="10px" text-anchor="middle" x="200.0" y="165.0">30%</text><text font-size="10px" text-anchor="middle" x="250.0" y="165.0">40%</text><text font-size="10px" text-anchor="middle" x="300.0" y="165.0">50%</text><text font-size="10px" text-anchor="middle" x="350.0" y="165.0">60%</text><text font-size="10px" text-anchor="middle" x="400.0" y="165.0">70%</text><text font-size="10px" text-anchor="middle" x="450.0" y="165.0">80%</text><text font-size="10px" text-anchor="middle" x="500.0" y="165.0">90%</text><text font-size="10px" text-anchor="middle" x="550.0" y="165.0">100%</text><rect fill="#484" height="100.0" stroke="#444" stroke-width="2px" width="65.21739130434781" x="50.0" y="50" /><text fill="#fff" font-size="10px" text-anchor="middle" x="82.6086956521739" y="76.0">Ea=0</text><text fill="#fff" font-size="10px" text-anchor="middle" x="82.6086956521739" y="88.0">Eb=4</text><text fill="#fff" font-size="10px" text-anchor="middle" x="82.6086956521739" y="100.0" /><text fill="#fff" font-size="10px" text-anchor="middle" x="82.6086956521739" y="112.0">Ea+Eb=4</text><rect fill="#484" height="100.0" stroke="#444" stroke-width="2px" width="65.21739130434781" x="158.69565217391306" y="50" /><text fill="#fff" font-size="10px" text-anchor="middle" x="191.30434782608694" y="76.0">Ea=1</text><text fill="#fff" font-size="10px" text-anchor="middle" x="191.30434782608694" y="88.0">Eb=3</text><text fill="#fff" font-size="10px" text-anchor="middle" x="191.30434782608694" y="100.0" /><text fill="#fff" font-size="10px" text-anchor="middle" x="191.30434782608694" y="112.0">Ea+Eb=4</text><rect fill="#484" height="100.0" stroke="#444" stroke-width="2px" width="65.21739130434781" x="267.3913043478261" y="50" /><text fill="#fff" font-size="10px" text-anchor="middle" x="300.0" y="76.0">Ea=2</text><text fill="#fff" font-size="10px" text-anchor="middle" x="300.0" y="88.0">Eb=2</text><text fill="#fff" font-size="10px" text-anchor="middle" x="300.0" y="100.0" /><text fill="#fff" font-size="10px" text-anchor="middle" x="300.0" y="112.0">Ea+Eb=4</text><rect fill="#484" height="100.0" stroke="#444" stroke-width="2px" width="65.21739130434781" x="376.0869565217391" y="50" /><text fill="#fff" font-size="10px" text-anchor="middle" x="408.695652173913" y="76.0">Ea=3</text><text fill="#fff" font-size="10px" text-anchor="middle" x="408.695652173913" y="88.0">Eb=1</text><text fill="#fff" font-size="10px" text-anchor="middle" x="408.695652173913" y="100.0" /><text fill="#fff" font-size="10px" text-anchor="middle" x="408.695652173913" y="112.0">Ea+Eb=4</text><rect fill="#484" height="100.0" stroke="#444" stroke-width="2px" width="65.21739130434781" x="484.7826086956522" y="50" /><text fill="#fff" font-size="10px" text-anchor="middle" x="517.3913043478261" y="76.0">Ea=4</text><text fill="#fff" font-size="10px" text-anchor="middle" x="517.3913043478261" y="88.0">Eb=0</text><text fill="#fff" font-size="10px" text-anchor="middle" x="517.3913043478261" y="100.0" /><text fill="#fff" font-size="10px" text-anchor="middle" x="517.3913043478261" y="112.0">Ea+Eb=4</text><rect fill="#e77" height="100.0" stroke="#444" stroke-width="2px" width="43.47826086956523" x="115.21739130434781" y="50" /><text fill="#fff" font-size="10px" text-anchor="middle" x="136.95652173913044" y="76.0">Ea=0</text><text fill="#fff" font-size="10px" text-anchor="middle" x="136.95652173913044" y="88.0">Eb=3</text><text fill="#fff" font-size="10px" text-anchor="middle" x="136.95652173913044" y="100.0" /><text fill="#fff" font-size="10px" text-anchor="middle" x="136.95652173913044" y="112.0">Ea+Eb=3</text><rect fill="#e77" height="100.0" stroke="#444" stroke-width="2px" width="43.47826086956523" x="223.91304347826087" y="50" /><text fill="#fff" font-size="10px" text-anchor="middle" x="245.6521739130435" y="76.0">Ea=1</text><text fill="#fff" font-size="10px" text-anchor="middle" x="245.6521739130435" y="88.0">Eb=2</text><text fill="#fff" font-size="10px" text-anchor="middle" x="245.6521739130435" y="100.0" /><text fill="#fff" font-size="10px" text-anchor="middle" x="245.6521739130435" y="112.0">Ea+Eb=3</text><rect fill="#e77" height="100.0" stroke="#444" stroke-width="2px" width="43.47826086956523" x="332.6086956521739" y="50" /><text fill="#fff" font-size="10px" text-anchor="middle" x="354.34782608695656" y="76.0">Ea=2</text><text fill="#fff" font-size="10px" text-anchor="middle" x="354.34782608695656" y="88.0">Eb=1</text><text fill="#fff" font-size="10px" text-anchor="middle" x="354.34782608695656" y="100.0" /><text fill="#fff" font-size="10px" text-anchor="middle" x="354.34782608695656" y="112.0">Ea+Eb=3</text><rect fill="#e77" height="100.0" stroke="#444" stroke-width="2px" width="43.47826086956523" x="441.304347826087" y="50" /><text fill="#fff" font-size="10px" text-anchor="middle" x="463.0434782608695" y="76.0">Ea=3</text><text fill="#fff" font-size="10px" text-anchor="middle" x="463.0434782608695" y="88.0">Eb=0</text><text fill="#fff" font-size="10px" text-anchor="middle" x="463.0434782608695" y="100.0" /><text fill="#fff" font-size="10px" text-anchor="middle" x="463.0434782608695" y="112.0">Ea+Eb=3</text><text font-size="12px" text-anchor="middle" x="300" y="195.0">Concentración del voto A-B en A (%)</text><text font-size="12px" text-anchor="middle" transform="rotate(-90, 10, 100.0)" x="10" y="100.0" /><text font-size="14px" font-weight="bold" text-anchor="middle" x="300" y="25">Resultados a lo largo de espacio de trasvases</text></svg>