<?xml version="1.0" encoding="utf-8" ?>
<svg baseProfile="full" height="350.0" version="1.1" width="600" xmlns="http://www.w3.org/2000/svg" xmlns:ev="http://www.w3.org/2001/xml-events" xmlns:xlink="http://www.w3.org/1999/xlink"><defs><clipPath id="plot_area_clip"><rect height="250.0" width="500" x="50" y="50" /></clipPath></defs><line stroke="black" x1="50" x2="550" y1="300.0" y2="300.0" /><line stroke="black" x1="550" x2="550" y1="300.0" y2="50" /><line stroke="black" x1="50" x2="50" y1="300.0" y2="50" /><text font-size="10px" text-anchor="middle" x="50.0" y="315.0">0%</text><text font-size="10px" text-anchor="middle" x="100.0" y="315.0">10%</text><text font-size="10px" text-anchor="middle" x="150.0" y="315.0">20%</text><text font-size="10px" text-anchor="middle" x="200.0" y="315.0">30%</text><text font-size="10px" text-anchor="middle" x="250.0" y="315.0">40%</text><text font-size="10px" text-anchor="middle" x="300.0" y="315.0">50%</text><text font-size="10px" text-anchor="middle" x="350.0" y="315.0">60%</text><text font-size="10px" text-anchor="middle" x="400.0" y="315.0">70%</text><text font-size="10px" text-anchor="middle" x="450.0" y="315.0">80%</text><text font-size="10px" text-anchor="middle" x="500.0" y="315.0">90%</text><text font-size="10px" text-anchor="middle" x="550.0" y="315.0">100%</text><line stroke="#ccc" stroke-dasharray="4,2" x1="50.0" x2="550.0" y1="-750.0000000000002" y2="-750.0000000000002" /><text fill="#666" font-size="10px" text-anchor="end" x="40.0" y="-746.0000000000002">Vab/1</text><line stroke="#ccc" stroke-dasharray="4,2" x1="50.0" x2="550.0" y1="-150.0000000000001" y2="-150.0000000000001" /><text fill="#666" font-size="10px" text-anchor="end" x="40.0" y="-146.0000000000001">Vab/2</text><line stroke="#ccc" stroke-dasharray="4,2" x1="50.0" x2="550.0" y1="49.999999999999886" y2="49.999999999999886" /><text fill="#666" font-size="10px" text-anchor="end" x="40.0" y="53.999999999999886">Vab/3</text><line stroke="#ccc" stroke-dasharray="4,2" x1="50.0" x2="550.0" y1="149.99999999999997" y2="149.99999999999997" /><text fill="#666" font-size="10px" text-anchor="end" x="40.0" y="153.99999999999997">Vab/4</text><line stroke="#ccc" stroke-dasharray="4,2" x1="50.0" x2="550.0" y1="209.99999999999997" y2="209.99999999999997" /><text fill="#666" font-size="10px" text-anchor="end" x="40.0" y="213.99999999999997">Vab/5</text><line stroke="#ccc" stroke-dasharray="4,2" x1="50.0" x2="550.0" y1="249.99999999999997" y2="249.99999999999997" /><text fill="#666" font-size="10px" text-anchor="end" x="40.0" y="253.99999999999997">Vab/6</text><line stroke="#ccc" stroke-dasharray="4,2" x1="50.0" x2="550.0" y1="278.57142857142856" y2="278.57142857142856" /><text fill="#666" font-size="10px" text-anchor="end" x="40.0" y="282.57142857142856">Vab/7</text><line stroke="#ccc" stroke-dasharray="4,2" x1="50.0" x2="550.0" y1="300.0" y2="300.0" /><text fill="#666" font-size="10px" text-anchor="end" x="40.0" y="304.0">Vab/8</text><g clip-path="url(#plot_area_clip)"><polyline fill="none" points="50.0,149.99999999999997 150.0,209.99999999999997 175.0,149.99999999999997 250.0,209.99999999999997 300.0,149.99999999999997 350.0,209.99999999999997 425.0,149.99999999999997 450.0,209.99999999999997 550.0,149.99999999999997" stroke="green" stroke-width="5" /></g><g clip-path="url(#plot_area_clip)"><polyline fill="none" points="50.0,149.99999999999997 150.0,209.99999999999997 175.0,149.99999999999997 250.0,209.99999999999997 300.0,149.99999999999997 350.0,209.99999999999997 425.0,149.99999999999997 450.0,209.99999999999997 550.0,149.99999999999997" stroke="white" stroke-width="2" /></g><g clip-path="url(#plot_area_clip)"><polyline fill="none" points="50.0,450.0 550.0,-750.0000000000002" stroke="blue" stroke-dasharray="6,4" stroke-width="2" /></g><text fill="blue" font-size="10px" font-weight="normal" text-anchor="end" x="211.66666666666663" y="50.0">Va/1</text><g clip-path="url(#plot_area_clip)"><polyline fill="none" points="50.0,450.0 550.0,-150.0000000000001" stroke="blue" stroke-dasharray="6,4" stroke-width="2" /></g><text fill="blue" font-size="10px" font-weight="normal" text-anchor="end" x="378.33333333333326" y="50.0">Va/2</text><g clip-path="url(#plot_area_clip)"><polyline fill="none" points="50.0,450.0 550.0,49.999999999999886" stroke="blue" stroke-dasharray="6,4" stroke-width="2" /></g><text fill="blue" font-size="10px" font-weight="normal" text-anchor="end" x="544.9999999999998" y="50.0">Va/3</text><g clip-path="url(#plot_area_clip)"><polyline fill="none" points="50.0,450.0 550.0,149.99999999999997" stroke="blue" stroke-dasharray="6,4" stroke-width="2" /></g><text fill="blue" font-size="10px" font-weight="normal" text-anchor="end" x="545.0" y="149.99999999999997">Va/4</text><g clip-path="url(#plot_area_clip)"><polyline fill="none" points="50.0,-750.0000000000002 550.0,450.0" stroke="red" stroke-dasharray="6,4" stroke-width="2" /></g><text fill="red" font-size="10px" font-weight="normal" text-anchor="start" x="388.33333333333337" y="50.0">Vb/1</text><g clip-path="url(#plot_area_clip)"><polyline fill="none" points="50.0,-150.0000000000001 550.0,450.0" stroke="red" stroke-dasharray="6,4" stroke-width="2" /></g><text fill="red" font-size="10px" font-weight="normal" text-anchor="start" x="221.6666666666667" y="50.0">Vb/2</text><g clip-path="url(#plot_area_clip)"><polyline fill="none" points="50.0,49.999999999999886 550.0,450.0" stroke="red" stroke-dasharray="6,4" stroke-width="2" /></g><text fill="red" font-size="10px" font-weight="normal" text-anchor="start" x="55.00000000000014" y="50.0">Vb/3</text><g clip-path="url(#plot_area_clip)"><polyline fill="none" points="50.0,149.99999999999997 550.0,450.0" stroke="red" stroke-dasharray="6,4" stroke-width="2" /></g><text fill="red" font-size="10px" font-weight="normal" text-anchor="start" x="55.0" y="149.99999999999997">Vb/4</text><g clip-path="url(#plot_area_clip)"><polyline fill="none" points="50.0,149.99999999999997 550.0,149.99999999999997" stroke="purple" stroke-dasharray="6,4" stroke-width="2" /></g><g clip-path="url(#plot_area_clip)"><polyline fill="none" points="50.0,209.99999999999997 550.0,209.99999999999997" stroke="orange" stroke-dasharray="6,4" stroke-width="2" /></g><text fill="purple" font-size="10px" font-weight="normal" text-anchor="start" x="555.0" y="149.99999999999997">Pmax</text><text fill="orange" font-size="10px" font-weight="normal" text-anchor="start" x="555.0" y="209.99999999999997">Pmin</text><text fill="green" font-size="10px" font-weight="bold" text-anchor="end" x="545.0" y="164.99999999999997">P</text><text font-size="12px" text-anchor="middle" x="300" y="345.0">Concentración del voto A-B en A (%)</text><text font-size="12px" text-anchor="middle" transform="rotate(-90, 10, 175.0)" x="10" y="175.0">Votos</text><text font-size="14px" font-weight="bold" text-anchor="middle" x="300" y="25">Variación del precio en el espacio de transferencia, sin efecto de terceros</text></svg>