<?xml version="1.0" encoding="utf-8" ?>
<svg baseProfile="full" height="600" version="1.1" width="600" xmlns="http://www.w3.org/2000/svg" xmlns:ev="http://www.w3.org/2001/xml-events" xmlns:xlink="http://www.w3.org/1999/xlink"><defs><clipPath id="plot_area_clip"><rect height="500" width="500" x="50" y="50" /></clipPath></defs><line stroke="black" x1="50" x2="550" y1="550" y2="550" /><line stroke="black" x1="550" x2="550" y1="550" y2="50" /><line stroke="black" x1="50" x2="50" y1="550" y2="50" /><text font-size="10px" text-anchor="middle" x="50.0" y="565">0%</text><text font-size="10px" text-anchor="middle" x="100.0" y="565">10%</text><text font-size="10px" text-anchor="middle" x="150.0" y="565">20%</text><text font-size="10px" text-anchor="middle" x="200.0" y="565">30%</text><text font-size="10px" text-anchor="middle" x="250.0" y="565">40%</text><text font-size="10px" text-anchor="middle" x="300.0" y="565">50%</text><text font-size="10px" text-anchor="middle" x="350.0" y="565">60%</text><text font-size="10px" text-anchor="middle" x="400.0" y="565">70%</text><text font-size="10px" text-anchor="middle" x="450.0" y="565">80%</text><text font-size="10px" text-anchor="middle" x="500.0" y="565">90%</text><text font-size="10px" text-anchor="middle" x="550.0" y="565">100%</text><line stroke="#ccc" stroke-dasharray="4,2" x1="50.0" x2="550.0" y1="50.0" y2="50.0" /><text fill="#666" font-size="10px" text-anchor="end" x="40.0" y="54.0">Vab/1</text><line stroke="#ccc" stroke-dasharray="4,2" x1="50.0" x2="550.0" y1="300.0" y2="300.0" /><text fill="#666" font-size="10px" text-anchor="end" x="40.0" y="304.0">Vab/2</text><line stroke="#ccc" stroke-dasharray="4,2" x1="50.0" x2="550.0" y1="383.3333333333333" y2="383.3333333333333" /><text fill="#666" font-size="10px" text-anchor="end" x="40.0" y="387.3333333333333">Vab/3</text><line stroke="#ccc" stroke-dasharray="4,2" x1="50.0" x2="550.0" y1="425.0" y2="425.0" /><text fill="#666" font-size="10px" text-anchor="end" x="40.0" y="429.0">Vab/4</text><line stroke="#ccc" stroke-dasharray="4,2" x1="50.0" x2="550.0" y1="450.0" y2="450.0" /><text fill="#666" font-size="10px" text-anchor="end" x="40.0" y="454.0">Vab/5</text><g clip-path="url(#plot_area_clip)"><polyline fill="none" points="50.0,550.0 550.0,50.0" stroke="blue" stroke-dasharray="6,4" stroke-width="2" /></g><text fill="blue" font-size="10px" font-weight="normal" text-anchor="end" x="545.0" y="50.0">Va/1</text><g clip-path="url(#plot_area_clip)"><polyline fill="none" points="50.0,550.0 550.0,300.0" stroke="blue" stroke-dasharray="6,4" stroke-width="2" /></g><text fill="blue" font-size="10px" font-weight="normal" text-anchor="end" x="545.0" y="300.0">Va/2</text><g clip-path="url(#plot_area_clip)"><polyline fill="none" points="50.0,550.0 550.0,383.3333333333333" stroke="blue" stroke-dasharray="6,4" stroke-width="2" /></g><text fill="blue" font-size="10px" font-weight="normal" text-anchor="end" x="545.0" y="383.3333333333333">Va/3</text><g clip-path="url(#plot_area_clip)"><polyline fill="none" points="50.0,550.0 550.0,425.0" stroke="blue" stroke-dasharray="6,4" stroke-width="2" /></g><text fill="blue" font-size="10px" font-weight="normal" text-anchor="end" x="545.0" y="425.0">Va/4</text><g clip-path="url(#plot_area_clip)"><polyline fill="none" points="50.0,50.0 550.0,550.0" stroke="red" stroke-dasharray="6,4" stroke-width="2" /></g><text fill="red" font-size="10px" font-weight="normal" text-anchor="start" x="55.0" y="50.0">Vb/1</text><g clip-path="url(#plot_area_clip)"><polyline fill="none" points="50.0,300.0 550.0,550.0" stroke="red" stroke-dasharray="6,4" stroke-width="2" /></g><text fill="red" font-size="10px" font-weight="normal" text-anchor="start" x="55.0" y="300.0">Vb/2</text><g clip-path="url(#plot_area_clip)"><polyline fill="none" points="50.0,383.3333333333333 550.0,550.0" stroke="red" stroke-dasharray="6,4" stroke-width="2" /></g><text fill="red" font-size="10px" font-weight="normal" text-anchor="start" x="55.0" y="383.3333333333333">Vb/3</text><g clip-path="url(#plot_area_clip)"><polyline fill="none" points="50.0,425.0 550.0,550.0" stroke="red" stroke-dasharray="6,4" stroke-width="2" /></g><text fill="red" font-size="10px" font-weight="normal" text-anchor="start" x="55.0" y="425.0">Vb/4</text><g clip-path="url(#plot_area_clip)"><polyline fill="none" points="50.0,430.95238095238096 550.0,430.95238095238096" stroke="purple" stroke-dasharray="6,4" stroke-width="2" /></g><g clip-path="url(#plot_area_clip)"><polyline fill="none" points="50.0,445.8333333333333 550.0,445.8333333333333" stroke="orange" stroke-dasharray="6,4" stroke-width="2" /></g><text fill="purple" font-size="10px" font-weight="normal" text-anchor="start" x="555.0" y="430.95238095238096">Pmax</text><text fill="orange" font-size="10px" font-weight="normal" text-anchor="start" x="555.0" y="445.8333333333333">Pmin</text><text font-size="12px" text-anchor="middle" x="300" y="595">Concentración del voto A-B en A (%)</text><text font-size="12px" text-anchor="middle" transform="rotate(-90, 10, 300)" x="10" y="300">Votos</text><text font-size="14px" font-weight="bold" text-anchor="middle" x="300" y="25">Espacio de Transferencia de Votos</text></svg>